<?xml version="1.0" encoding="UTF-8" standalone="no"?>
<!-- Created with Inkscape (http://www.inkscape.org/) -->

<svg
   xmlns:dc="http://purl.org/dc/elements/1.1/"
   xmlns:cc="http://creativecommons.org/ns#"
   xmlns:rdf="http://www.w3.org/1999/02/22-rdf-syntax-ns#"
   xmlns:svg="http://www.w3.org/2000/svg"
   xmlns="http://www.w3.org/2000/svg"
   xmlns:xlink="http://www.w3.org/1999/xlink"
   xmlns:sodipodi="http://sodipodi.sourceforge.net/DTD/sodipodi-0.dtd"
   xmlns:inkscape="http://www.inkscape.org/namespaces/inkscape"
   width="1024"
   height="1024"
   viewBox="0 0 1024 1024"
   id="svg2"
   version="1.1"
   inkscape:version="0.91 r13725"
   sodipodi:docname="Buttons.svg"
   inkscape:export-filename="C:\Users\lmaga\Documents\GitHub\Anarchy Bros\Assets\Resources\Sprites\buttons.png"
   inkscape:export-xdpi="180"
   inkscape:export-ydpi="180">
  <defs
     id="defs4">
    <linearGradient
       inkscape:collect="always"
       id="linearGradient4829">
      <stop
         style="stop-color:#ffec00;stop-opacity:1"
         offset="0"
         id="stop4831" />
      <stop
         style="stop-color:#ff7500;stop-opacity:1"
         offset="1"
         id="stop4833" />
    </linearGradient>
    <inkscape:perspective
       sodipodi:type="inkscape:persp3d"
       inkscape:vp_x="0 : 512 : 1"
       inkscape:vp_y="0 : 1000 : 0"
       inkscape:vp_z="1024 : 512 : 1"
       inkscape:persp3d-origin="512 : 341.33333 : 1"
       id="perspective4731" />
    <linearGradient
       inkscape:collect="always"
       xlink:href="#linearGradient4829"
       id="linearGradient4835"
       x1="892.98901"
       y1="38.008118"
       x2="892.98901"
       y2="263.30103"
       gradientUnits="userSpaceOnUse"
       gradientTransform="matrix(0.98264799,0,0,1.04968,-1767.3256,-314.65497)" />
    <linearGradient
       inkscape:collect="always"
       xlink:href="#linearGradient4829"
       id="linearGradient4283"
       gradientUnits="userSpaceOnUse"
       gradientTransform="matrix(0.98264799,0,0,1.04968,-1767.3256,-314.65497)"
       x1="892.98901"
       y1="38.008118"
       x2="892.98901"
       y2="263.30103" />
    <linearGradient
       inkscape:collect="always"
       xlink:href="#linearGradient4829"
       id="linearGradient4307"
       gradientUnits="userSpaceOnUse"
       gradientTransform="matrix(0.98264799,0,0,1.04968,-1767.3256,-314.65497)"
       x1="892.98901"
       y1="38.008118"
       x2="892.98901"
       y2="263.30103" />
    <linearGradient
       inkscape:collect="always"
       xlink:href="#linearGradient4829"
       id="linearGradient4331"
       gradientUnits="userSpaceOnUse"
       gradientTransform="matrix(0.98264799,0,0,1.04968,-1767.3256,-314.65497)"
       x1="892.98901"
       y1="38.008118"
       x2="892.98901"
       y2="263.30103" />
    <linearGradient
       inkscape:collect="always"
       xlink:href="#linearGradient4829"
       id="linearGradient4341"
       gradientUnits="userSpaceOnUse"
       gradientTransform="matrix(0.98264799,0,0,1.04968,-1767.3256,-314.65497)"
       x1="892.98901"
       y1="38.008118"
       x2="892.98901"
       y2="263.30103" />
    <linearGradient
       inkscape:collect="always"
       xlink:href="#linearGradient4829"
       id="linearGradient4399"
       gradientUnits="userSpaceOnUse"
       gradientTransform="matrix(0.98264799,0,0,1.04968,-1767.3256,-314.65497)"
       x1="892.98901"
       y1="38.008118"
       x2="892.98901"
       y2="263.30103" />
  </defs>
  <sodipodi:namedview
     id="base"
     pagecolor="#ffffff"
     bordercolor="#666666"
     borderopacity="1.0"
     inkscape:pageopacity="0.0"
     inkscape:pageshadow="2"
     inkscape:zoom="0.30859375"
     inkscape:cx="-48.919498"
     inkscape:cy="397.94174"
     inkscape:document-units="px"
     inkscape:current-layer="layer1"
     showgrid="false"
     inkscape:snap-global="false"
     inkscape:snap-bbox="true"
     inkscape:snap-bbox-midpoints="true"
     inkscape:snap-bbox-edge-midpoints="true"
     inkscape:bbox-paths="true"
     inkscape:snap-page="true"
     inkscape:window-width="1536"
     inkscape:window-height="801"
     inkscape:window-x="-8"
     inkscape:window-y="-8"
     inkscape:window-maximized="1"
     inkscape:bbox-nodes="true"
     units="px"
     showguides="false" />
  <metadata
     id="metadata7">
    <rdf:RDF>
      <cc:Work
         rdf:about="">
        <dc:format>image/svg+xml</dc:format>
        <dc:type
           rdf:resource="http://purl.org/dc/dcmitype/StillImage" />
        <dc:title />
      </cc:Work>
    </rdf:RDF>
  </metadata>
  <g
     inkscape:groupmode="layer"
     id="layer2"
     inkscape:label="Background"
     style="display:none"
     sodipodi:insensitive="true">
    <rect
       style="opacity:1;fill:none;fill-opacity:1;stroke:#000000;stroke-width:1;stroke-linecap:round;stroke-linejoin:miter;stroke-miterlimit:4;stroke-dasharray:none;stroke-opacity:1"
       id="rect4254"
       width="255"
       height="255"
       x="0.5"
       y="0.5" />
    <rect
       y="0.5"
       x="256.5"
       height="255"
       width="255"
       id="rect4333"
       style="opacity:1;fill:none;fill-opacity:1;stroke:#000000;stroke-width:1;stroke-linecap:round;stroke-linejoin:miter;stroke-miterlimit:4;stroke-dasharray:none;stroke-opacity:1" />
    <rect
       y="0.5"
       x="512.5"
       height="255"
       width="255"
       id="rect4646"
       style="opacity:1;fill:none;fill-opacity:1;stroke:#000000;stroke-width:1;stroke-linecap:round;stroke-linejoin:miter;stroke-miterlimit:4;stroke-dasharray:none;stroke-opacity:1" />
    <rect
       style="opacity:1;fill:none;fill-opacity:1;stroke:#000000;stroke-width:1;stroke-linecap:round;stroke-linejoin:miter;stroke-miterlimit:4;stroke-dasharray:none;stroke-opacity:1"
       id="rect4648"
       width="255"
       height="255"
       x="768.5"
       y="0.5" />
    <rect
       y="256.5"
       x="0.5"
       height="255"
       width="255"
       id="rect4650"
       style="opacity:1;fill:none;fill-opacity:1;stroke:#000000;stroke-width:1;stroke-linecap:round;stroke-linejoin:miter;stroke-miterlimit:4;stroke-dasharray:none;stroke-opacity:1" />
    <rect
       style="opacity:1;fill:none;fill-opacity:1;stroke:#000000;stroke-width:1;stroke-linecap:round;stroke-linejoin:miter;stroke-miterlimit:4;stroke-dasharray:none;stroke-opacity:1"
       id="rect4652"
       width="255"
       height="255"
       x="256.5"
       y="256.5" />
    <rect
       style="opacity:1;fill:none;fill-opacity:1;stroke:#000000;stroke-width:1;stroke-linecap:round;stroke-linejoin:miter;stroke-miterlimit:4;stroke-dasharray:none;stroke-opacity:1"
       id="rect4654"
       width="255"
       height="255"
       x="512.5"
       y="256.5" />
    <rect
       y="256.5"
       x="768.5"
       height="255"
       width="255"
       id="rect4656"
       style="opacity:1;fill:none;fill-opacity:1;stroke:#000000;stroke-width:1;stroke-linecap:round;stroke-linejoin:miter;stroke-miterlimit:4;stroke-dasharray:none;stroke-opacity:1" />
    <rect
       style="opacity:1;fill:none;fill-opacity:1;stroke:#000000;stroke-width:1;stroke-linecap:round;stroke-linejoin:miter;stroke-miterlimit:4;stroke-dasharray:none;stroke-opacity:1"
       id="rect4658"
       width="255"
       height="255"
       x="0.5"
       y="512.5" />
    <rect
       y="512.5"
       x="256.5"
       height="255"
       width="255"
       id="rect4660"
       style="opacity:1;fill:none;fill-opacity:1;stroke:#000000;stroke-width:1;stroke-linecap:round;stroke-linejoin:miter;stroke-miterlimit:4;stroke-dasharray:none;stroke-opacity:1" />
    <rect
       y="512.5"
       x="512.5"
       height="255"
       width="255"
       id="rect4662"
       style="opacity:1;fill:none;fill-opacity:1;stroke:#000000;stroke-width:1;stroke-linecap:round;stroke-linejoin:miter;stroke-miterlimit:4;stroke-dasharray:none;stroke-opacity:1" />
    <rect
       style="opacity:1;fill:none;fill-opacity:1;stroke:#000000;stroke-width:1;stroke-linecap:round;stroke-linejoin:miter;stroke-miterlimit:4;stroke-dasharray:none;stroke-opacity:1"
       id="rect4664"
       width="255"
       height="255"
       x="768.5"
       y="512.5" />
    <rect
       y="768.5"
       x="0.5"
       height="255"
       width="255"
       id="rect4666"
       style="opacity:1;fill:none;fill-opacity:1;stroke:#000000;stroke-width:1;stroke-linecap:round;stroke-linejoin:miter;stroke-miterlimit:4;stroke-dasharray:none;stroke-opacity:1" />
    <rect
       style="opacity:1;fill:none;fill-opacity:1;stroke:#000000;stroke-width:1;stroke-linecap:round;stroke-linejoin:miter;stroke-miterlimit:4;stroke-dasharray:none;stroke-opacity:1"
       id="rect4668"
       width="255"
       height="255"
       x="256.5"
       y="768.5" />
    <rect
       style="opacity:1;fill:none;fill-opacity:1;stroke:#000000;stroke-width:1;stroke-linecap:round;stroke-linejoin:miter;stroke-miterlimit:4;stroke-dasharray:none;stroke-opacity:1"
       id="rect4670"
       width="255"
       height="255"
       x="512.5"
       y="768.5" />
    <rect
       y="768.5"
       x="768.5"
       height="255"
       width="255"
       id="rect4672"
       style="opacity:1;fill:none;fill-opacity:1;stroke:#000000;stroke-width:1;stroke-linecap:round;stroke-linejoin:miter;stroke-miterlimit:4;stroke-dasharray:none;stroke-opacity:1" />
  </g>
  <g
     inkscape:label="Layer 1"
     inkscape:groupmode="layer"
     id="layer1"
     transform="translate(0,-28.362161)">
    <g
       id="g4323"
       transform="translate(-768.00005,256.00001)">
      <rect
         style="opacity:1;fill:url(#linearGradient4331);fill-opacity:1;stroke:#000000;stroke-width:0.99999994;stroke-linecap:round;stroke-linejoin:round;stroke-miterlimit:4;stroke-dasharray:none;stroke-opacity:1"
         id="rect4325"
         width="239.02396"
         height="238.99994"
         x="-1015.512"
         y="-275.86212"
         transform="scale(-1,-1)"
         rx="39.605713"
         ry="42.307446" />
      <path
         style="opacity:1;fill:#ffffff;fill-opacity:0.240625;stroke:none;stroke-width:10;stroke-linecap:round;stroke-linejoin:round;stroke-miterlimit:4;stroke-dasharray:none;stroke-opacity:1"
         d="m 816.09363,36.861237 c -21.94157,0 -39.60532,22.357155 -39.60532,50.12575 l 0,54.182053 a 151.82191,82.22065 0 0 0 119.51072,31.55419 151.82191,82.22065 0 0 0 119.51267,-31.66834 l 0,-54.067903 c 0,-27.768595 -17.66378,-50.12575 -39.60534,-50.12575 l -159.81273,0 z"
         id="path4327"
         inkscape:connector-curvature="0" />
      <rect
         ry="42.307446"
         rx="39.605713"
         transform="scale(-1,-1)"
         y="-275.86212"
         x="-1015.512"
         height="238.99994"
         width="239.02396"
         id="rect4329"
         style="opacity:1;fill:none;fill-opacity:1;stroke:#000000;stroke-width:4;stroke-linecap:round;stroke-linejoin:round;stroke-miterlimit:4;stroke-dasharray:none;stroke-opacity:1" />
    </g>
    <g
       id="g4297"
       transform="translate(-512.00005,8.9003906e-6)">
      <rect
         style="opacity:1;fill:url(#linearGradient4307);fill-opacity:1;stroke:#000000;stroke-width:0.99999994;stroke-linecap:round;stroke-linejoin:round;stroke-miterlimit:4;stroke-dasharray:none;stroke-opacity:1"
         id="rect4299"
         width="239.02396"
         height="238.99994"
         x="-1015.512"
         y="-275.86212"
         transform="scale(-1,-1)"
         rx="39.605713"
         ry="42.307446" />
      <path
         style="opacity:1;fill:#ffffff;fill-opacity:0.240625;stroke:none;stroke-width:10;stroke-linecap:round;stroke-linejoin:round;stroke-miterlimit:4;stroke-dasharray:none;stroke-opacity:1"
         d="m 816.09363,36.861237 c -21.94157,0 -39.60532,22.357155 -39.60532,50.12575 l 0,54.182053 a 151.82191,82.22065 0 0 0 119.51072,31.55419 151.82191,82.22065 0 0 0 119.51267,-31.66834 l 0,-54.067903 c 0,-27.768595 -17.66378,-50.12575 -39.60534,-50.12575 l -159.81273,0 z"
         id="path4301"
         inkscape:connector-curvature="0" />
      <rect
         ry="42.307446"
         rx="39.605713"
         transform="scale(-1,-1)"
         y="-275.86212"
         x="-1015.512"
         height="238.99994"
         width="239.02396"
         id="rect4303"
         style="opacity:1;fill:none;fill-opacity:1;stroke:#000000;stroke-width:4;stroke-linecap:round;stroke-linejoin:round;stroke-miterlimit:4;stroke-dasharray:none;stroke-opacity:1" />
    </g>
    <rect
       transform="translate(0,28.362161)"
       style="display:inline;opacity:1;fill:none;fill-opacity:1;stroke:#000000;stroke-width:1;stroke-linecap:round;stroke-linejoin:miter;stroke-miterlimit:4;stroke-dasharray:none;stroke-opacity:1"
       id="rect4285"
       width="255"
       height="255"
       x="-371.43817"
       y="214.10094" />
    <g
       transform="translate(-768.00005,8.9003906e-6)"
       id="g4287">
      <rect
         ry="42.307446"
         rx="39.605713"
         transform="scale(-1,-1)"
         y="-275.86212"
         x="-1015.512"
         height="238.99994"
         width="239.02396"
         id="rect4289"
         style="opacity:1;fill:url(#linearGradient4283);fill-opacity:1;stroke:#000000;stroke-width:0.99999994;stroke-linecap:round;stroke-linejoin:round;stroke-miterlimit:4;stroke-dasharray:none;stroke-opacity:1" />
      <path
         inkscape:connector-curvature="0"
         id="path4291"
         d="m 816.09363,36.861237 c -21.94157,0 -39.60532,22.357155 -39.60532,50.12575 l 0,54.182053 a 151.82191,82.22065 0 0 0 119.51072,31.55419 151.82191,82.22065 0 0 0 119.51267,-31.66834 l 0,-54.067903 c 0,-27.768595 -17.66378,-50.12575 -39.60534,-50.12575 l -159.81273,0 z"
         style="opacity:1;fill:#ffffff;fill-opacity:0.240625;stroke:none;stroke-width:10;stroke-linecap:round;stroke-linejoin:round;stroke-miterlimit:4;stroke-dasharray:none;stroke-opacity:1" />
      <rect
         style="opacity:1;fill:none;fill-opacity:1;stroke:#000000;stroke-width:4;stroke-linecap:round;stroke-linejoin:round;stroke-miterlimit:4;stroke-dasharray:none;stroke-opacity:1"
         id="rect4293"
         width="239.02396"
         height="238.99994"
         x="-1015.512"
         y="-275.86212"
         transform="scale(-1,-1)"
         rx="39.605713"
         ry="42.307446" />
    </g>
    <circle
       style="opacity:1;fill:#ffffff;fill-opacity:1;stroke:#000000;stroke-width:1;stroke-linecap:round;stroke-linejoin:round;stroke-miterlimit:4;stroke-dasharray:none;stroke-opacity:1"
       id="path4216"
       cx="396.78571"
       cy="197.00502"
       r="0" />
    <g
       id="g4573"
       transform="translate(1.9212184,257.09054)">
      <ellipse
         style="opacity:1;fill:#00d6ff;fill-opacity:1;stroke:#000000;stroke-width:1;stroke-linecap:round;stroke-linejoin:miter;stroke-miterlimit:4;stroke-dasharray:none;stroke-opacity:1"
         id="ellipse4223"
         cx="126.80404"
         cy="178.93044"
         rx="94.852669"
         ry="29.564392" />
      <ellipse
         ry="17.958179"
         rx="67.27298"
         cy="175.75215"
         cx="127.86462"
         id="path4240"
         style="opacity:1;fill:#ffffff;fill-opacity:0.5780347;stroke:none;stroke-width:1;stroke-linecap:round;stroke-linejoin:miter;stroke-miterlimit:4;stroke-dasharray:none;stroke-opacity:1" />
      <path
         sodipodi:nodetypes="scccs"
         inkscape:connector-curvature="0"
         id="path4220"
         d="m 127.62801,141.37202 c -29.32174,0 -54.04175,20.30317 -61.78516,32.99729 -2.24855,5.31329 36.722,15.83408 62.21094,15.8692 25.38455,-0.0421 64.84572,-9.76221 62.03906,-15.76525 -6.88182,-12.3293 -32.23118,-33.10124 -62.46484,-33.10124 z"
         style="opacity:1;fill:#ffc848;fill-opacity:1;stroke:#000000;stroke-width:0.99999994;stroke-linecap:round;stroke-linejoin:round;stroke-miterlimit:4;stroke-dasharray:none;stroke-opacity:1" />
      <path
         sodipodi:nodetypes="ccccccc"
         inkscape:connector-curvature="0"
         id="path4244"
         d="m 69.57332,169.24195 c -1.49792,1.79293 -2.75087,3.52147 -3.73047,5.12736 -2.24855,5.31329 36.722,15.69969 62.21094,15.73482 25.38455,-0.0422 64.84572,-9.62783 62.03906,-15.63087 -0.89739,-1.60775 -2.116,-3.36062 -3.61132,-5.1907 -10.3607,7.89915 -33.22427,12.98119 -58.43946,12.98973 -25.25349,-0.0118 -48.13882,-5.112 -58.46875,-13.03034 z"
         style="opacity:1;fill:#e7b33a;fill-opacity:1;stroke:none;stroke-width:0.99999994;stroke-linecap:round;stroke-linejoin:round;stroke-miterlimit:4;stroke-dasharray:none;stroke-opacity:1" />
      <path
         style="opacity:1;fill:none;fill-opacity:1;stroke:#000000;stroke-width:0.99999994;stroke-linecap:round;stroke-linejoin:round;stroke-miterlimit:4;stroke-dasharray:none;stroke-opacity:1"
         d="m 127.62801,141.37202 c -29.32174,0 -54.04175,20.30317 -61.78516,32.99729 -2.24855,5.31329 36.722,15.62619 62.21094,15.66132 25.38455,-0.0422 64.84572,-9.55433 62.03906,-15.55737 -6.88182,-12.3293 -32.23118,-33.10124 -62.46484,-33.10124 z"
         id="path4252"
         inkscape:connector-curvature="0"
         sodipodi:nodetypes="scccs" />
      <g
         transform="matrix(1.3826442,0.17621656,-0.17617275,1.382988,-368.95053,-128.06872)"
         id="g4553">
        <ellipse
           style="opacity:1;fill:#b06e07;fill-opacity:0.5317919;stroke:none;stroke-width:0.5;stroke-linecap:round;stroke-linejoin:miter;stroke-miterlimit:4;stroke-dasharray:none;stroke-opacity:1"
           id="path4268"
           cx="387.03125"
           cy="152.16127"
           rx="9.6039019"
           ry="3.1718879" />
        <g
           id="g4304">
          <path
             sodipodi:nodetypes="szsssas"
             inkscape:connector-curvature="0"
             id="rect4234"
             d="m 386.9464,143.73954 c 2.62909,0 3.13363,4.09101 3.4449,5.12674 0.31127,1.03572 3.11596,2.32497 2.22609,3.03487 -0.9119,0.72748 -4.01412,1.34154 -5.52985,1.28685 -1.51573,-0.0547 -4.49801,-0.74432 -5.48786,-1.58759 -0.61741,-0.52598 1.28385,-1.36731 1.83577,-2.12257 1.32304,-1.81049 -0.057,-5.7383 3.51095,-5.7383 z"
             style="opacity:1;fill:#d38d5f;fill-opacity:1;stroke:#000000;stroke-width:0.35868108;stroke-linecap:round;stroke-linejoin:round;stroke-miterlimit:4;stroke-dasharray:none;stroke-opacity:1" />
          <path
             sodipodi:nodetypes="sccs"
             inkscape:connector-curvature="0"
             id="path4239"
             d="m 387.32182,141.33448 c 3.78305,0.15355 3.94958,7.53908 3.94958,7.53908 l -8.49713,-0.34487 c 0,0 0.27432,-7.36764 4.54755,-7.19421 z"
             style="opacity:1;fill:#d38d5f;fill-opacity:1;stroke:#000000;stroke-width:0.35868108;stroke-linecap:round;stroke-linejoin:round;stroke-miterlimit:4;stroke-dasharray:none;stroke-opacity:1" />
          <path
             style="opacity:1;fill:#d38d5f;fill-opacity:1;stroke:#000000;stroke-width:0.35868108;stroke-linecap:round;stroke-linejoin:round;stroke-miterlimit:4;stroke-dasharray:none;stroke-opacity:1"
             d="m 388.00327,137.04419 c 3.76695,0.38076 3.48905,7.76294 3.48905,7.76294 l -8.46101,-0.85524 c 0,0 0.71688,-7.3378 4.97196,-6.9077 z"
             id="path4241"
             inkscape:connector-curvature="0"
             sodipodi:nodetypes="sccs" />
          <path
             sodipodi:nodetypes="sccs"
             inkscape:connector-curvature="0"
             id="path4243"
             d="m 389.09633,132.77119 c 3.72493,0.6781 2.86287,8.01503 2.86287,8.01503 l -8.36662,-1.52307 c 0,0 1.29614,-7.25792 5.50375,-6.49196 z"
             style="opacity:1;fill:#d38d5f;fill-opacity:1;stroke:#000000;stroke-width:0.35868108;stroke-linecap:round;stroke-linejoin:round;stroke-miterlimit:4;stroke-dasharray:none;stroke-opacity:1" />
          <path
             style="opacity:1;fill:#d38d5f;fill-opacity:1;stroke:#000000;stroke-width:0.35868108;stroke-linecap:round;stroke-linejoin:round;stroke-miterlimit:4;stroke-dasharray:none;stroke-opacity:1"
             d="m 390.04071,128.197 c 3.71491,0.73101 2.74858,8.05495 2.74858,8.05495 l -8.34411,-1.64192 c 0,0 1.39924,-7.23876 5.59553,-6.41303 z"
             id="path4245"
             inkscape:connector-curvature="0"
             sodipodi:nodetypes="sccs" />
          <path
             sodipodi:nodetypes="sccs"
             inkscape:connector-curvature="0"
             id="path4247"
             d="m 392.00418,124.91894 c 3.53278,1.36178 1.31573,8.40868 1.31573,8.40868 l -7.935,-3.05871 c 0,0 2.62872,-6.88821 6.61927,-5.34997 z"
             style="opacity:1;fill:#d38d5f;fill-opacity:1;stroke:#000000;stroke-width:0.35868108;stroke-linecap:round;stroke-linejoin:round;stroke-miterlimit:4;stroke-dasharray:none;stroke-opacity:1" />
          <path
             style="opacity:1;fill:#d38d5f;fill-opacity:1;stroke:#000000;stroke-width:0.35868108;stroke-linecap:round;stroke-linejoin:round;stroke-miterlimit:4;stroke-dasharray:none;stroke-opacity:1"
             d="m 395.51046,122.26885 c 3.02386,2.2784 -1.04073,8.44711 -1.04073,8.44711 l -6.79196,-5.11756 c 0,0 4.41698,-5.9032 7.83269,-3.32955 z"
             id="path4249"
             inkscape:connector-curvature="0"
             sodipodi:nodetypes="sccs" />
          <path
             sodipodi:nodetypes="cscccc"
             inkscape:connector-curvature="0"
             id="path4256"
             d="m 393.79464,131.42466 c 0,0 -2.31051,-1.49277 -3.49454,-2.19188 -1.08033,-0.63787 -3.29117,-1.82598 -3.29117,-1.82598 l 1.11607,-1.38392 5.80357,4.24107 z"
             style="fill:#000000;fill-opacity:0.58381503;fill-rule:evenodd;stroke:none;stroke-width:1px;stroke-linecap:butt;stroke-linejoin:miter;stroke-opacity:1" />
          <path
             sodipodi:nodetypes="ccsccc"
             inkscape:connector-curvature="0"
             id="path4258"
             d="m 385.84822,130.50948 -0.5134,1.33929 c 0,0 2.53432,0.60055 3.73989,0.96459 1.2754,0.38511 3.69315,1.28987 3.69315,1.28987 l 0,-0.98214 z"
             style="fill:#000000;fill-opacity:0.58381503;fill-rule:evenodd;stroke:none;stroke-width:1px;stroke-linecap:butt;stroke-linejoin:miter;stroke-opacity:1" />
          <path
             sodipodi:nodetypes="ccsccc"
             inkscape:connector-curvature="0"
             id="path4260"
             d="m 385.3125,134.83984 c -0.067,0.13393 -0.75893,1.36161 -0.75893,1.36161 0,0 2.49682,0.21689 3.73152,0.42316 1.23148,0.20572 3.65688,0.81058 3.65688,0.81058 l -0.2009,-1.27839 z"
             style="fill:#000000;fill-opacity:0.58381503;fill-rule:evenodd;stroke:none;stroke-width:1px;stroke-linecap:butt;stroke-linejoin:miter;stroke-opacity:1" />
          <path
             sodipodi:nodetypes="ccsccc"
             style="fill:#000000;fill-opacity:0.58381503;fill-rule:evenodd;stroke:none;stroke-width:1px;stroke-linecap:butt;stroke-linejoin:miter;stroke-opacity:1"
             d="m 384.55357,139.43805 c -0.067,0.13393 -0.75893,1.36161 -0.75893,1.36161 0,0 2.44492,0.23831 3.6566,0.43434 1.2611,0.20403 3.75412,0.77101 3.75412,0.77101 l -0.22322,-1.25 z"
             id="path4262"
             inkscape:connector-curvature="0" />
          <path
             sodipodi:nodetypes="ccaccc"
             inkscape:connector-curvature="0"
             id="path4264"
             d="m 383.75,144.05859 c -0.067,0.13393 -0.46876,1.1384 -0.46876,1.1384 0,0 2.5304,0.0198 3.79057,0.12004 1.26505,0.10064 3.77641,0.48263 3.77641,0.48263 l -0.17858,-1.04911 z"
             style="fill:#000000;fill-opacity:0.58381503;fill-rule:evenodd;stroke:none;stroke-width:1px;stroke-linecap:butt;stroke-linejoin:miter;stroke-opacity:1" />
          <path
             style="fill:#000000;fill-opacity:0.58381503;fill-rule:evenodd;stroke:none;stroke-width:1px;stroke-linecap:butt;stroke-linejoin:miter;stroke-opacity:1"
             d="m 383.71843,148.41487 c -0.067,0.13393 -0.46876,1.1384 -0.46876,1.1384 0,0 2.57827,0.36472 3.8766,0.38151 1.23851,0.016 3.70616,-0.26814 3.70616,-0.26814 l -0.19436,-0.55981 z"
             id="path4266"
             inkscape:connector-curvature="0"
             sodipodi:nodetypes="ccaccc" />
        </g>
        <path
           d="m 383.42578,107.62388 c 0,0 1.81178,1.4835 3.6582,3.22461 l 2.70899,-0.39063 -1.99414,1.07618 c 0.48647,0.47723 0.96423,0.96045 1.39062,1.43164 0.86624,-0.2398 1.74024,-0.48828 1.74024,-0.48828 l -1.39844,0.86328 c 0.30017,0.34757 0.57261,0.68523 0.79492,1 0.88378,1.2513 1.91992,4.17578 1.91992,4.17578 0,0 -5.93495,-4.17847 -9.24804,-3.80664 -0.21646,0.0243 -0.44001,0.0737 -0.66602,0.13086 l 0.38867,1.67773 -1.1582,-1.42969 c -3.91711,1.49467 -8.63867,6.72266 -8.63867,6.72266 0,0 2.68856,-0.73521 5.66015,-1.32422 l 0.85547,-1.56836 0.28321,1.35742 c 1.62735,-0.29024 3.25181,-0.51243 4.49218,-0.50781 0.90097,0.003 2.13572,0.22127 3.29883,0.46289 l 0.89063,-1.12304 0.16211,1.3457 c 1.12429,0.26541 2.13671,0.53711 2.13671,0.53711 0,0 -0.88291,0.0391 -2.05078,0.17383 l 0.004,0.0254 -0.0508,-0.0195 c -1.33876,0.15687 -3.05492,0.44209 -4.45703,0.98437 l 1.47656,1.6875 -2.43359,-1.24023 c -0.29039,0.16463 -0.55664,0.34146 -0.77149,0.54101 -1.73809,1.61434 -2.86002,5.02102 -3.54687,7.96094 l 0.88086,0.25195 -0.9375,0.0195 c -0.60106,2.65263 -0.85352,4.86719 -0.85352,4.86719 0,0 4.11268,-4.22257 7.41211,-7.00195 l -0.9043,-2.95899 1.71485,2.29688 c 0.3131,-0.24957 0.63284,-0.50816 0.91601,-0.71289 2.04814,-1.48077 6.61719,-3.70118 6.61719,-3.70118 0,0 1.28422,4.24315 1.6582,6.42188 0.12111,0.70554 0.2278,1.56542 0.32813,2.4668 l 2.54687,-0.11914 -2.48828,0.63867 c 0.40393,3.86955 0.62305,8.54297 0.62305,8.54297 0,0 4.88675,-7.80705 4.90234,-11.1875 0.002,-0.41737 -0.0502,-0.83627 -0.14062,-1.25 l -1.55078,-0.12891 1.41211,-0.39648 c -0.25979,-0.86957 -0.6147,-1.65952 -1.42354,-2.92395 -0.80883,-1.26443 -1.721,-2.16394 -1.721,-2.16394 0,0 1.07895,0.87511 2.38672,1.91992 l 1.48828,-0.49805 -0.57226,1.22071 c 0.51784,0.40913 0.97643,0.78141 1.50195,1.18554 2.27852,1.75223 7.35547,8.06836 7.35547,8.06836 0,0 -0.59879,-7.45704 -2.33398,-10.19921 -1.2626,0.30814 -2.51368,0.61718 -2.51368,0.61718 l 1.91797,-1.32226 c -2.11919,-2.02301 -6.27343,-3.70899 -6.27343,-3.70899 0,0 0.25737,-0.21036 1.42773,-1.01367 0.0277,-0.019 0.0984,-0.0461 0.13281,-0.0664 l -1.54101,-2.17187 2.77539,1.63085 c 2.01102,-0.75642 4.92318,-1.59167 6.14453,-1.9375 l 0.21289,-0.5039 c -0.83801,-0.24518 -2.52312,-0.71652 -4.69727,-1.07422 l -0.77343,0.93945 -0.10157,-1.05664 c -1.47353,-0.19565 -2.93162,-0.27548 -4.02343,-0.041 -1.7044,0.366 -4.42383,2.78711 -4.42383,2.78711 0,0 -0.10478,-2.52627 -0.69727,-4.75976 l -2.11914,0.29101 c 0,0 0.93558,-0.3364 2.00391,-0.71094 -0.27643,-0.91813 -0.63558,-1.75938 -1.12891,-2.29687 -2.53113,-2.75772 -10.58789,-3.74023 -10.58789,-3.74023 z"
           style="fill:#26ff26;fill-opacity:1;fill-rule:evenodd;stroke:#000000;stroke-width:0.35868108;stroke-linecap:round;stroke-linejoin:miter;stroke-opacity:1"
           id="path4532"
           inkscape:connector-curvature="0"
           sodipodi:nodetypes="ccccccccccccccccccccccccccccscccccccscscccccccccccccscccccccccccccccccccscc" />
        <path
           style="opacity:1;fill:#ffffff;fill-opacity:0.28323699;stroke:none;stroke-width:0.5;stroke-linecap:round;stroke-linejoin:miter;stroke-miterlimit:4;stroke-dasharray:none;stroke-opacity:1"
           d="m 388.15743,126.29535 1.20429,0.87283 -1.594,3.745 -1.44547,-0.53792 z"
           id="rect4542"
           inkscape:connector-curvature="0"
           sodipodi:nodetypes="ccccc" />
        <path
           inkscape:connector-curvature="0"
           id="path4253"
           style="fill:#26ff26;fill-opacity:1;fill-rule:evenodd;stroke:#000000;stroke-width:0.35868108;stroke-linecap:round;stroke-linejoin:miter;stroke-opacity:1"
           d="m 383.42578,107.62388 c 0,0 1.81178,1.4835 3.6582,3.22461 l 2.70899,-0.39063 -1.99414,1.07618 c 0.48647,0.47723 0.96423,0.96045 1.39062,1.43164 0.86624,-0.2398 1.74024,-0.48828 1.74024,-0.48828 l -1.39844,0.86328 c 0.30017,0.34757 0.57261,0.68523 0.79492,1 0.88378,1.2513 1.91992,4.17578 1.91992,4.17578 0,0 -5.93495,-4.17847 -9.24804,-3.80664 -0.21646,0.0243 -0.44001,0.0737 -0.66602,0.13086 l 0.38867,1.67773 -1.1582,-1.42969 c -3.91711,1.49467 -8.63867,6.72266 -8.63867,6.72266 0,0 2.68856,-0.73521 5.66015,-1.32422 l 0.85547,-1.56836 0.28321,1.35742 c 1.62735,-0.29024 3.25181,-0.51243 4.49218,-0.50781 0.90097,0.003 2.13572,0.22127 3.29883,0.46289 l 0.89063,-1.12304 0.16211,1.3457 c 1.12429,0.26541 2.13671,0.53711 2.13671,0.53711 0,0 -0.88291,0.0391 -2.05078,0.17383 l 0.004,0.0254 -0.0508,-0.0195 c -1.33876,0.15687 -3.05492,0.44209 -4.45703,0.98437 l 1.47656,1.6875 -2.43359,-1.24023 c -0.29039,0.16463 -0.55664,0.34146 -0.77149,0.54101 -1.73809,1.61434 -2.86002,5.02102 -3.54687,7.96094 l 0.88086,0.25195 -0.9375,0.0195 c -0.60106,2.65263 -0.85352,4.86719 -0.85352,4.86719 0,0 4.11268,-4.22257 7.41211,-7.00195 l -0.9043,-2.95899 1.71485,2.29688 c 0.3131,-0.24957 0.63284,-0.50816 0.91601,-0.71289 2.04814,-1.48077 6.61719,-3.70118 6.61719,-3.70118 0,0 1.28422,4.24315 1.6582,6.42188 0.12111,0.70554 0.2278,1.56542 0.32813,2.4668 l 2.54687,-0.11914 -2.48828,0.63867 c 0.40393,3.86955 0.62305,8.54297 0.62305,8.54297 0,0 4.88675,-7.80705 4.90234,-11.1875 0.002,-0.41737 -0.0502,-0.83627 -0.14062,-1.25 l -1.55078,-0.12891 1.41211,-0.39648 c -0.25979,-0.86957 -0.6772,-1.69077 -1.1211,-2.42188 l -0.42383,-0.48437 0.10157,-0.0332 c -0.85151,-1.28018 -1.70118,-2.14844 -1.70118,-2.14844 0,0 1.07895,0.87511 2.38672,1.91992 l 1.48828,-0.49805 -0.57226,1.22071 c 0.51784,0.40913 0.97643,0.78141 1.50195,1.18554 2.27852,1.75223 7.35547,8.06836 7.35547,8.06836 0,0 -0.59879,-7.45704 -2.33398,-10.19921 -1.2626,0.30814 -2.51368,0.61718 -2.51368,0.61718 l 1.91797,-1.32226 c -2.11919,-2.02301 -6.27343,-3.70899 -6.27343,-3.70899 0,0 0.25737,-0.21036 1.42773,-1.01367 0.0277,-0.019 0.0984,-0.0461 0.13281,-0.0664 l -1.54101,-2.17187 2.77539,1.63085 c 2.01102,-0.75642 4.92318,-1.59167 6.14453,-1.9375 l 0.21289,-0.5039 c -0.83801,-0.24518 -2.52312,-0.71652 -4.69727,-1.07422 l -0.77343,0.93945 -0.10157,-1.05664 c -1.47353,-0.19565 -2.93162,-0.27548 -4.02343,-0.041 -1.7044,0.366 -4.42383,2.78711 -4.42383,2.78711 0,0 -0.10478,-2.52627 -0.69727,-4.75976 l -2.11914,0.29101 c 0,0 0.93558,-0.3364 2.00391,-0.71094 -0.27643,-0.91813 -0.63558,-1.75938 -1.12891,-2.29687 -2.53113,-2.75772 -10.58789,-3.74023 -10.58789,-3.74023 z" />
        <path
           style="fill:#0fc50f;fill-opacity:1;fill-rule:evenodd;stroke:none;stroke-width:0.5;stroke-linecap:round;stroke-linejoin:miter;stroke-opacity:1"
           d="m 395.25781,114.08091 c -0.70247,0.0964 -1.40495,0.19271 -2.10742,0.28906 0.90652,2.24445 1.23317,4.67262 1.4671,7.06625 0.0234,0.45109 0.33264,-0.56622 0.47105,-0.72118 0.25533,-0.67248 0.78214,-1.29067 0.80287,-2.0246 -0.036,-1.55311 -0.2486,-3.10442 -0.6336,-4.60953 z m -11.61914,-6.3164 c 1.93678,0.78573 3.83015,1.68962 5.6211,2.76953 0.12298,0.002 0.70713,-0.14866 0.40298,-0.006 -0.55041,0.20874 0.54925,0.47116 0.69416,0.72175 1.15688,0.79501 2.29486,1.76272 2.79348,3.11791 0.66315,-0.23823 1.32727,-0.47378 1.99219,-0.70703 -0.34228,-1.18462 -0.90392,-2.43043 -2.05179,-3.02905 -2.52916,-1.48929 -5.42483,-2.2064 -8.29341,-2.70251 -0.38512,-0.0623 -0.77118,-0.11994 -1.15871,-0.1649 z"
           id="path4501"
           inkscape:connector-curvature="0" />
        <path
           style="fill:#00a600;fill-opacity:1;fill-rule:evenodd;stroke:none;stroke-width:0.5;stroke-linecap:round;stroke-linejoin:miter;stroke-opacity:1"
           d="m 383.625,114.83286 c -0.49056,0.0428 -1.54297,-0.0825 -1.14324,0.65413 0.0797,0.3438 0.15929,0.68761 0.23894,1.03141 -0.34961,-0.43164 -0.69921,-0.86328 -1.04882,-1.29492 -2.54465,1.01787 -4.67361,2.81963 -6.69116,4.63161 -0.65089,0.60073 -1.28797,1.21695 -1.89869,1.85862 2.61901,-1.75602 5.36579,-3.40949 8.38587,-4.37366 1.33697,-0.44531 2.79172,-0.50652 4.14799,-0.10607 3.05578,0.84638 5.83571,2.44853 8.5025,4.12621 0.29696,0.1874 0.8075,0.59171 0.32528,0.0431 -0.78643,-1.0193 -1.50944,-2.10596 -2.40947,-3.02649 -0.95539,-0.56224 -1.96165,-1.04582 -2.91587,-1.61685 -1.69908,-0.93019 -3.50877,-1.89651 -5.49333,-1.92714 z"
           id="path4499"
           inkscape:connector-curvature="0" />
        <g
           id="g4505">
          <path
             style="fill:#007c00;fill-opacity:1;fill-rule:evenodd;stroke:none;stroke-width:0.5;stroke-linecap:round;stroke-linejoin:miter;stroke-opacity:1"
             d="m 409.53125,117.50669 c -2.44261,0.0278 -4.90821,0.064 -7.31127,0.54852 -0.22598,0.0829 -0.94683,0.1711 -0.87875,0.33528 0.7541,0.44303 1.50819,0.88606 2.26229,1.32909 2.01336,-0.81409 4.09626,-1.4425 6.1914,-2.00781 0.1938,-0.2964 -0.0303,-0.18395 -0.26367,-0.20508 z"
             id="path4497"
             inkscape:connector-curvature="0" />
          <path
             style="fill:#007c00;fill-opacity:1;fill-rule:evenodd;stroke:none;stroke-width:0.5;stroke-linecap:round;stroke-linejoin:miter;stroke-opacity:1"
             d="m 401.0625,118.40708 c -2.23348,0.85177 -4.31678,2.0473 -6.36523,3.26758 2.0526,0.0332 4.13736,-0.12673 6.19519,-0.29695 0.49386,-0.37315 0.95029,-0.80386 1.49023,-1.10939 -0.43999,-0.62034 -0.88054,-1.24125 -1.32019,-1.86124 z"
             id="path4495"
             inkscape:connector-curvature="0" />
        </g>
        <path
           style="fill:#00a600;fill-opacity:1;fill-rule:evenodd;stroke:none;stroke-width:0.5;stroke-linecap:round;stroke-linejoin:miter;stroke-opacity:1"
           d="m 400.83398,121.37779 c -2.01038,0.0989 -4.02056,0.20236 -6.03125,0.29492 2.93664,0.96979 5.87547,2.0526 8.51022,3.69679 1.93546,1.171 3.09826,3.19444 4.17172,5.11389 0.95617,1.77271 1.79439,3.60809 2.54072,5.47838 -0.29646,-2.86879 -0.67879,-5.76443 -1.63888,-8.4971 -0.21978,-0.58189 -0.47409,-1.1578 -0.83573,-1.66696 -0.79117,0.19337 -1.58217,0.38746 -2.37305,0.58203 0.58919,-0.40625 1.17839,-0.8125 1.76758,-1.21875 -1.31405,-1.16702 -2.708,-2.27297 -4.32436,-2.99316 -0.58813,-0.27657 -1.17003,-0.58437 -1.78697,-0.79004 z"
           id="path4493"
           inkscape:connector-curvature="0" />
        <path
           style="fill:#00d500;fill-opacity:1;fill-rule:evenodd;stroke:none;stroke-width:0.5;stroke-linecap:round;stroke-linejoin:miter;stroke-opacity:1"
           d="m 394.82422,121.70982 c 1.35081,2.43507 2.65657,4.93731 3.40125,7.63391 0.54341,2.12595 0.13145,4.33948 -0.22983,6.45973 -0.40611,2.11355 -0.94379,4.20101 -1.57572,6.25792 1.61938,-2.81991 3.15734,-5.71468 4.21022,-8.79984 0.37095,-1.15258 0.69532,-2.40649 0.30931,-3.60055 -0.44726,-0.0371 -0.89453,-0.0742 -1.34179,-0.11133 0.41146,-0.11523 0.82291,-0.23047 1.23437,-0.3457 -0.28945,-1.04352 -0.6535,-2.12406 -1.36719,-2.95703 -0.11772,-0.51367 -0.74891,-1.1599 -1.13587,-1.66378 -0.8025,-0.88131 -1.82839,-1.5264 -2.74222,-2.28568 -0.25371,-0.19648 -0.50778,-0.39256 -0.76253,-0.58765 z"
           id="path4486"
           inkscape:connector-curvature="0" />
        <path
           style="fill:#00d500;fill-opacity:1;fill-rule:evenodd;stroke:none;stroke-width:0.5;stroke-linecap:round;stroke-linejoin:miter;stroke-opacity:1"
           d="m 390.19141,120.79576 c -0.43073,0.0611 1.06748,0.22829 0.17076,0.21475 -0.78819,0.0461 -1.52827,0.1349 -2.27501,0.22534 -1.33643,0.18401 -2.67404,0.43796 -3.93865,0.91928 0.49219,0.5625 0.98437,1.125 1.47656,1.6875 -0.79427,-0.40495 -1.58854,-0.80989 -2.38281,-1.21484 -1.84501,1.08251 -2.6918,3.1606 -3.39435,5.07383 -0.39102,1.11401 -0.70572,2.25358 -0.97481,3.40274 0.29362,0.084 0.58724,0.16797 0.88086,0.25195 -0.3125,0.006 -0.625,0.013 -0.9375,0.0195 -0.35615,1.58511 -0.6435,3.18642 -0.84375,4.79883 1.42037,-3.1773 2.98548,-6.33499 5.13904,-9.08719 0.94108,-1.24553 2.22578,-2.18349 3.64424,-2.81729 2.49903,-1.16 5.15893,-1.93382 7.83195,-2.57599 -1.46324,-0.30647 -2.9201,-0.66471 -4.39653,-0.89841 z"
           id="path4491"
           inkscape:connector-curvature="0" />
        <path
           style="fill:none;fill-rule:evenodd;stroke:#70ff4c;stroke-width:0.17934054;stroke-linecap:round;stroke-linejoin:miter;stroke-opacity:1"
           d="m 394.58398,93.283203 c 0,0 -0.43634,-6.114417 -2.1582,-8.460937 -0.64706,-0.881806 -1.78591,-1.741838 -3.11524,-2.580078 -2.67165,-1.648904 -5.60546,-2.820313 -5.60546,-2.820313 m 10.77544,13.892578 c 0.003,-7.22e-4 0.037,-0.0093 0.0391,-0.0098 -0.19033,-0.127618 -6.96138,-4.65204 -10.86914,-4.632813 -0.8457,0.0042 -1.83594,0.243922 -2.85942,0.60158 -3.50924,1.226314 -7.42973,3.916032 -7.42973,3.916032 -0.0457,-0.03801 -0.0602,-0.05018 -0.10547,-0.08789 m 21.26367,0.203126 c 0.001,8.73e-4 0.0306,0.01908 0.0312,0.01953 l 0.0469,-0.03906 c 0,0 -0.0741,0.01857 -0.0781,0.01953 z m 0.0312,0.01953 -0.008,0.0098 0.041,0.01172 c 0,0 -0.0325,-0.021 -0.0332,-0.02148 z m -0.008,0.0098 -0.0625,-0.01953 c -0.344,0.08265 -7.00939,1.702311 -9.6543,3.865235 -3.09283,2.529228 -6.3582,9.404617 -6.8125,10.343747 -0.005,0.0376 -0.0274,0.19073 -0.0293,0.20703 m 31.90234,-18.597653 c -0.66898,-0.0019 -6.24925,-0.14104 -8.84464,0.612267 -2.34685,0.681166 -4.38194,2.024172 -6.3298,3.527133 0.003,0.001 0.0698,0.06212 0.0748,0.06372 m 14.85546,13.521493 c 0,0 -2.43702,-6.57028 -5.22461,-9.011724 -2.41786,-2.117609 -9.20801,-4.37062 -9.63086,-4.509765 l 4e-5,-2e-6 -0.0684,0.01758 m 0,0 -0.0176,-0.01563 -0.002,0.002 c 7.9e-4,0.0014 0.009,0.01599 0.01,0.01758 z m 1.8435,19.753901 c 0,0 2.27843,-7.21193 1.85156,-10.88086 -0.35782,-3.075466 -3.50882,-8.531566 -3.70508,-8.869143 l 2e-5,2e-6 -0.0547,0.01367 m 0,0 0,-0.0039 -0.0117,0.0078 z m 0,-0.0039 c 5.5e-4,-3.62e-4 0.0423,-0.02566 0.0449,-0.02734 -3.8e-4,-6.55e-4 -0.006,-0.0072 -0.006,-0.0078 l -0.0469,-0.04297 z m 0.0391,-0.03516 0.008,0.0059 0.0332,-0.02148 c -0.004,-0.0012 -0.0593,-0.01913 -0.0605,-0.01953 9e-4,0.0015 0.0181,0.03266 0.0195,0.03516 z m -0.0195,-0.03516 c -10e-4,-0.0025 -0.0312,-0.05664 -0.0312,-0.05664 l 0.004,0.04687 c 8e-5,2.4e-5 0.0268,0.0096 0.0274,0.0098 z"
           transform="translate(0,28.362161)"
           id="path4276"
           inkscape:connector-curvature="0"
           sodipodi:nodetypes="csccccsccccccccccccscccccsccccccccccccccccccccccccccccccccccccc" />
        <path
           inkscape:connector-curvature="0"
           d="m 383.42578,107.62388 c 0,0 1.81178,1.4835 3.6582,3.22461 l 2.70899,-0.39063 -1.99414,1.07618 c 0.48647,0.47723 0.96423,0.96045 1.39062,1.43164 0.86624,-0.2398 1.74024,-0.48828 1.74024,-0.48828 l -1.39844,0.86328 c 0.30017,0.34757 0.57261,0.68523 0.79492,1 0.88378,1.2513 1.91992,4.17578 1.91992,4.17578 0,0 -5.93495,-4.17847 -9.24804,-3.80664 -0.21646,0.0243 -0.44001,0.0737 -0.66602,0.13086 l 0.38867,1.67773 -1.1582,-1.42969 c -3.91711,1.49467 -8.63867,6.72266 -8.63867,6.72266 0,0 2.68856,-0.73521 5.66015,-1.32422 l 0.85547,-1.56836 0.28321,1.35742 c 1.62735,-0.29024 3.25181,-0.51243 4.49218,-0.50781 0.90097,0.003 2.13572,0.22127 3.29883,0.46289 l 0.89063,-1.12304 0.16211,1.3457 c 1.12429,0.26541 2.13671,0.53711 2.13671,0.53711 0,0 -0.88291,0.0391 -2.05078,0.17383 l 0.004,0.0254 -0.0508,-0.0195 c -1.33876,0.15687 -3.05492,0.44209 -4.45703,0.98437 l 1.47656,1.6875 -2.43359,-1.24023 c -0.29039,0.16463 -0.55664,0.34146 -0.77149,0.54101 -1.73809,1.61434 -2.86002,5.02102 -3.54687,7.96094 l 0.88086,0.25195 -0.9375,0.0195 c -0.60106,2.65263 -0.85352,4.86719 -0.85352,4.86719 0,0 4.11268,-4.22257 7.41211,-7.00195 l -0.9043,-2.95899 1.71485,2.29688 c 0.3131,-0.24957 0.63284,-0.50816 0.91601,-0.71289 2.04814,-1.48077 6.61719,-3.70118 6.61719,-3.70118 0,0 1.28422,4.24315 1.6582,6.42188 0.12111,0.70554 0.2278,1.56542 0.32813,2.4668 l 2.54687,-0.11914 -2.48828,0.63867 c 0.40393,3.86955 0.62305,8.54297 0.62305,8.54297 0,0 4.88675,-7.80705 4.90234,-11.1875 0.002,-0.41737 -0.0502,-0.83627 -0.14062,-1.25 l -1.55078,-0.12891 1.41211,-0.39648 c -0.25979,-0.86957 -0.6772,-1.69077 -1.1211,-2.42188 l -0.42383,-0.48437 0.10157,-0.0332 c -0.85151,-1.28018 -1.70118,-2.14844 -1.70118,-2.14844 0,0 1.07895,0.87511 2.38672,1.91992 l 1.48828,-0.49805 -0.57226,1.22071 c 0.51784,0.40913 0.97643,0.78141 1.50195,1.18554 2.27852,1.75223 7.35547,8.06836 7.35547,8.06836 0,0 -0.59879,-7.45704 -2.33398,-10.19921 -1.2626,0.30814 -2.51368,0.61718 -2.51368,0.61718 l 1.91797,-1.32226 c -2.11919,-2.02301 -6.27343,-3.70899 -6.27343,-3.70899 0,0 0.25737,-0.21036 1.42773,-1.01367 0.0277,-0.019 0.0984,-0.0461 0.13281,-0.0664 l -1.54101,-2.17187 2.77539,1.63085 c 2.01102,-0.75642 4.92318,-1.59167 6.14453,-1.9375 l 0.21289,-0.5039 c -0.83801,-0.24518 -2.52312,-0.71652 -4.69727,-1.07422 l -0.77343,0.93945 -0.10157,-1.05664 c -1.47353,-0.19565 -2.93162,-0.27548 -4.02343,-0.041 -1.7044,0.366 -4.42383,2.78711 -4.42383,2.78711 0,0 -0.10478,-2.52627 -0.69727,-4.75976 l -2.11914,0.29101 c 0,0 0.93558,-0.3364 2.00391,-0.71094 -0.27643,-0.91813 -0.63558,-1.75938 -1.12891,-2.29687 -2.53113,-2.75772 -10.58789,-3.74023 -10.58789,-3.74023 z"
           style="fill:none;fill-opacity:1;fill-rule:evenodd;stroke:#000000;stroke-width:0.35868108;stroke-linecap:round;stroke-linejoin:miter;stroke-opacity:1"
           id="path4538" />
        <path
           sodipodi:nodetypes="ccccc"
           inkscape:connector-curvature="0"
           id="path4545"
           d="m 386.3709,130.91665 1.27326,0.47965 -0.73822,3.43911 -1.48967,-0.29485 z"
           style="opacity:1;fill:#ffffff;fill-opacity:0.28323699;stroke:none;stroke-width:0.5;stroke-linecap:round;stroke-linejoin:miter;stroke-miterlimit:4;stroke-dasharray:none;stroke-opacity:1" />
        <path
           style="opacity:1;fill:#ffffff;fill-opacity:0.28323699;stroke:none;stroke-width:0.5;stroke-linecap:round;stroke-linejoin:miter;stroke-miterlimit:4;stroke-dasharray:none;stroke-opacity:1"
           d="m 385.79768,135.12181 1.33955,0.24763 -1.22436,4.09097 -1.39024,-0.27275 z"
           id="path4547"
           inkscape:connector-curvature="0"
           sodipodi:nodetypes="ccccc" />
        <path
           sodipodi:nodetypes="ccccc"
           inkscape:connector-curvature="0"
           id="path4549"
           d="m 384.98009,139.7622 1.33955,0.24763 -1.01444,3.90314 -1.50072,-0.14016 z"
           style="opacity:1;fill:#ffffff;fill-opacity:0.28323699;stroke:none;stroke-width:0.5;stroke-linecap:round;stroke-linejoin:miter;stroke-miterlimit:4;stroke-dasharray:none;stroke-opacity:1" />
        <path
           style="opacity:1;fill:#ffffff;fill-opacity:0.28323699;stroke:none;stroke-width:0.5;stroke-linecap:round;stroke-linejoin:miter;stroke-miterlimit:4;stroke-dasharray:none;stroke-opacity:1"
           d="m 384.40197,144.35595 1.29267,0.11482 -0.53788,3.89533 -1.41478,-0.0542 z"
           id="path4551"
           inkscape:connector-curvature="0"
           sodipodi:nodetypes="ccccc" />
      </g>
      <g
         transform="matrix(-1.3932268,0.04076347,0.04075334,1.3935732,645.91633,-74.878379)"
         id="g4587">
        <ellipse
           ry="3.1718879"
           rx="9.6039019"
           cy="152.16127"
           cx="387.03125"
           id="ellipse4589"
           style="opacity:1;fill:#b06e07;fill-opacity:0.5317919;stroke:none;stroke-width:0.5;stroke-linecap:round;stroke-linejoin:miter;stroke-miterlimit:4;stroke-dasharray:none;stroke-opacity:1" />
        <g
           id="g4591">
          <path
             style="opacity:1;fill:#d38d5f;fill-opacity:1;stroke:#000000;stroke-width:0.35868108;stroke-linecap:round;stroke-linejoin:round;stroke-miterlimit:4;stroke-dasharray:none;stroke-opacity:1"
             d="m 386.9464,143.73954 c 2.62909,0 3.13363,4.09101 3.4449,5.12674 0.31127,1.03572 3.11596,2.32497 2.22609,3.03487 -0.9119,0.72748 -4.01412,1.34154 -5.52985,1.28685 -1.51573,-0.0547 -4.49801,-0.74432 -5.48786,-1.58759 -0.61741,-0.52598 1.28385,-1.36731 1.83577,-2.12257 1.32304,-1.81049 -0.057,-5.7383 3.51095,-5.7383 z"
             id="path4593"
             inkscape:connector-curvature="0"
             sodipodi:nodetypes="szsssas" />
          <path
             style="opacity:1;fill:#d38d5f;fill-opacity:1;stroke:#000000;stroke-width:0.35868108;stroke-linecap:round;stroke-linejoin:round;stroke-miterlimit:4;stroke-dasharray:none;stroke-opacity:1"
             d="m 387.32182,141.33448 c 3.78305,0.15355 3.94958,7.53908 3.94958,7.53908 l -8.49713,-0.34487 c 0,0 0.27432,-7.36764 4.54755,-7.19421 z"
             id="path4595"
             inkscape:connector-curvature="0"
             sodipodi:nodetypes="sccs" />
          <path
             sodipodi:nodetypes="sccs"
             inkscape:connector-curvature="0"
             id="path4597"
             d="m 388.00327,137.04419 c 3.76695,0.38076 3.48905,7.76294 3.48905,7.76294 l -8.46101,-0.85524 c 0,0 0.71688,-7.3378 4.97196,-6.9077 z"
             style="opacity:1;fill:#d38d5f;fill-opacity:1;stroke:#000000;stroke-width:0.35868108;stroke-linecap:round;stroke-linejoin:round;stroke-miterlimit:4;stroke-dasharray:none;stroke-opacity:1" />
          <path
             style="opacity:1;fill:#d38d5f;fill-opacity:1;stroke:#000000;stroke-width:0.35868108;stroke-linecap:round;stroke-linejoin:round;stroke-miterlimit:4;stroke-dasharray:none;stroke-opacity:1"
             d="m 389.09633,132.77119 c 3.72493,0.6781 2.86287,8.01503 2.86287,8.01503 l -8.36662,-1.52307 c 0,0 1.29614,-7.25792 5.50375,-6.49196 z"
             id="path4599"
             inkscape:connector-curvature="0"
             sodipodi:nodetypes="sccs" />
          <path
             sodipodi:nodetypes="sccs"
             inkscape:connector-curvature="0"
             id="path4601"
             d="m 390.04071,128.197 c 3.71491,0.73101 2.74858,8.05495 2.74858,8.05495 l -8.34411,-1.64192 c 0,0 1.39924,-7.23876 5.59553,-6.41303 z"
             style="opacity:1;fill:#d38d5f;fill-opacity:1;stroke:#000000;stroke-width:0.35868108;stroke-linecap:round;stroke-linejoin:round;stroke-miterlimit:4;stroke-dasharray:none;stroke-opacity:1" />
          <path
             style="opacity:1;fill:#d38d5f;fill-opacity:1;stroke:#000000;stroke-width:0.35868108;stroke-linecap:round;stroke-linejoin:round;stroke-miterlimit:4;stroke-dasharray:none;stroke-opacity:1"
             d="m 392.00418,124.91894 c 3.53278,1.36178 1.31573,8.40868 1.31573,8.40868 l -7.935,-3.05871 c 0,0 2.62872,-6.88821 6.61927,-5.34997 z"
             id="path4603"
             inkscape:connector-curvature="0"
             sodipodi:nodetypes="sccs" />
          <path
             sodipodi:nodetypes="sccs"
             inkscape:connector-curvature="0"
             id="path4605"
             d="m 395.51046,122.26885 c 3.02386,2.2784 -1.04073,8.44711 -1.04073,8.44711 l -6.79196,-5.11756 c 0,0 4.41698,-5.9032 7.83269,-3.32955 z"
             style="opacity:1;fill:#d38d5f;fill-opacity:1;stroke:#000000;stroke-width:0.35868108;stroke-linecap:round;stroke-linejoin:round;stroke-miterlimit:4;stroke-dasharray:none;stroke-opacity:1" />
          <path
             style="fill:#000000;fill-opacity:0.58381503;fill-rule:evenodd;stroke:none;stroke-width:1px;stroke-linecap:butt;stroke-linejoin:miter;stroke-opacity:1"
             d="m 393.79464,131.42466 c 0,0 -2.31051,-1.49277 -3.49454,-2.19188 -1.08033,-0.63787 -3.29117,-1.82598 -3.29117,-1.82598 l 1.11607,-1.38392 5.80357,4.24107 z"
             id="path4607"
             inkscape:connector-curvature="0"
             sodipodi:nodetypes="cscccc" />
          <path
             style="fill:#000000;fill-opacity:0.58381503;fill-rule:evenodd;stroke:none;stroke-width:1px;stroke-linecap:butt;stroke-linejoin:miter;stroke-opacity:1"
             d="m 385.84822,130.50948 -0.5134,1.33929 c 0,0 2.53432,0.60055 3.73989,0.96459 1.2754,0.38511 3.69315,1.28987 3.69315,1.28987 l 0,-0.98214 z"
             id="path4609"
             inkscape:connector-curvature="0"
             sodipodi:nodetypes="ccsccc" />
          <path
             style="fill:#000000;fill-opacity:0.58381503;fill-rule:evenodd;stroke:none;stroke-width:1px;stroke-linecap:butt;stroke-linejoin:miter;stroke-opacity:1"
             d="m 385.3125,134.83984 c -0.067,0.13393 -0.75893,1.36161 -0.75893,1.36161 0,0 2.49682,0.21689 3.73152,0.42316 1.23148,0.20572 3.65688,0.81058 3.65688,0.81058 l -0.2009,-1.27839 z"
             id="path4611"
             inkscape:connector-curvature="0"
             sodipodi:nodetypes="ccsccc" />
          <path
             inkscape:connector-curvature="0"
             id="path4613"
             d="m 384.55357,139.43805 c -0.067,0.13393 -0.75893,1.36161 -0.75893,1.36161 0,0 2.44492,0.23831 3.6566,0.43434 1.2611,0.20403 3.75412,0.77101 3.75412,0.77101 l -0.22322,-1.25 z"
             style="fill:#000000;fill-opacity:0.58381503;fill-rule:evenodd;stroke:none;stroke-width:1px;stroke-linecap:butt;stroke-linejoin:miter;stroke-opacity:1"
             sodipodi:nodetypes="ccsccc" />
          <path
             style="fill:#000000;fill-opacity:0.58381503;fill-rule:evenodd;stroke:none;stroke-width:1px;stroke-linecap:butt;stroke-linejoin:miter;stroke-opacity:1"
             d="m 383.75,144.05859 c -0.067,0.13393 -0.46876,1.1384 -0.46876,1.1384 0,0 2.5304,0.0198 3.79057,0.12004 1.26505,0.10064 3.77641,0.48263 3.77641,0.48263 l -0.17858,-1.04911 z"
             id="path4615"
             inkscape:connector-curvature="0"
             sodipodi:nodetypes="ccaccc" />
          <path
             sodipodi:nodetypes="ccaccc"
             inkscape:connector-curvature="0"
             id="path4617"
             d="m 383.71843,148.41487 c -0.067,0.13393 -0.46876,1.1384 -0.46876,1.1384 0,0 2.57827,0.36472 3.8766,0.38151 1.23851,0.016 3.70616,-0.26814 3.70616,-0.26814 l -0.19436,-0.55981 z"
             style="fill:#000000;fill-opacity:0.58381503;fill-rule:evenodd;stroke:none;stroke-width:1px;stroke-linecap:butt;stroke-linejoin:miter;stroke-opacity:1" />
        </g>
        <path
           sodipodi:nodetypes="ccccccccccccccccccccccccccccscccccccscscccccccccccccscccccccccccccccccccscc"
           inkscape:connector-curvature="0"
           id="path4619"
           style="fill:#26ff26;fill-opacity:1;fill-rule:evenodd;stroke:#000000;stroke-width:0.35868108;stroke-linecap:round;stroke-linejoin:miter;stroke-opacity:1"
           d="m 383.42578,107.62388 c 0,0 1.81178,1.4835 3.6582,3.22461 l 2.70899,-0.39063 -1.99414,1.07618 c 0.48647,0.47723 0.96423,0.96045 1.39062,1.43164 0.86624,-0.2398 1.74024,-0.48828 1.74024,-0.48828 l -1.39844,0.86328 c 0.30017,0.34757 0.57261,0.68523 0.79492,1 0.88378,1.2513 1.91992,4.17578 1.91992,4.17578 0,0 -5.93495,-4.17847 -9.24804,-3.80664 -0.21646,0.0243 -0.44001,0.0737 -0.66602,0.13086 l 0.38867,1.67773 -1.1582,-1.42969 c -3.91711,1.49467 -8.63867,6.72266 -8.63867,6.72266 0,0 2.68856,-0.73521 5.66015,-1.32422 l 0.85547,-1.56836 0.28321,1.35742 c 1.62735,-0.29024 3.25181,-0.51243 4.49218,-0.50781 0.90097,0.003 2.13572,0.22127 3.29883,0.46289 l 0.89063,-1.12304 0.16211,1.3457 c 1.12429,0.26541 2.13671,0.53711 2.13671,0.53711 0,0 -0.88291,0.0391 -2.05078,0.17383 l 0.004,0.0254 -0.0508,-0.0195 c -1.33876,0.15687 -3.05492,0.44209 -4.45703,0.98437 l 1.47656,1.6875 -2.43359,-1.24023 c -0.29039,0.16463 -0.55664,0.34146 -0.77149,0.54101 -1.73809,1.61434 -2.86002,5.02102 -3.54687,7.96094 l 0.88086,0.25195 -0.9375,0.0195 c -0.60106,2.65263 -0.85352,4.86719 -0.85352,4.86719 0,0 4.11268,-4.22257 7.41211,-7.00195 l -0.9043,-2.95899 1.71485,2.29688 c 0.3131,-0.24957 0.63284,-0.50816 0.91601,-0.71289 2.04814,-1.48077 6.61719,-3.70118 6.61719,-3.70118 0,0 1.28422,4.24315 1.6582,6.42188 0.12111,0.70554 0.2278,1.56542 0.32813,2.4668 l 2.54687,-0.11914 -2.48828,0.63867 c 0.40393,3.86955 0.62305,8.54297 0.62305,8.54297 0,0 4.88675,-7.80705 4.90234,-11.1875 0.002,-0.41737 -0.0502,-0.83627 -0.14062,-1.25 l -1.55078,-0.12891 1.41211,-0.39648 c -0.25979,-0.86957 -0.6147,-1.65952 -1.42354,-2.92395 -0.80883,-1.26443 -1.721,-2.16394 -1.721,-2.16394 0,0 1.07895,0.87511 2.38672,1.91992 l 1.48828,-0.49805 -0.57226,1.22071 c 0.51784,0.40913 0.97643,0.78141 1.50195,1.18554 2.27852,1.75223 7.35547,8.06836 7.35547,8.06836 0,0 -0.59879,-7.45704 -2.33398,-10.19921 -1.2626,0.30814 -2.51368,0.61718 -2.51368,0.61718 l 1.91797,-1.32226 c -2.11919,-2.02301 -6.27343,-3.70899 -6.27343,-3.70899 0,0 0.25737,-0.21036 1.42773,-1.01367 0.0277,-0.019 0.0984,-0.0461 0.13281,-0.0664 l -1.54101,-2.17187 2.77539,1.63085 c 2.01102,-0.75642 4.92318,-1.59167 6.14453,-1.9375 l 0.21289,-0.5039 c -0.83801,-0.24518 -2.52312,-0.71652 -4.69727,-1.07422 l -0.77343,0.93945 -0.10157,-1.05664 c -1.47353,-0.19565 -2.93162,-0.27548 -4.02343,-0.041 -1.7044,0.366 -4.42383,2.78711 -4.42383,2.78711 0,0 -0.10478,-2.52627 -0.69727,-4.75976 l -2.11914,0.29101 c 0,0 0.93558,-0.3364 2.00391,-0.71094 -0.27643,-0.91813 -0.63558,-1.75938 -1.12891,-2.29687 -2.53113,-2.75772 -10.58789,-3.74023 -10.58789,-3.74023 z" />
        <path
           sodipodi:nodetypes="ccccc"
           inkscape:connector-curvature="0"
           id="path4621"
           d="m 388.15743,126.29535 1.20429,0.87283 -1.594,3.745 -1.44547,-0.53792 z"
           style="opacity:1;fill:#ffffff;fill-opacity:0.28323699;stroke:none;stroke-width:0.5;stroke-linecap:round;stroke-linejoin:miter;stroke-miterlimit:4;stroke-dasharray:none;stroke-opacity:1" />
        <path
           inkscape:connector-curvature="0"
           d="m 383.42578,107.62388 c 0,0 1.81178,1.4835 3.6582,3.22461 l 2.70899,-0.39063 -1.99414,1.07618 c 0.48647,0.47723 0.96423,0.96045 1.39062,1.43164 0.86624,-0.2398 1.74024,-0.48828 1.74024,-0.48828 l -1.39844,0.86328 c 0.30017,0.34757 0.57261,0.68523 0.79492,1 0.88378,1.2513 1.91992,4.17578 1.91992,4.17578 0,0 -5.93495,-4.17847 -9.24804,-3.80664 -0.21646,0.0243 -0.44001,0.0737 -0.66602,0.13086 l 0.38867,1.67773 -1.1582,-1.42969 c -3.91711,1.49467 -8.63867,6.72266 -8.63867,6.72266 0,0 2.68856,-0.73521 5.66015,-1.32422 l 0.85547,-1.56836 0.28321,1.35742 c 1.62735,-0.29024 3.25181,-0.51243 4.49218,-0.50781 0.90097,0.003 2.13572,0.22127 3.29883,0.46289 l 0.89063,-1.12304 0.16211,1.3457 c 1.12429,0.26541 2.13671,0.53711 2.13671,0.53711 0,0 -0.88291,0.0391 -2.05078,0.17383 l 0.004,0.0254 -0.0508,-0.0195 c -1.33876,0.15687 -3.05492,0.44209 -4.45703,0.98437 l 1.47656,1.6875 -2.43359,-1.24023 c -0.29039,0.16463 -0.55664,0.34146 -0.77149,0.54101 -1.73809,1.61434 -2.86002,5.02102 -3.54687,7.96094 l 0.88086,0.25195 -0.9375,0.0195 c -0.60106,2.65263 -0.85352,4.86719 -0.85352,4.86719 0,0 4.11268,-4.22257 7.41211,-7.00195 l -0.9043,-2.95899 1.71485,2.29688 c 0.3131,-0.24957 0.63284,-0.50816 0.91601,-0.71289 2.04814,-1.48077 6.61719,-3.70118 6.61719,-3.70118 0,0 1.28422,4.24315 1.6582,6.42188 0.12111,0.70554 0.2278,1.56542 0.32813,2.4668 l 2.54687,-0.11914 -2.48828,0.63867 c 0.40393,3.86955 0.62305,8.54297 0.62305,8.54297 0,0 4.88675,-7.80705 4.90234,-11.1875 0.002,-0.41737 -0.0502,-0.83627 -0.14062,-1.25 l -1.55078,-0.12891 1.41211,-0.39648 c -0.25979,-0.86957 -0.6772,-1.69077 -1.1211,-2.42188 l -0.42383,-0.48437 0.10157,-0.0332 c -0.85151,-1.28018 -1.70118,-2.14844 -1.70118,-2.14844 0,0 1.07895,0.87511 2.38672,1.91992 l 1.48828,-0.49805 -0.57226,1.22071 c 0.51784,0.40913 0.97643,0.78141 1.50195,1.18554 2.27852,1.75223 7.35547,8.06836 7.35547,8.06836 0,0 -0.59879,-7.45704 -2.33398,-10.19921 -1.2626,0.30814 -2.51368,0.61718 -2.51368,0.61718 l 1.91797,-1.32226 c -2.11919,-2.02301 -6.27343,-3.70899 -6.27343,-3.70899 0,0 0.25737,-0.21036 1.42773,-1.01367 0.0277,-0.019 0.0984,-0.0461 0.13281,-0.0664 l -1.54101,-2.17187 2.77539,1.63085 c 2.01102,-0.75642 4.92318,-1.59167 6.14453,-1.9375 l 0.21289,-0.5039 c -0.83801,-0.24518 -2.52312,-0.71652 -4.69727,-1.07422 l -0.77343,0.93945 -0.10157,-1.05664 c -1.47353,-0.19565 -2.93162,-0.27548 -4.02343,-0.041 -1.7044,0.366 -4.42383,2.78711 -4.42383,2.78711 0,0 -0.10478,-2.52627 -0.69727,-4.75976 l -2.11914,0.29101 c 0,0 0.93558,-0.3364 2.00391,-0.71094 -0.27643,-0.91813 -0.63558,-1.75938 -1.12891,-2.29687 -2.53113,-2.75772 -10.58789,-3.74023 -10.58789,-3.74023 z"
           style="fill:#26ff26;fill-opacity:1;fill-rule:evenodd;stroke:#000000;stroke-width:0.35868108;stroke-linecap:round;stroke-linejoin:miter;stroke-opacity:1"
           id="path4623" />
        <path
           inkscape:connector-curvature="0"
           id="path4625"
           d="m 395.25781,114.08091 c -0.70247,0.0964 -1.40495,0.19271 -2.10742,0.28906 0.90652,2.24445 1.23317,4.67262 1.4671,7.06625 0.0234,0.45109 0.33264,-0.56622 0.47105,-0.72118 0.25533,-0.67248 0.78214,-1.29067 0.80287,-2.0246 -0.036,-1.55311 -0.2486,-3.10442 -0.6336,-4.60953 z m -11.61914,-6.3164 c 1.93678,0.78573 3.83015,1.68962 5.6211,2.76953 0.12298,0.002 0.70713,-0.14866 0.40298,-0.006 -0.55041,0.20874 0.54925,0.47116 0.69416,0.72175 1.15688,0.79501 2.29486,1.76272 2.79348,3.11791 0.66315,-0.23823 1.32727,-0.47378 1.99219,-0.70703 -0.34228,-1.18462 -0.90392,-2.43043 -2.05179,-3.02905 -2.52916,-1.48929 -5.42483,-2.2064 -8.29341,-2.70251 -0.38512,-0.0623 -0.77118,-0.11994 -1.15871,-0.1649 z"
           style="fill:#0fc50f;fill-opacity:1;fill-rule:evenodd;stroke:none;stroke-width:0.5;stroke-linecap:round;stroke-linejoin:miter;stroke-opacity:1" />
        <path
           inkscape:connector-curvature="0"
           id="path4627"
           d="m 383.625,114.83286 c -0.49056,0.0428 -1.54297,-0.0825 -1.14324,0.65413 0.0797,0.3438 0.15929,0.68761 0.23894,1.03141 -0.34961,-0.43164 -0.69921,-0.86328 -1.04882,-1.29492 -2.54465,1.01787 -4.67361,2.81963 -6.69116,4.63161 -0.65089,0.60073 -1.28797,1.21695 -1.89869,1.85862 2.61901,-1.75602 5.36579,-3.40949 8.38587,-4.37366 1.33697,-0.44531 2.79172,-0.50652 4.14799,-0.10607 3.05578,0.84638 5.83571,2.44853 8.5025,4.12621 0.29696,0.1874 0.8075,0.59171 0.32528,0.0431 -0.78643,-1.0193 -1.50944,-2.10596 -2.40947,-3.02649 -0.95539,-0.56224 -1.96165,-1.04582 -2.91587,-1.61685 -1.69908,-0.93019 -3.50877,-1.89651 -5.49333,-1.92714 z"
           style="fill:#00a600;fill-opacity:1;fill-rule:evenodd;stroke:none;stroke-width:0.5;stroke-linecap:round;stroke-linejoin:miter;stroke-opacity:1" />
        <g
           id="g4629">
          <path
             inkscape:connector-curvature="0"
             id="path4631"
             d="m 409.53125,117.50669 c -2.44261,0.0278 -4.90821,0.064 -7.31127,0.54852 -0.22598,0.0829 -0.94683,0.1711 -0.87875,0.33528 0.7541,0.44303 1.50819,0.88606 2.26229,1.32909 2.01336,-0.81409 4.09626,-1.4425 6.1914,-2.00781 0.1938,-0.2964 -0.0303,-0.18395 -0.26367,-0.20508 z"
             style="fill:#007c00;fill-opacity:1;fill-rule:evenodd;stroke:none;stroke-width:0.5;stroke-linecap:round;stroke-linejoin:miter;stroke-opacity:1" />
          <path
             inkscape:connector-curvature="0"
             id="path4633"
             d="m 401.0625,118.40708 c -2.23348,0.85177 -4.31678,2.0473 -6.36523,3.26758 2.0526,0.0332 4.13736,-0.12673 6.19519,-0.29695 0.49386,-0.37315 0.95029,-0.80386 1.49023,-1.10939 -0.43999,-0.62034 -0.88054,-1.24125 -1.32019,-1.86124 z"
             style="fill:#007c00;fill-opacity:1;fill-rule:evenodd;stroke:none;stroke-width:0.5;stroke-linecap:round;stroke-linejoin:miter;stroke-opacity:1" />
        </g>
        <path
           inkscape:connector-curvature="0"
           id="path4635"
           d="m 400.83398,121.37779 c -2.01038,0.0989 -4.02056,0.20236 -6.03125,0.29492 2.93664,0.96979 5.87547,2.0526 8.51022,3.69679 1.93546,1.171 3.09826,3.19444 4.17172,5.11389 0.95617,1.77271 1.79439,3.60809 2.54072,5.47838 -0.29646,-2.86879 -0.67879,-5.76443 -1.63888,-8.4971 -0.21978,-0.58189 -0.47409,-1.1578 -0.83573,-1.66696 -0.79117,0.19337 -1.58217,0.38746 -2.37305,0.58203 0.58919,-0.40625 1.17839,-0.8125 1.76758,-1.21875 -1.31405,-1.16702 -2.708,-2.27297 -4.32436,-2.99316 -0.58813,-0.27657 -1.17003,-0.58437 -1.78697,-0.79004 z"
           style="fill:#00a600;fill-opacity:1;fill-rule:evenodd;stroke:none;stroke-width:0.5;stroke-linecap:round;stroke-linejoin:miter;stroke-opacity:1" />
        <path
           inkscape:connector-curvature="0"
           id="path4637"
           d="m 394.82422,121.70982 c 1.35081,2.43507 2.65657,4.93731 3.40125,7.63391 0.54341,2.12595 0.13145,4.33948 -0.22983,6.45973 -0.40611,2.11355 -0.94379,4.20101 -1.57572,6.25792 1.61938,-2.81991 3.15734,-5.71468 4.21022,-8.79984 0.37095,-1.15258 0.69532,-2.40649 0.30931,-3.60055 -0.44726,-0.0371 -0.89453,-0.0742 -1.34179,-0.11133 0.41146,-0.11523 0.82291,-0.23047 1.23437,-0.3457 -0.28945,-1.04352 -0.6535,-2.12406 -1.36719,-2.95703 -0.11772,-0.51367 -0.74891,-1.1599 -1.13587,-1.66378 -0.8025,-0.88131 -1.82839,-1.5264 -2.74222,-2.28568 -0.25371,-0.19648 -0.50778,-0.39256 -0.76253,-0.58765 z"
           style="fill:#00d500;fill-opacity:1;fill-rule:evenodd;stroke:none;stroke-width:0.5;stroke-linecap:round;stroke-linejoin:miter;stroke-opacity:1" />
        <path
           inkscape:connector-curvature="0"
           id="path4639"
           d="m 390.19141,120.79576 c -0.43073,0.0611 1.06748,0.22829 0.17076,0.21475 -0.78819,0.0461 -1.52827,0.1349 -2.27501,0.22534 -1.33643,0.18401 -2.67404,0.43796 -3.93865,0.91928 0.49219,0.5625 0.98437,1.125 1.47656,1.6875 -0.79427,-0.40495 -1.58854,-0.80989 -2.38281,-1.21484 -1.84501,1.08251 -2.6918,3.1606 -3.39435,5.07383 -0.39102,1.11401 -0.70572,2.25358 -0.97481,3.40274 0.29362,0.084 0.58724,0.16797 0.88086,0.25195 -0.3125,0.006 -0.625,0.013 -0.9375,0.0195 -0.35615,1.58511 -0.6435,3.18642 -0.84375,4.79883 1.42037,-3.1773 2.98548,-6.33499 5.13904,-9.08719 0.94108,-1.24553 2.22578,-2.18349 3.64424,-2.81729 2.49903,-1.16 5.15893,-1.93382 7.83195,-2.57599 -1.46324,-0.30647 -2.9201,-0.66471 -4.39653,-0.89841 z"
           style="fill:#00d500;fill-opacity:1;fill-rule:evenodd;stroke:none;stroke-width:0.5;stroke-linecap:round;stroke-linejoin:miter;stroke-opacity:1" />
        <path
           sodipodi:nodetypes="csccccsccccccccccccscccccsccccccccccccccccccccccccccccccccccccc"
           inkscape:connector-curvature="0"
           id="path4641"
           transform="translate(0,28.362161)"
           d="m 394.58398,93.283203 c 0,0 -0.43634,-6.114417 -2.1582,-8.460937 -0.64706,-0.881806 -1.78591,-1.741838 -3.11524,-2.580078 -2.67165,-1.648904 -5.60546,-2.820313 -5.60546,-2.820313 m 10.77544,13.892578 c 0.003,-7.22e-4 0.037,-0.0093 0.0391,-0.0098 -0.19033,-0.127618 -6.96138,-4.65204 -10.86914,-4.632813 -0.8457,0.0042 -1.83594,0.243922 -2.85942,0.60158 -3.50924,1.226314 -7.42973,3.916032 -7.42973,3.916032 -0.0457,-0.03801 -0.0602,-0.05018 -0.10547,-0.08789 m 21.26367,0.203126 c 0.001,8.73e-4 0.0306,0.01908 0.0312,0.01953 l 0.0469,-0.03906 c 0,0 -0.0741,0.01857 -0.0781,0.01953 z m 0.0312,0.01953 -0.008,0.0098 0.041,0.01172 c 0,0 -0.0325,-0.021 -0.0332,-0.02148 z m -0.008,0.0098 -0.0625,-0.01953 c -0.344,0.08265 -7.00939,1.702311 -9.6543,3.865235 -3.09283,2.529228 -6.3582,9.404617 -6.8125,10.343747 -0.005,0.0376 -0.0274,0.19073 -0.0293,0.20703 m 31.90234,-18.597653 c -0.66898,-0.0019 -6.24925,-0.14104 -8.84464,0.612267 -2.34685,0.681166 -4.38194,2.024172 -6.3298,3.527133 0.003,0.001 0.0698,0.06212 0.0748,0.06372 m 14.85546,13.521493 c 0,0 -2.43702,-6.57028 -5.22461,-9.011724 -2.41786,-2.117609 -9.20801,-4.37062 -9.63086,-4.509765 l 4e-5,-2e-6 -0.0684,0.01758 m 0,0 -0.0176,-0.01563 -0.002,0.002 c 7.9e-4,0.0014 0.009,0.01599 0.01,0.01758 z m 1.8435,19.753901 c 0,0 2.27843,-7.21193 1.85156,-10.88086 -0.35782,-3.075466 -3.50882,-8.531566 -3.70508,-8.869143 l 2e-5,2e-6 -0.0547,0.01367 m 0,0 0,-0.0039 -0.0117,0.0078 z m 0,-0.0039 c 5.5e-4,-3.62e-4 0.0423,-0.02566 0.0449,-0.02734 -3.8e-4,-6.55e-4 -0.006,-0.0072 -0.006,-0.0078 l -0.0469,-0.04297 z m 0.0391,-0.03516 0.008,0.0059 0.0332,-0.02148 c -0.004,-0.0012 -0.0593,-0.01913 -0.0605,-0.01953 9e-4,0.0015 0.0181,0.03266 0.0195,0.03516 z m -0.0195,-0.03516 c -10e-4,-0.0025 -0.0312,-0.05664 -0.0312,-0.05664 l 0.004,0.04687 c 8e-5,2.4e-5 0.0268,0.0096 0.0274,0.0098 z"
           style="fill:none;fill-rule:evenodd;stroke:#70ff4c;stroke-width:0.17934054;stroke-linecap:round;stroke-linejoin:miter;stroke-opacity:1" />
        <path
           inkscape:connector-curvature="0"
           id="path4643"
           style="fill:none;fill-opacity:1;fill-rule:evenodd;stroke:#000000;stroke-width:0.35868108;stroke-linecap:round;stroke-linejoin:miter;stroke-opacity:1"
           d="m 383.42578,107.62388 c 0,0 1.81178,1.4835 3.6582,3.22461 l 2.70899,-0.39063 -1.99414,1.07618 c 0.48647,0.47723 0.96423,0.96045 1.39062,1.43164 0.86624,-0.2398 1.74024,-0.48828 1.74024,-0.48828 l -1.39844,0.86328 c 0.30017,0.34757 0.57261,0.68523 0.79492,1 0.88378,1.2513 1.91992,4.17578 1.91992,4.17578 0,0 -5.93495,-4.17847 -9.24804,-3.80664 -0.21646,0.0243 -0.44001,0.0737 -0.66602,0.13086 l 0.38867,1.67773 -1.1582,-1.42969 c -3.91711,1.49467 -8.63867,6.72266 -8.63867,6.72266 0,0 2.68856,-0.73521 5.66015,-1.32422 l 0.85547,-1.56836 0.28321,1.35742 c 1.62735,-0.29024 3.25181,-0.51243 4.49218,-0.50781 0.90097,0.003 2.13572,0.22127 3.29883,0.46289 l 0.89063,-1.12304 0.16211,1.3457 c 1.12429,0.26541 2.13671,0.53711 2.13671,0.53711 0,0 -0.88291,0.0391 -2.05078,0.17383 l 0.004,0.0254 -0.0508,-0.0195 c -1.33876,0.15687 -3.05492,0.44209 -4.45703,0.98437 l 1.47656,1.6875 -2.43359,-1.24023 c -0.29039,0.16463 -0.55664,0.34146 -0.77149,0.54101 -1.73809,1.61434 -2.86002,5.02102 -3.54687,7.96094 l 0.88086,0.25195 -0.9375,0.0195 c -0.60106,2.65263 -0.85352,4.86719 -0.85352,4.86719 0,0 4.11268,-4.22257 7.41211,-7.00195 l -0.9043,-2.95899 1.71485,2.29688 c 0.3131,-0.24957 0.63284,-0.50816 0.91601,-0.71289 2.04814,-1.48077 6.61719,-3.70118 6.61719,-3.70118 0,0 1.28422,4.24315 1.6582,6.42188 0.12111,0.70554 0.2278,1.56542 0.32813,2.4668 l 2.54687,-0.11914 -2.48828,0.63867 c 0.40393,3.86955 0.62305,8.54297 0.62305,8.54297 0,0 4.88675,-7.80705 4.90234,-11.1875 0.002,-0.41737 -0.0502,-0.83627 -0.14062,-1.25 l -1.55078,-0.12891 1.41211,-0.39648 c -0.25979,-0.86957 -0.6772,-1.69077 -1.1211,-2.42188 l -0.42383,-0.48437 0.10157,-0.0332 c -0.85151,-1.28018 -1.70118,-2.14844 -1.70118,-2.14844 0,0 1.07895,0.87511 2.38672,1.91992 l 1.48828,-0.49805 -0.57226,1.22071 c 0.51784,0.40913 0.97643,0.78141 1.50195,1.18554 2.27852,1.75223 7.35547,8.06836 7.35547,8.06836 0,0 -0.59879,-7.45704 -2.33398,-10.19921 -1.2626,0.30814 -2.51368,0.61718 -2.51368,0.61718 l 1.91797,-1.32226 c -2.11919,-2.02301 -6.27343,-3.70899 -6.27343,-3.70899 0,0 0.25737,-0.21036 1.42773,-1.01367 0.0277,-0.019 0.0984,-0.0461 0.13281,-0.0664 l -1.54101,-2.17187 2.77539,1.63085 c 2.01102,-0.75642 4.92318,-1.59167 6.14453,-1.9375 l 0.21289,-0.5039 c -0.83801,-0.24518 -2.52312,-0.71652 -4.69727,-1.07422 l -0.77343,0.93945 -0.10157,-1.05664 c -1.47353,-0.19565 -2.93162,-0.27548 -4.02343,-0.041 -1.7044,0.366 -4.42383,2.78711 -4.42383,2.78711 0,0 -0.10478,-2.52627 -0.69727,-4.75976 l -2.11914,0.29101 c 0,0 0.93558,-0.3364 2.00391,-0.71094 -0.27643,-0.91813 -0.63558,-1.75938 -1.12891,-2.29687 -2.53113,-2.75772 -10.58789,-3.74023 -10.58789,-3.74023 z" />
        <path
           style="opacity:1;fill:#ffffff;fill-opacity:0.28323699;stroke:none;stroke-width:0.5;stroke-linecap:round;stroke-linejoin:miter;stroke-miterlimit:4;stroke-dasharray:none;stroke-opacity:1"
           d="m 386.3709,130.91665 1.27326,0.47965 -0.73822,3.43911 -1.48967,-0.29485 z"
           id="path4645"
           inkscape:connector-curvature="0"
           sodipodi:nodetypes="ccccc" />
        <path
           sodipodi:nodetypes="ccccc"
           inkscape:connector-curvature="0"
           id="path4647"
           d="m 385.79768,135.12181 1.33955,0.24763 -1.22436,4.09097 -1.39024,-0.27275 z"
           style="opacity:1;fill:#ffffff;fill-opacity:0.28323699;stroke:none;stroke-width:0.5;stroke-linecap:round;stroke-linejoin:miter;stroke-miterlimit:4;stroke-dasharray:none;stroke-opacity:1" />
        <path
           style="opacity:1;fill:#ffffff;fill-opacity:0.28323699;stroke:none;stroke-width:0.5;stroke-linecap:round;stroke-linejoin:miter;stroke-miterlimit:4;stroke-dasharray:none;stroke-opacity:1"
           d="m 384.98009,139.7622 1.33955,0.24763 -1.01444,3.90314 -1.50072,-0.14016 z"
           id="path4649"
           inkscape:connector-curvature="0"
           sodipodi:nodetypes="ccccc" />
        <path
           sodipodi:nodetypes="ccccc"
           inkscape:connector-curvature="0"
           id="path4651"
           d="m 384.40197,144.35595 1.29267,0.11482 -0.53788,3.89533 -1.41478,-0.0542 z"
           style="opacity:1;fill:#ffffff;fill-opacity:0.28323699;stroke:none;stroke-width:0.5;stroke-linecap:round;stroke-linejoin:miter;stroke-miterlimit:4;stroke-dasharray:none;stroke-opacity:1" />
      </g>
    </g>
    <path
       style="fill:#e7b33a;fill-opacity:1;fill-rule:evenodd;stroke:none;stroke-width:1px;stroke-linecap:butt;stroke-linejoin:miter;stroke-opacity:1"
       d="m 142.30242,436.4518 c -0.67978,-1.6656 -0.61119,-3.5079 -0.76247,-5.26826 0.0476,-1.3732 1.67119,-2.00564 2.86451,-2.1103 7.40569,-1.42669 14.79748,-2.92417 22.19659,-4.38427 0.91799,0.38206 1.78406,1.38223 2.49528,2.24632 1.13828,1.38297 2.62379,3.22936 2.76023,4.6104 -0.44323,0.79192 1.96252,2.09827 1.92114,2.83772 -8.72429,1.77569 -21.42315,2.92798 -30.15137,4.70991 -0.3459,-0.64506 -1.14195,-1.9198 -1.32391,-2.64152 z"
       id="path4768"
       inkscape:connector-curvature="0"
       sodipodi:nodetypes="ccccacccc" />
    <g
       id="g4755"
       style="stroke:#000000;stroke-width:0.5;stroke-opacity:1"
       transform="translate(-255.27475,257.75981)">
      <path
         sodipodi:nodetypes="ccccc"
         inkscape:connector-curvature="0"
         id="path4747"
         d="m 399.51533,173.66778 11.04855,14.51579 33.10273,-9.13757 -21.87741,-9.90939 z"
         style="fill:#bc6126;fill-opacity:1;fill-rule:evenodd;stroke:#000000;stroke-width:0.5;stroke-linecap:round;stroke-linejoin:round;stroke-opacity:1" />
      <path
         sodipodi:nodetypes="ccccccc"
         inkscape:connector-curvature="0"
         id="path4749"
         d="m 399.51533,173.75318 0.37088,2.3739 0.38043,1.76496 0.62703,1.54128 9.31666,14.05926 0.26517,-5.39169 z"
         style="fill:#bc6126;fill-opacity:1;fill-rule:evenodd;stroke:#000000;stroke-width:0.5;stroke-linecap:butt;stroke-linejoin:round;stroke-opacity:1" />
      <path
         sodipodi:nodetypes="ccccc"
         inkscape:connector-curvature="0"
         id="path4751"
         d="m 410.3871,188.12256 33.4108,-8.92592 -0.0732,5.34619 -33.42596,9.01562 z"
         style="fill:#bc6126;fill-opacity:1;fill-rule:evenodd;stroke:#000000;stroke-width:0.5;stroke-linecap:butt;stroke-linejoin:round;stroke-opacity:1" />
    </g>
    <ellipse
       style="opacity:1;fill:#93eeff;fill-opacity:1;stroke:none;stroke-width:0.5;stroke-linecap:round;stroke-linejoin:round;stroke-miterlimit:4;stroke-dasharray:none;stroke-opacity:1"
       id="path4818"
       cx="156.30563"
       cy="457.13022"
       rx="5.5242715"
       ry="2.8833599" />
    <g
       id="g4774"
       transform="translate(-255.27475,257.75981)">
      <path
         id="path4753"
         transform="translate(0,28.362161)"
         d="m 407.38281,148.7793 1.125,21.91992 0.0137,0 a 3.1594977,1.524807 0 0 0 -0.0137,0.125 3.1594977,1.524807 0 0 0 3.16016,1.52539 3.1594977,1.524807 0 0 0 3.16015,-1.52539 3.1594977,1.524807 0 0 0 -0.0117,-0.125 l 0.0137,0 1.125,-21.56641 -8.57227,-0.35351 z"
         style="opacity:1;fill:#bc6126;fill-opacity:1;stroke:#000000;stroke-width:0.5;stroke-linecap:round;stroke-linejoin:round;stroke-miterlimit:4;stroke-dasharray:none;stroke-opacity:1"
         inkscape:connector-curvature="0" />
      <ellipse
         ry="2.125"
         rx="4.3125"
         cy="176.98642"
         cx="411.67401"
         id="ellipse4764"
         style="opacity:1;fill:#bc6126;fill-opacity:1;stroke:#000000;stroke-width:0.5;stroke-linecap:round;stroke-linejoin:round;stroke-miterlimit:4;stroke-dasharray:none;stroke-opacity:1" />
    </g>
    <g
       id="g4798" />
    <ellipse
       ry="2.7065833"
       rx="4.5592151"
       cy="447.14233"
       cx="186.18088"
       id="ellipse4820"
       style="opacity:1;fill:#93eeff;fill-opacity:1;stroke:none;stroke-width:0.5;stroke-linecap:round;stroke-linejoin:round;stroke-miterlimit:4;stroke-dasharray:none;stroke-opacity:1" />
    <g
       id="g4808"
       transform="translate(-257.14975,257.63481)">
      <path
         style="fill:#bc6126;fill-opacity:1;fill-rule:evenodd;stroke:#000000;stroke-width:0.5;stroke-linecap:butt;stroke-linejoin:miter;stroke-opacity:1"
         d="m 441.16908,167.68411 -0.48014,21.06486 c 0.0586,1.68036 1.56384,1.80289 2.64171,1.8786 1.04634,0.0735 2.70467,-0.42368 2.79418,-1.44726 0.002,-0.0255 2.71121,-20.69402 2.71121,-20.69402 z"
         id="path4787"
         inkscape:connector-curvature="0"
         sodipodi:nodetypes="ccascc" />
      <path
         transform="matrix(0.99883381,-0.04828058,0.65048157,0.75952204,0,0)"
         style="opacity:1;fill:#bc6126;fill-opacity:1;stroke:#000000;stroke-width:0.56252903;stroke-linecap:round;stroke-linejoin:round;stroke-miterlimit:4;stroke-dasharray:none;stroke-opacity:1"
         d="m 293.16357,239.49516 a 3.6080613,1.8138413 0 0 1 -3.60806,1.81384 3.6080613,1.8138413 0 0 1 -3.60806,-1.81384 3.6080613,1.8138413 0 0 1 3.60806,-1.81384 3.6080613,1.8138413 0 0 1 3.60806,1.81384 z"
         id="path4785"
         inkscape:connector-curvature="0" />
    </g>
    <path
       style="fill:#874a20;fill-opacity:1;fill-rule:evenodd;stroke:none;stroke-width:1px;stroke-linecap:butt;stroke-linejoin:miter;stroke-opacity:1"
       d="m 145.83463,437.09072 -0.59444,-1.4998 -0.37431,-1.73458 -0.22656,-1.39843 1.35937,1.76563 0.53906,2.52343 0.9375,2.78125 z"
       id="path4801"
       inkscape:connector-curvature="0"
       sodipodi:nodetypes="cccccccc" />
    <path
       style="fill:none;fill-rule:evenodd;stroke:none;stroke-width:1px;stroke-linecap:butt;stroke-linejoin:miter;stroke-opacity:1"
       d="m 144.70963,431.60634 21.73437,-4.45312 2.03125,0.9375 -22.875,4.6875 z"
       id="path4803"
       inkscape:connector-curvature="0" />
    <path
       style="fill:#874a20;fill-opacity:1;fill-rule:evenodd;stroke:none;stroke-width:1px;stroke-linecap:butt;stroke-linejoin:miter;stroke-opacity:1"
       d="m 144.66043,431.57494 21.8656,-4.42563 1.82376,0.83046 -22.50615,5.12108 z"
       id="path4805"
       inkscape:connector-curvature="0"
       sodipodi:nodetypes="ccccc" />
    <g
       id="g4267"
       transform="translate(-511.27475,257.75981)">
      <rect
         ry="42.307446"
         rx="39.605713"
         transform="scale(-1,-1)"
         y="-275.86212"
         x="-1015.512"
         height="238.99994"
         width="239.02396"
         id="rect4827"
         style="opacity:1;fill:url(#linearGradient4835);fill-opacity:1;stroke:#000000;stroke-width:0.99999994;stroke-linecap:round;stroke-linejoin:round;stroke-miterlimit:4;stroke-dasharray:none;stroke-opacity:1" />
      <path
         inkscape:connector-curvature="0"
         id="rect4862"
         d="m 816.09363,36.861237 c -21.94157,0 -39.60532,22.357155 -39.60532,50.12575 l 0,54.182053 a 151.82191,82.22065 0 0 0 119.51072,31.55419 151.82191,82.22065 0 0 0 119.51267,-31.66834 l 0,-54.067903 c 0,-27.768595 -17.66378,-50.12575 -39.60534,-50.12575 l -159.81273,0 z"
         style="opacity:1;fill:#ffffff;fill-opacity:0.240625;stroke:none;stroke-width:10;stroke-linecap:round;stroke-linejoin:round;stroke-miterlimit:4;stroke-dasharray:none;stroke-opacity:1" />
      <rect
         style="opacity:1;fill:none;fill-opacity:1;stroke:#000000;stroke-width:4;stroke-linecap:round;stroke-linejoin:round;stroke-miterlimit:4;stroke-dasharray:none;stroke-opacity:1"
         id="rect4854"
         width="239.02396"
         height="238.99994"
         x="-1015.512"
         y="-275.86212"
         transform="scale(-1,-1)"
         rx="39.605713"
         ry="42.307446" />
    </g>
    <g
       id="g4314"
       transform="translate(256.85178,-255.00805)">
      <path
         sodipodi:nodetypes="csscassc"
         inkscape:connector-curvature="0"
         id="path4875"
         d="m 38.548317,390.08095 c 0,0 52.357828,-33.902 80.745933,-29.39058 17.37907,2.76189 39.3218,13.05088 56.85646,18.47553 21.81721,6.74953 36.27832,4.83043 36.27832,4.83043 0,0 -32.86327,10.56989 -49.72705,14.11369 -15.67728,3.29447 -34.55196,5.16557 -47.60749,6.59823 -16.73919,1.8369 -34.176071,-9.91096 -50.556949,-12.0188 -17.810584,-2.29182 -25.989224,-2.6085 -25.989224,-2.6085 z"
         style="fill:none;fill-rule:evenodd;stroke:#000000;stroke-width:8;stroke-linecap:butt;stroke-linejoin:bevel;stroke-miterlimit:4;stroke-dasharray:none;stroke-opacity:1" />
      <path
         sodipodi:nodetypes="csssc"
         inkscape:connector-curvature="0"
         id="path4877"
         d="m 35.657564,366.78293 c 0,0 12.46463,-0.76401 25.690766,-5.83676 14.010141,-5.37344 32.042015,-16.25063 55.65709,-17.36439 17.4387,-0.82246 55.4397,13.56535 70.45877,18.09264 18.96259,5.716 32.88076,9.57845 32.88076,9.57845"
         style="fill:none;fill-rule:evenodd;stroke:#000000;stroke-width:8;stroke-linecap:butt;stroke-linejoin:miter;stroke-miterlimit:4;stroke-dasharray:none;stroke-opacity:1" />
      <ellipse
         ry="12.13271"
         rx="12.170152"
         cy="373.68243"
         cx="112.49761"
         id="path4879"
         style="opacity:1;fill:#000000;fill-opacity:1;stroke:#000000;stroke-width:8;stroke-linecap:round;stroke-linejoin:round;stroke-miterlimit:4;stroke-dasharray:none;stroke-opacity:1" />
      <path
         sodipodi:nodetypes="ccccazc"
         inkscape:connector-curvature="0"
         id="path4881"
         d="m 49.981322,459.55617 c 6.436826,10.34528 19.06171,-5.29016 10.12562,-11.87948 -7.656879,-7.85147 -21.840765,-1.43573 -22.853242,8.95399 -2.810636,13.02189 10.526708,24.2098 22.989333,22.3586 8.797819,0.10008 27.917437,-4.1106 40.342307,-10.27743 15.9728,-7.92777 31.2005,-21.83613 41.83423,-33.29205 10.63374,-11.45592 19.02317,-27.14616 23.19056,-35.83557"
         style="fill:none;fill-rule:evenodd;stroke:#000000;stroke-width:8;stroke-linecap:round;stroke-linejoin:round;stroke-miterlimit:4;stroke-dasharray:none;stroke-opacity:1" />
      <path
         sodipodi:nodetypes="ccccccc"
         inkscape:connector-curvature="0"
         id="path4885"
         d="m 188.61785,392.90857 -3.84806,37.11316 -2.49291,51.08622 3.72312,-37.99579 7.5,-18 -7.25,-8.5 z"
         style="fill:#000000;fill-rule:evenodd;stroke:#000000;stroke-width:8;stroke-linecap:butt;stroke-linejoin:miter;stroke-miterlimit:4;stroke-dasharray:none;stroke-opacity:1" />
    </g>
    <rect
       y="214.10094"
       x="-371.43817"
       height="255"
       width="255"
       id="rect4272"
       style="display:inline;opacity:1;fill:none;fill-opacity:1;stroke:#000000;stroke-width:1;stroke-linecap:round;stroke-linejoin:miter;stroke-miterlimit:4;stroke-dasharray:none;stroke-opacity:1"
       transform="translate(0,28.362161)" />
    <path
       sodipodi:nodetypes="ccsssscsssssccsssssccsssccsssccssscc"
       inkscape:connector-curvature="0"
       id="path4321"
       d="m 316.17029,399.22144 50.415,0.29757 c 0,0 2.16046,-1.57046 2.04077,-2.69216 -0.35367,-3.31434 -4.35733,-5.6647 -7.57115,-6.48872 -5.96711,-1.52986 -9.40724,3.27991 -15.54301,3.80744 -4.89928,0.42123 -10.59437,2.1229 -14.74207,-0.53135 -2.60585,-1.66759 -4.21903,-8.29321 -4.21903,-8.29321 0,0 7.76609,0.86677 11.06665,0.53334 6.92085,-0.69921 10.2587,-5.89999 17.12473,-7.01897 6.09204,-0.9929 12.05112,-0.12946 17.29758,1.23846 14.28091,3.72384 22.41168,18.29345 35.98176,21.70981 0.48596,0.12211 0.98334,0.23765 1.49138,0.34659 23.03626,4.93214 65.61602,-3.82895 65.61602,-3.82895 l 0.44455,45.58411 -66.52775,-4.13287 c -2.52843,-0.15698 -5.1654,8.74363 -18.27203,9.80472 -11.64035,0.94243 -47.09141,-0.80993 -47.09141,-0.80993 -5.29122,-0.0302 -8.47482,-0.60343 -8.47482,-6.04298 0,-3.62056 0.4374,-6.39002 8.52403,-5.33103 l 5.91998,0.77528 0.082,-1.21834 -4.72526,-0.0323 c -3.03386,-0.0204 -15.25605,0.40802 -15.25605,-5.40281 0,-5.06681 2.31726,-5.85982 9.73188,-6.15613 l 10.12684,-0.40466 0.0404,-1.21997 -10.19462,-0.16941 c -11.73502,-0.19511 -13.02832,-2.90545 -13.09032,-5.35783 -0.0687,-2.71741 1.37232,-6.45603 13.83085,-6.76932 l 9.0458,-0.22745 0,-0.84043 -33.07288,-0.0278 c -10.26704,-0.008 -22.29308,1.22864 -22.29308,-4.49574 0,-5.4028 2.67307,-6.60553 22.29318,-6.60553 1.4e-4,0 0,3.7e-4 0,3.7e-4 z"
       style="opacity:1;fill:#dd712a;fill-opacity:1;stroke:#000000;stroke-width:1.99999988;stroke-linecap:round;stroke-linejoin:round;stroke-miterlimit:4;stroke-dasharray:none;stroke-opacity:1" />
    <g
       id="g4333"
       transform="translate(-256.00005,8.9003906e-6)">
      <rect
         style="opacity:1;fill:url(#linearGradient4341);fill-opacity:1;stroke:#000000;stroke-width:0.99999994;stroke-linecap:round;stroke-linejoin:round;stroke-miterlimit:4;stroke-dasharray:none;stroke-opacity:1"
         id="rect4335"
         width="239.02396"
         height="238.99994"
         x="-1015.512"
         y="-275.86212"
         transform="scale(-1,-1)"
         rx="39.605713"
         ry="42.307446" />
      <path
         style="opacity:1;fill:#ffffff;fill-opacity:0.240625;stroke:none;stroke-width:10;stroke-linecap:round;stroke-linejoin:round;stroke-miterlimit:4;stroke-dasharray:none;stroke-opacity:1"
         d="m 816.09363,36.861237 c -21.94157,0 -39.60532,22.357155 -39.60532,50.12575 l 0,54.182053 a 151.82191,82.22065 0 0 0 119.51072,31.55419 151.82191,82.22065 0 0 0 119.51267,-31.66834 l 0,-54.067903 c 0,-27.768595 -17.66378,-50.12575 -39.60534,-50.12575 l -159.81273,0 z"
         id="path4337"
         inkscape:connector-curvature="0" />
      <rect
         ry="42.307446"
         rx="39.605713"
         transform="scale(-1,-1)"
         y="-275.86212"
         x="-1015.512"
         height="238.99994"
         width="239.02396"
         id="rect4339"
         style="opacity:1;fill:none;fill-opacity:1;stroke:#000000;stroke-width:4;stroke-linecap:round;stroke-linejoin:round;stroke-miterlimit:4;stroke-dasharray:none;stroke-opacity:1" />
    </g>
    <path
       style="opacity:1;fill:none;fill-opacity:1;stroke:#000000;stroke-width:8;stroke-linecap:butt;stroke-linejoin:miter;stroke-miterlimit:4;stroke-dasharray:none;stroke-opacity:1"
       d="m 639.89671,62.670506 90.15612,36.062446 -180.31223,0 z"
       id="rect4361"
       inkscape:connector-curvature="0"
       sodipodi:nodetypes="cccc" />
    <rect
       style="opacity:1;fill:none;fill-opacity:1;stroke:#000000;stroke-width:8;stroke-linecap:butt;stroke-linejoin:miter;stroke-miterlimit:4;stroke-dasharray:none;stroke-opacity:1"
       id="rect4364"
       width="13.434011"
       height="115.23045"
       x="604.40295"
       y="98.746933" />
    <rect
       style="opacity:1;fill:none;fill-opacity:1;stroke:#000000;stroke-width:8;stroke-linecap:butt;stroke-linejoin:miter;stroke-miterlimit:4;stroke-dasharray:none;stroke-opacity:1"
       id="rect4374"
       width="178.2914"
       height="12.448812"
       x="550.85431"
       y="214.21977" />
    <rect
       y="98.746933"
       x="565.90295"
       height="115.23045"
       width="13.434011"
       id="rect4378"
       style="opacity:1;fill:none;fill-opacity:1;stroke:#000000;stroke-width:8;stroke-linecap:butt;stroke-linejoin:miter;stroke-miterlimit:4;stroke-dasharray:none;stroke-opacity:1" />
    <rect
       y="98.746933"
       x="701.40295"
       height="115.23045"
       width="13.434011"
       id="rect4380"
       style="opacity:1;fill:none;fill-opacity:1;stroke:#000000;stroke-width:8;stroke-linecap:butt;stroke-linejoin:miter;stroke-miterlimit:4;stroke-dasharray:none;stroke-opacity:1" />
    <rect
       style="opacity:1;fill:none;fill-opacity:1;stroke:#000000;stroke-width:8;stroke-linecap:butt;stroke-linejoin:miter;stroke-miterlimit:4;stroke-dasharray:none;stroke-opacity:1"
       id="rect4382"
       width="13.434011"
       height="115.23045"
       x="662.90295"
       y="98.746933" />
    <rect
       y="226.53596"
       x="539.97021"
       height="12.448812"
       width="200.05954"
       id="rect4389"
       style="opacity:1;fill:none;fill-opacity:1;stroke:#000000;stroke-width:8;stroke-linecap:butt;stroke-linejoin:miter;stroke-miterlimit:4;stroke-dasharray:none;stroke-opacity:1" />
    <g
       id="g4391"
       transform="translate(-4.5776367e-5,8.9003906e-6)">
      <rect
         style="opacity:1;fill:url(#linearGradient4399);fill-opacity:1;stroke:#000000;stroke-width:0.99999994;stroke-linecap:round;stroke-linejoin:round;stroke-miterlimit:4;stroke-dasharray:none;stroke-opacity:1"
         id="rect4393"
         width="239.02396"
         height="238.99994"
         x="-1015.512"
         y="-275.86212"
         transform="scale(-1,-1)"
         rx="39.605713"
         ry="42.307446" />
      <path
         style="opacity:1;fill:#ffffff;fill-opacity:0.240625;stroke:none;stroke-width:10;stroke-linecap:round;stroke-linejoin:round;stroke-miterlimit:4;stroke-dasharray:none;stroke-opacity:1"
         d="m 816.09363,36.861237 c -21.94157,0 -39.60532,22.357155 -39.60532,50.12575 l 0,54.182053 a 151.82191,82.22065 0 0 0 119.51072,31.55419 151.82191,82.22065 0 0 0 119.51267,-31.66834 l 0,-54.067903 c 0,-27.768595 -17.66378,-50.12575 -39.60534,-50.12575 l -159.81273,0 z"
         id="path4395"
         inkscape:connector-curvature="0" />
      <rect
         ry="42.307446"
         rx="39.605713"
         transform="scale(-1,-1)"
         y="-275.86212"
         x="-1015.512"
         height="238.99994"
         width="239.02396"
         id="rect4397"
         style="opacity:1;fill:none;fill-opacity:1;stroke:#000000;stroke-width:4;stroke-linecap:round;stroke-linejoin:round;stroke-miterlimit:4;stroke-dasharray:none;stroke-opacity:1" />
    </g>
    <g
       id="g4425"
       transform="translate(-18.16301,-2.024366)">
      <path
         style="opacity:1;fill:none;fill-opacity:1;stroke:#000000;stroke-width:8;stroke-linecap:butt;stroke-linejoin:miter;stroke-miterlimit:4;stroke-dasharray:none;stroke-opacity:1"
         d="m 914.05974,62.670508 90.15616,36.062446 -180.31227,0 z"
         id="path4411"
         inkscape:connector-curvature="0"
         sodipodi:nodetypes="cccc" />
      <rect
         style="opacity:1;fill:none;fill-opacity:1;stroke:#000000;stroke-width:8;stroke-linecap:butt;stroke-linejoin:miter;stroke-miterlimit:4;stroke-dasharray:none;stroke-opacity:1"
         id="rect4413"
         width="13.434011"
         height="115.23045"
         x="878.56598"
         y="98.746933" />
      <rect
         style="opacity:1;fill:none;fill-opacity:1;stroke:#000000;stroke-width:8;stroke-linecap:butt;stroke-linejoin:miter;stroke-miterlimit:4;stroke-dasharray:none;stroke-opacity:1"
         id="rect4415"
         width="178.2914"
         height="12.448812"
         x="825.01733"
         y="214.21977" />
      <rect
         y="98.746933"
         x="840.06598"
         height="115.23045"
         width="13.434011"
         id="rect4417"
         style="opacity:1;fill:none;fill-opacity:1;stroke:#000000;stroke-width:8;stroke-linecap:butt;stroke-linejoin:miter;stroke-miterlimit:4;stroke-dasharray:none;stroke-opacity:1" />
      <rect
         y="98.746933"
         x="975.56598"
         height="115.23045"
         width="13.434011"
         id="rect4419"
         style="opacity:1;fill:none;fill-opacity:1;stroke:#000000;stroke-width:8;stroke-linecap:butt;stroke-linejoin:miter;stroke-miterlimit:4;stroke-dasharray:none;stroke-opacity:1" />
      <rect
         style="opacity:1;fill:none;fill-opacity:1;stroke:#000000;stroke-width:8;stroke-linecap:butt;stroke-linejoin:miter;stroke-miterlimit:4;stroke-dasharray:none;stroke-opacity:1"
         id="rect4421"
         width="13.434011"
         height="115.23045"
         x="937.06598"
         y="98.746933" />
      <rect
         y="226.53596"
         x="814.13324"
         height="12.448812"
         width="200.05954"
         id="rect4423"
         style="opacity:1;fill:none;fill-opacity:1;stroke:#000000;stroke-width:8;stroke-linecap:butt;stroke-linejoin:miter;stroke-miterlimit:4;stroke-dasharray:none;stroke-opacity:1" />
    </g>
  </g>
</svg>
