<?xml version="1.0" encoding="UTF-8" standalone="no"?>
<!-- Created with Inkscape (http://www.inkscape.org/) -->

<svg
   xmlns:dc="http://purl.org/dc/elements/1.1/"
   xmlns:cc="http://creativecommons.org/ns#"
   xmlns:rdf="http://www.w3.org/1999/02/22-rdf-syntax-ns#"
   xmlns:svg="http://www.w3.org/2000/svg"
   xmlns="http://www.w3.org/2000/svg"
   xmlns:xlink="http://www.w3.org/1999/xlink"
   xmlns:sodipodi="http://sodipodi.sourceforge.net/DTD/sodipodi-0.dtd"
   xmlns:inkscape="http://www.inkscape.org/namespaces/inkscape"
   width="2048"
   height="1024.0001"
   viewBox="0 0 2048 1024.0001"
   id="svg3352"
   version="1.1"
   inkscape:version="0.91 r13725"
   sodipodi:docname="Props.svg"
   inkscape:export-filename="C:\Users\lmaga\Documents\GitHub\Anarchy Bros\Assets\Resources\Sprites\props.png"
   inkscape:export-xdpi="90"
   inkscape:export-ydpi="90"
   enable-background="new">
  <defs
     id="defs3354">
    <linearGradient
       inkscape:collect="always"
       id="linearGradient6482">
      <stop
         style="stop-color:#ffffff;stop-opacity:1;"
         offset="0"
         id="stop6484" />
      <stop
         id="stop6490"
         offset="0.96833032"
         style="stop-color:#ffffff;stop-opacity:1" />
      <stop
         style="stop-color:#ffffff;stop-opacity:0;"
         offset="1"
         id="stop6486" />
    </linearGradient>
    <linearGradient
       id="linearGradient8898-2"
       inkscape:collect="always">
      <stop
         id="stop8908"
         offset="0"
         style="stop-color:#8d865d;stop-opacity:1" />
      <stop
         style="stop-color:#8d865d;stop-opacity:1"
         offset="0.89999962"
         id="stop8912" />
      <stop
         id="stop8910"
         offset="1"
         style="stop-color:#ffec7d;stop-opacity:1" />
    </linearGradient>
    <linearGradient
       id="linearGradient6336"
       inkscape:collect="always">
      <stop
         id="stop6338"
         offset="0"
         style="stop-color:#206900;stop-opacity:1" />
      <stop
         id="stop6340"
         offset="1"
         style="stop-color:#40ff15;stop-opacity:1" />
    </linearGradient>
    <linearGradient
       inkscape:collect="always"
       id="linearGradient6328">
      <stop
         style="stop-color:#005205;stop-opacity:0"
         offset="0"
         id="stop6330" />
      <stop
         style="stop-color:#000000;stop-opacity:1"
         offset="1"
         id="stop6332" />
    </linearGradient>
    <linearGradient
       inkscape:collect="always"
       id="linearGradient6275">
      <stop
         style="stop-color:#094e00;stop-opacity:1"
         offset="0"
         id="stop6277" />
      <stop
         id="stop6279"
         offset="0.5"
         style="stop-color:#40e513;stop-opacity:1" />
      <stop
         style="stop-color:#40ff15;stop-opacity:1"
         offset="1"
         id="stop6281" />
    </linearGradient>
    <linearGradient
       inkscape:collect="always"
       id="linearGradient4663-9">
      <stop
         style="stop-color:#1b5900;stop-opacity:1"
         offset="0"
         id="stop4947" />
      <stop
         style="stop-color:#40ff15;stop-opacity:1"
         offset="1"
         id="stop4951" />
    </linearGradient>
    <linearGradient
       id="linearGradient4671"
       inkscape:collect="always">
      <stop
         id="stop4673"
         offset="0"
         style="stop-color:#ff4f00;stop-opacity:1" />
      <stop
         id="stop4675"
         offset="1"
         style="stop-color:#70ff00;stop-opacity:1" />
    </linearGradient>
    <linearGradient
       inkscape:collect="always"
       id="linearGradient4684">
      <stop
         style="stop-color:#ffd300;stop-opacity:1"
         offset="0"
         id="stop4686" />
      <stop
         id="stop4688"
         offset="0.55337626"
         style="stop-color:#ac4400;stop-opacity:1" />
      <stop
         style="stop-color:#ff7f00;stop-opacity:1"
         offset="1"
         id="stop4690" />
    </linearGradient>
    <linearGradient
       inkscape:collect="always"
       xlink:href="#linearGradient4684"
       id="linearGradient6261"
       gradientUnits="userSpaceOnUse"
       gradientTransform="translate(0.75761441,4.2931483)"
       x1="1367.5505"
       y1="-312.52051"
       x2="1426.8315"
       y2="-302.16339" />
    <linearGradient
       inkscape:collect="always"
       xlink:href="#linearGradient6275"
       id="linearGradient4217"
       x1="1311.6277"
       y1="-89.800873"
       x2="1311.6277"
       y2="-0.40237334"
       gradientUnits="userSpaceOnUse"
       gradientTransform="matrix(0.80674064,0,0,0.88002404,249.06344,-34.983492)" />
    <linearGradient
       inkscape:collect="always"
       xlink:href="#linearGradient6275"
       id="linearGradient4221"
       gradientUnits="userSpaceOnUse"
       x1="1311.6277"
       y1="-89.800873"
       x2="1311.6277"
       y2="-0.40237334"
       gradientTransform="matrix(-0.8467134,0,0,-0.72307236,2418.3143,-176.65895)" />
    <linearGradient
       inkscape:collect="always"
       xlink:href="#linearGradient6275"
       id="linearGradient4225"
       gradientUnits="userSpaceOnUse"
       gradientTransform="matrix(0,-0.82117165,0.72968484,0,1376.7212,967.98088)"
       x1="1311.6277"
       y1="-82.948601"
       x2="1311.6277"
       y2="-0.40237334" />
    <linearGradient
       inkscape:collect="always"
       xlink:href="#linearGradient4671"
       id="linearGradient4241"
       gradientUnits="userSpaceOnUse"
       gradientTransform="matrix(-0.58644228,0.62728054,-0.42392132,-0.45344206,2024.002,-980.67312)"
       x1="1311.6277"
       y1="-89.800873"
       x2="1311.6277"
       y2="-0.40237334" />
    <linearGradient
       inkscape:collect="always"
       xlink:href="#linearGradient4671"
       id="linearGradient4245"
       gradientUnits="userSpaceOnUse"
       gradientTransform="matrix(0.33736692,-0.94137323,0.68049012,0.2438723,922.62983,1163.3364)"
       x1="1311.6277"
       y1="-89.800873"
       x2="1311.6277"
       y2="-0.40237334" />
    <linearGradient
       inkscape:collect="always"
       xlink:href="#linearGradient4671"
       id="linearGradient4251"
       gradientUnits="userSpaceOnUse"
       gradientTransform="matrix(-0.65066115,-0.63600454,0.47034319,-0.45974837,2212.9079,673.41313)"
       x1="1311.6277"
       y1="-89.800873"
       x2="1311.6277"
       y2="-0.40237334" />
    <linearGradient
       inkscape:collect="always"
       xlink:href="#linearGradient4671"
       id="linearGradient4253"
       gradientUnits="userSpaceOnUse"
       gradientTransform="matrix(0.57738934,0.70710678,-0.41737722,0.51114602,503.98063,-980.1945)"
       x1="1311.6277"
       y1="-89.800873"
       x2="1311.6277"
       y2="-0.40237334" />
    <linearGradient
       inkscape:collect="always"
       xlink:href="#linearGradient6275"
       id="linearGradient4305"
       gradientUnits="userSpaceOnUse"
       gradientTransform="matrix(-0.22968334,0.74361532,-0.74751304,-0.13478265,1535.2513,-1095.2953)"
       x1="1311.6277"
       y1="-89.800873"
       x2="1311.6277"
       y2="-0.40237334" />
    <radialGradient
       inkscape:collect="always"
       xlink:href="#linearGradient4663-9"
       id="radialGradient4943"
       cx="1566.1724"
       cy="-104.31592"
       fx="1566.1724"
       fy="-104.31592"
       r="62.338306"
       gradientUnits="userSpaceOnUse"
       gradientTransform="translate(353.82773,232.31592)" />
    <radialGradient
       inkscape:collect="always"
       xlink:href="#linearGradient4663-9"
       id="radialGradient5100"
       cx="1562.2332"
       cy="-95.278473"
       fx="1562.2332"
       fy="-95.278473"
       r="57.526649"
       gradientTransform="matrix(1,0,0,0.89592759,0,-9.9158602)"
       gradientUnits="userSpaceOnUse" />
    <radialGradient
       inkscape:collect="always"
       xlink:href="#linearGradient6336"
       id="radialGradient5124"
       cx="1564.8146"
       cy="-101.43273"
       fx="1564.8146"
       fy="-101.43273"
       r="55.417679"
       gradientTransform="matrix(1,0,0,0.9908966,0,-0.92338291)"
       gradientUnits="userSpaceOnUse" />
    <radialGradient
       inkscape:collect="always"
       xlink:href="#linearGradient6328"
       id="radialGradient6334"
       cx="1664.8935"
       cy="126.45994"
       fx="1664.8935"
       fy="126.45994"
       r="66.321206"
       gradientTransform="matrix(1,0,0,1.0776286,0,-9.8169051)"
       gradientUnits="userSpaceOnUse" />
    <radialGradient
       inkscape:collect="always"
       xlink:href="#linearGradient8898-2"
       id="radialGradient8904"
       cx="286.40567"
       cy="1001.1985"
       fx="286.40567"
       fy="1001.1985"
       r="118.71428"
       gradientTransform="matrix(3.1556674,2.8736307e-8,0,1.0136727,-617.39535,-863.20359)"
       gradientUnits="userSpaceOnUse" />
    <radialGradient
       inkscape:collect="always"
       xlink:href="#linearGradient8898-2"
       id="radialGradient8916"
       gradientUnits="userSpaceOnUse"
       gradientTransform="matrix(-3.1556674,-2.8736307e-8,0,-1.0136727,1189.4155,1166.4262)"
       cx="286.40567"
       cy="1001.1985"
       fx="286.40567"
       fy="1001.1985"
       r="118.71428" />
    <linearGradient
       inkscape:collect="always"
       xlink:href="#linearGradient4829"
       id="linearGradient4283"
       gradientUnits="userSpaceOnUse"
       gradientTransform="matrix(0.98264799,0,0,1.04968,-1767.3256,-314.65497)"
       x1="892.98901"
       y1="38.008118"
       x2="892.98901"
       y2="263.30103" />
    <linearGradient
       inkscape:collect="always"
       id="linearGradient4829">
      <stop
         style="stop-color:#ffec00;stop-opacity:1"
         offset="0"
         id="stop4831" />
      <stop
         style="stop-color:#ff7500;stop-opacity:1"
         offset="1"
         id="stop4833" />
    </linearGradient>
    <filter
       style="color-interpolation-filters:sRGB;"
       inkscape:label="Greyscale"
       id="filter6476">
      <feColorMatrix
         values="0.21 0.72 0.072 0 0 0.21 0.72 0.072 0 0 0.21 0.72 0.072 0 0 0 0 0 1 0 "
         id="feColorMatrix6478" />
    </filter>
    <radialGradient
       inkscape:collect="always"
       xlink:href="#linearGradient6482"
       id="radialGradient6488"
       cx="542.17218"
       cy="151.6841"
       fx="542.17218"
       fy="151.6841"
       r="122.81394"
       gradientTransform="translate(0,-3.7691415e-5)"
       gradientUnits="userSpaceOnUse" />
  </defs>
  <sodipodi:namedview
     id="base"
     pagecolor="#ffffff"
     bordercolor="#666666"
     borderopacity="1.0"
     inkscape:pageopacity="0.0"
     inkscape:pageshadow="2"
     inkscape:zoom="0.7499199"
     inkscape:cx="857.25089"
     inkscape:cy="623.1699"
     inkscape:document-units="px"
     inkscape:current-layer="layer2"
     showgrid="false"
     units="px"
     inkscape:window-width="1536"
     inkscape:window-height="801"
     inkscape:window-x="-8"
     inkscape:window-y="-8"
     inkscape:window-maximized="1"
     inkscape:snap-global="false"
     inkscape:snap-bbox="true"
     inkscape:snap-bbox-midpoints="true"
     fit-margin-top="0"
     fit-margin-left="0"
     fit-margin-right="0"
     fit-margin-bottom="0"
     inkscape:bbox-paths="true"
     inkscape:bbox-nodes="true"
     inkscape:snap-page="true"
     showguides="false"
     inkscape:snap-object-midpoints="true"
     inkscape:snap-center="true"
     inkscape:snap-bbox-edge-midpoints="true" />
  <metadata
     id="metadata3357">
    <rdf:RDF>
      <cc:Work
         rdf:about="">
        <dc:format>image/svg+xml</dc:format>
        <dc:type
           rdf:resource="http://purl.org/dc/dcmitype/StillImage" />
        <dc:title />
      </cc:Work>
    </rdf:RDF>
  </metadata>
  <g
     inkscape:groupmode="layer"
     id="layer2"
     inkscape:label="Background"
     style="display:none"
     transform="translate(368.56901,-767.99988)"
     sodipodi:insensitive="true">
    <rect
       style="fill:#b5b5b5;fill-opacity:1;stroke:#000000;stroke-width:1;stroke-linecap:round;stroke-linejoin:round;stroke-opacity:1"
       id="rect3372"
       width="255.00002"
       height="255.00002"
       x="-368.06915"
       y="768.49988"
       rx="0"
       ry="0" />
    <rect
       ry="0"
       rx="0"
       y="768.49988"
       x="-112.06911"
       height="255.00002"
       width="255.00002"
       id="rect3374"
       style="fill:#b5b5b5;fill-opacity:1;stroke:#000000;stroke-width:1;stroke-linecap:round;stroke-linejoin:round;stroke-opacity:1" />
    <rect
       ry="0"
       rx="0"
       y="768.49988"
       x="143.93091"
       height="255.00002"
       width="255.00002"
       id="rect3376"
       style="fill:#b5b5b5;fill-opacity:1;stroke:#000000;stroke-width:1;stroke-linecap:round;stroke-linejoin:round;stroke-opacity:1" />
    <rect
       style="fill:#b5b5b5;fill-opacity:1;stroke:#000000;stroke-width:1;stroke-linecap:round;stroke-linejoin:round;stroke-opacity:1"
       id="rect3378"
       width="255.00002"
       height="255.00002"
       x="399.93091"
       y="768.49988"
       rx="0"
       ry="0" />
    <rect
       style="fill:#b5b5b5;fill-opacity:1;stroke:#000000;stroke-width:1;stroke-linecap:round;stroke-linejoin:round;stroke-opacity:1"
       id="rect3380"
       width="255.00002"
       height="255.00002"
       x="655.93085"
       y="768.49988"
       rx="0"
       ry="0" />
    <rect
       ry="0"
       rx="0"
       y="1024.4999"
       x="-368.06915"
       height="255.00002"
       width="255.00002"
       id="rect3388"
       style="fill:#b5b5b5;fill-opacity:1;stroke:#000000;stroke-width:1;stroke-linecap:round;stroke-linejoin:round;stroke-opacity:1" />
    <rect
       style="fill:#b5b5b5;fill-opacity:1;stroke:#000000;stroke-width:1;stroke-linecap:round;stroke-linejoin:round;stroke-opacity:1"
       id="rect3390"
       width="255.00002"
       height="255.00002"
       x="-112.06911"
       y="1024.4999"
       rx="0"
       ry="0" />
    <rect
       style="fill:#b5b5b5;fill-opacity:1;stroke:#000000;stroke-width:1;stroke-linecap:round;stroke-linejoin:round;stroke-opacity:1"
       id="rect3392"
       width="255.00002"
       height="255.00002"
       x="143.93091"
       y="1024.4999"
       rx="0"
       ry="0" />
    <rect
       ry="0"
       rx="0"
       y="1024.4999"
       x="399.93091"
       height="255.00002"
       width="255.00002"
       id="rect3394"
       style="fill:#b5b5b5;fill-opacity:1;stroke:#000000;stroke-width:1;stroke-linecap:round;stroke-linejoin:round;stroke-opacity:1" />
    <rect
       ry="0"
       rx="0"
       y="1024.4999"
       x="655.93085"
       height="255.00002"
       width="255.00002"
       id="rect3396"
       style="fill:#b5b5b5;fill-opacity:1;stroke:#000000;stroke-width:1;stroke-linecap:round;stroke-linejoin:round;stroke-opacity:1" />
    <rect
       style="fill:#b5b5b5;fill-opacity:1;stroke:#000000;stroke-width:1;stroke-linecap:round;stroke-linejoin:round;stroke-opacity:1"
       id="rect3404"
       width="255.00002"
       height="255.00002"
       x="911.93085"
       y="768.49988"
       rx="0"
       ry="0" />
    <rect
       ry="0"
       rx="0"
       y="768.49988"
       x="1167.9309"
       height="255.00002"
       width="255.00002"
       id="rect3406"
       style="fill:#b5b5b5;fill-opacity:1;stroke:#000000;stroke-width:1;stroke-linecap:round;stroke-linejoin:round;stroke-opacity:1" />
    <rect
       ry="0"
       rx="0"
       y="768.49988"
       x="1423.931"
       height="255.00002"
       width="255.00002"
       id="rect3408"
       style="fill:#b5b5b5;fill-opacity:1;stroke:#000000;stroke-width:1;stroke-linecap:round;stroke-linejoin:round;stroke-opacity:1" />
    <rect
       style="fill:#b5b5b5;fill-opacity:1;stroke:#000000;stroke-width:1;stroke-linecap:round;stroke-linejoin:round;stroke-opacity:1"
       id="rect3410"
       width="255.00002"
       height="255.00002"
       x="399.93091"
       y="1280.5"
       rx="0"
       ry="0" />
    <rect
       style="fill:#b5b5b5;fill-opacity:1;stroke:#000000;stroke-width:1;stroke-linecap:round;stroke-linejoin:round;stroke-opacity:1"
       id="rect3412"
       width="255.00002"
       height="255.00002"
       x="655.93085"
       y="1280.5"
       rx="0"
       ry="0" />
    <rect
       ry="0"
       rx="0"
       y="1024.4999"
       x="911.93085"
       height="255.00002"
       width="255.00002"
       id="rect3420"
       style="fill:#b5b5b5;fill-opacity:1;stroke:#000000;stroke-width:1;stroke-linecap:round;stroke-linejoin:round;stroke-opacity:1" />
    <rect
       style="fill:#b5b5b5;fill-opacity:1;stroke:#000000;stroke-width:1;stroke-linecap:round;stroke-linejoin:round;stroke-opacity:1"
       id="rect3422"
       width="255.00002"
       height="255.00002"
       x="1167.9309"
       y="1024.4999"
       rx="0"
       ry="0" />
    <rect
       style="fill:#b5b5b5;fill-opacity:1;stroke:#000000;stroke-width:1;stroke-linecap:round;stroke-linejoin:round;stroke-opacity:1"
       id="rect3424"
       width="255.00002"
       height="255.00002"
       x="1423.931"
       y="1024.4999"
       rx="0"
       ry="0" />
    <rect
       ry="0"
       rx="0"
       y="1536.5"
       x="399.93091"
       height="255.00002"
       width="255.00002"
       id="rect3426"
       style="fill:#b5b5b5;fill-opacity:1;stroke:#000000;stroke-width:1;stroke-linecap:round;stroke-linejoin:round;stroke-opacity:1" />
    <rect
       ry="0"
       rx="0"
       y="1536.5"
       x="655.93085"
       height="255.00002"
       width="255.00002"
       id="rect3428"
       style="fill:#b5b5b5;fill-opacity:1;stroke:#000000;stroke-width:1;stroke-linecap:round;stroke-linejoin:round;stroke-opacity:1" />
    <rect
       ry="0"
       rx="0"
       y="1280.4999"
       x="-368.06915"
       height="255.00002"
       width="255.00002"
       id="rect10027"
       style="fill:#b5b5b5;fill-opacity:1;stroke:#000000;stroke-width:1;stroke-linecap:round;stroke-linejoin:round;stroke-opacity:1" />
    <rect
       style="fill:#b5b5b5;fill-opacity:1;stroke:#000000;stroke-width:1;stroke-linecap:round;stroke-linejoin:round;stroke-opacity:1"
       id="rect10029"
       width="255.00002"
       height="255.00002"
       x="-112.06911"
       y="1280.4999"
       rx="0"
       ry="0" />
    <rect
       style="fill:#b5b5b5;fill-opacity:1;stroke:#000000;stroke-width:1;stroke-linecap:round;stroke-linejoin:round;stroke-opacity:1"
       id="rect10031"
       width="255.00002"
       height="255.00002"
       x="143.93091"
       y="1280.4999"
       rx="0"
       ry="0" />
    <rect
       style="fill:#b5b5b5;fill-opacity:1;stroke:#000000;stroke-width:1;stroke-linecap:round;stroke-linejoin:round;stroke-opacity:1"
       id="rect10033"
       width="255.00002"
       height="255.00002"
       x="-368.06915"
       y="1536.4999"
       rx="0"
       ry="0" />
    <rect
       ry="0"
       rx="0"
       y="1536.4999"
       x="-112.06911"
       height="255.00002"
       width="255.00002"
       id="rect10035"
       style="fill:#b5b5b5;fill-opacity:1;stroke:#000000;stroke-width:1;stroke-linecap:round;stroke-linejoin:round;stroke-opacity:1" />
    <rect
       ry="0"
       rx="0"
       y="1536.4999"
       x="143.93091"
       height="255.00002"
       width="255.00002"
       id="rect10037"
       style="fill:#b5b5b5;fill-opacity:1;stroke:#000000;stroke-width:1;stroke-linecap:round;stroke-linejoin:round;stroke-opacity:1" />
    <rect
       style="fill:#b5b5b5;fill-opacity:1;stroke:#000000;stroke-width:1;stroke-linecap:round;stroke-linejoin:round;stroke-opacity:1"
       id="rect10039"
       width="255.00002"
       height="255.00002"
       x="911.93085"
       y="1280.5"
       rx="0"
       ry="0" />
    <rect
       ry="0"
       rx="0"
       y="1280.5"
       x="1167.9309"
       height="255.00002"
       width="255.00002"
       id="rect10041"
       style="fill:#b5b5b5;fill-opacity:1;stroke:#000000;stroke-width:1;stroke-linecap:round;stroke-linejoin:round;stroke-opacity:1" />
    <rect
       ry="0"
       rx="0"
       y="1280.5"
       x="1423.931"
       height="255.00002"
       width="255.00002"
       id="rect10043"
       style="fill:#b5b5b5;fill-opacity:1;stroke:#000000;stroke-width:1;stroke-linecap:round;stroke-linejoin:round;stroke-opacity:1" />
    <rect
       ry="0"
       rx="0"
       y="1536.5"
       x="911.93085"
       height="255.00002"
       width="255.00002"
       id="rect10045"
       style="fill:#b5b5b5;fill-opacity:1;stroke:#000000;stroke-width:1;stroke-linecap:round;stroke-linejoin:round;stroke-opacity:1" />
    <rect
       style="fill:#b5b5b5;fill-opacity:1;stroke:#000000;stroke-width:1;stroke-linecap:round;stroke-linejoin:round;stroke-opacity:1"
       id="rect10047"
       width="255.00002"
       height="255.00002"
       x="1167.9309"
       y="1536.5"
       rx="0"
       ry="0" />
    <rect
       style="fill:#b5b5b5;fill-opacity:1;stroke:#000000;stroke-width:1;stroke-linecap:round;stroke-linejoin:round;stroke-opacity:1"
       id="rect10049"
       width="255.00002"
       height="255.00002"
       x="1423.931"
       y="1536.5"
       rx="0"
       ry="0" />
  </g>
  <g
     inkscape:label="Layer 1"
     inkscape:groupmode="layer"
     id="layer1"
     transform="translate(353.82773,232.31592)"
     style="display:inline">
    <rect
       ry="0"
       rx="0"
       y="-98.180992"
       x="-721.89697"
       height="255"
       width="255"
       id="rect6319-1"
       style="fill:#ffffff;fill-opacity:0.19607843;stroke:#000000;stroke-width:1;stroke-linecap:round;stroke-linejoin:round;stroke-opacity:1" />
    <path
       style="fill:#ff0000;fill-opacity:1;stroke:#000000;stroke-width:1;stroke-linecap:round;stroke-linejoin:round;stroke-miterlimit:4;stroke-dasharray:none;stroke-opacity:1"
       d="m -220.27203,-104.31592 c 0,6.415758 -4.27314,15.545336 -7.34155,15.545327 -1.9198,-6e-6 0.3164,-7.750266 -0.68161,-10.845894 -0.5971,-1.852103 -4.55339,-7.954673 -3.26708,-11.842293 0.76156,-2.30167 2.666,-4.47388 5.7344,-4.47389 3.0684,0 5.55584,5.20099 5.55584,11.61675 z"
       id="path6943"
       inkscape:connector-curvature="0"
       sodipodi:nodetypes="sssass" />
    <path
       sodipodi:nodetypes="sssass"
       inkscape:connector-curvature="0"
       id="path6950"
       d="m 35.72797,-104.31592 c 0,6.415758 -4.27314,15.545336 -7.34155,15.545327 -1.9198,-6e-6 0.3164,-7.750266 -0.68161,-10.845894 -0.5971,-1.852103 -4.55339,-7.954673 -3.26708,-11.842293 0.76156,-2.30167 2.666,-4.47388 5.7344,-4.47389 3.0684,0 5.55584,5.20099 5.55584,11.61675 z"
       style="fill:#ff0000;fill-opacity:1;stroke:#000000;stroke-width:1;stroke-linecap:round;stroke-linejoin:round;stroke-miterlimit:4;stroke-dasharray:none;stroke-opacity:1" />
    <path
       style="fill:#ff0000;fill-opacity:1;stroke:#000000;stroke-width:1;stroke-linecap:round;stroke-linejoin:round;stroke-miterlimit:4;stroke-dasharray:none;stroke-opacity:1"
       d="m 18.396451,-138.10835 c 3.20788,5.55621 4.072022,15.59923 1.414696,17.13343 -1.6626,0.95989 -3.601124,-6.87013 -6.013236,-9.05202 -1.443159,-1.30542 -7.9206918,-4.61226 -8.7505247,-8.62219 -0.4913047,-2.37408 0.071884,-5.20749 2.7291912,-6.7417 2.6573125,-1.5342 7.4119935,1.72627 10.6198735,7.28248 z"
       id="path6952"
       inkscape:connector-curvature="0"
       sodipodi:nodetypes="sssass" />
    <path
       sodipodi:nodetypes="sssass"
       inkscape:connector-curvature="0"
       id="path6954"
       d="m 38.484119,-135.0496 c -2.092547,3.75031 -2.656239,10.52911 -0.922827,11.56466 1.084538,0.6479 2.349065,-4.63718 3.922521,-6.1099 0.941394,-0.88113 5.166781,-3.11317 5.708094,-5.81978 0.320485,-1.60244 -0.04689,-3.51493 -1.780291,-4.55048 -1.733403,-1.03555 -4.83495,1.16519 -6.927497,4.9155 z"
       style="fill:#ff0000;fill-opacity:1;stroke:#000000;stroke-width:1;stroke-linecap:round;stroke-linejoin:round;stroke-miterlimit:4;stroke-dasharray:none;stroke-opacity:1" />
    <path
       sodipodi:nodetypes="sssass"
       inkscape:connector-curvature="0"
       id="path6956"
       d="m 61.766732,-138.00478 c -5.450284,3.38472 -10.951642,11.83126 -9.332851,14.43792 1.012827,1.63089 6.417048,-4.35755 9.573343,-5.14288 1.888402,-0.46985 9.159827,-0.32843 11.783806,-3.47214 1.553528,-1.86123 2.394142,-4.62506 0.775368,-7.23172 -1.618779,-2.60665 -7.349383,-1.97591 -12.799666,1.40882 z"
       style="fill:#ff0000;fill-opacity:1;stroke:#000000;stroke-width:1;stroke-linecap:round;stroke-linejoin:round;stroke-miterlimit:4;stroke-dasharray:none;stroke-opacity:1" />
    <path
       style="fill:#ff0000;fill-opacity:1;stroke:#000000;stroke-width:1;stroke-linecap:round;stroke-linejoin:round;stroke-miterlimit:4;stroke-dasharray:none;stroke-opacity:1"
       d="m 290.21149,-108.79186 c 0,7.01279 -3.15344,16.991951 -5.41782,16.991941 -1.41675,-6e-6 0.23349,-8.471491 -0.50301,-11.855191 -0.44064,-2.02445 -3.36025,-8.69493 -2.41099,-12.94432 0.562,-2.51586 1.96741,-4.89021 4.23179,-4.89022 2.26438,0 4.10003,5.68498 4.10003,12.69779 z"
       id="path6960"
       inkscape:connector-curvature="0"
       sodipodi:nodetypes="sssass" />
    <path
       sodipodi:nodetypes="sssass"
       inkscape:connector-curvature="0"
       id="path6962"
       d="m 275.31523,-132.71076 c 2.22658,3.96732 2.82638,11.13839 0.98194,12.23386 -1.15401,0.68539 -2.49953,-4.90551 -4.17377,-6.46346 -1.00168,-0.93211 -5.49772,-3.29331 -6.0737,-6.15654 -0.34102,-1.69518 0.0499,-3.71833 1.89432,-4.81381 1.84443,-1.09547 5.14463,1.23262 7.37121,5.19995 z"
       style="fill:#ff0000;fill-opacity:1;stroke:#000000;stroke-width:1;stroke-linecap:round;stroke-linejoin:round;stroke-miterlimit:4;stroke-dasharray:none;stroke-opacity:1" />
    <path
       style="fill:#ff0000;fill-opacity:1;stroke:#000000;stroke-width:1;stroke-linecap:round;stroke-linejoin:round;stroke-miterlimit:4;stroke-dasharray:none;stroke-opacity:1"
       d="m 314.68708,-161.31356 c -2.09254,3.75031 -2.65624,10.52911 -0.92282,11.56466 1.08453,0.6479 2.34906,-4.63718 3.92252,-6.1099 0.94139,-0.88113 5.16678,-3.11317 5.70809,-5.81978 0.32049,-1.60244 -0.0469,-3.51493 -1.78029,-4.55048 -1.7334,-1.03555 -4.83495,1.16519 -6.9275,4.9155 z"
       id="path6964"
       inkscape:connector-curvature="0"
       sodipodi:nodetypes="sssass" />
    <path
       style="fill:#ff0000;fill-opacity:1;stroke:#000000;stroke-width:1;stroke-linecap:round;stroke-linejoin:round;stroke-miterlimit:4;stroke-dasharray:none;stroke-opacity:1"
       d="m 312.37588,-127.61326 c -6.41255,0.16714 -15.40225,3.91908 -15.30509,6.44247 0.0608,1.57878 7.73636,-0.4621 10.86204,0.27797 1.87008,0.4428 8.09486,3.53735 11.9398,2.37826 2.2764,-0.68625 4.38723,-2.30899 4.29008,-4.83237 -0.0971,-2.52336 -5.37429,-4.43347 -11.78683,-4.26633 z"
       id="path6966"
       inkscape:connector-curvature="0"
       sodipodi:nodetypes="sssass" />
    <path
       style="fill:#ff0000;fill-opacity:1;stroke:#000000;stroke-width:1;stroke-linecap:round;stroke-linejoin:round;stroke-miterlimit:4;stroke-dasharray:none;stroke-opacity:1"
       d="m 249.9773,-139.91485 c 6.742,2.83015 13.74328,10.1223 11.88164,12.46672 -1.16477,1.46681 -7.95241,-3.66058 -11.81096,-4.2636 -2.30855,-0.36081 -11.12177,-0.03 -14.42666,-2.72772 -1.95667,-1.59718 -3.08388,-4.01049 -1.22227,-6.35489 1.86162,-2.3444 8.83623,-1.95065 15.57825,0.87949 z"
       id="path6968"
       inkscape:connector-curvature="0"
       sodipodi:nodetypes="sssass" />
    <path
       sodipodi:nodetypes="sssass"
       inkscape:connector-curvature="0"
       id="path6970"
       d="m 280.95006,-154.38186 c 2.43922,4.89817 1.95797,13.20927 -0.88003,14.17222 -1.77564,0.60247 -2.65396,-6.01631 -4.75396,-8.06649 -1.25642,-1.22662 -7.23577,-4.64409 -7.5241,-8.01581 -0.17071,-1.99623 0.76486,-4.25229 3.60284,-5.21526 2.83798,-0.96294 7.11602,2.22717 9.55525,7.12534 z"
       style="fill:#ff0000;fill-opacity:1;stroke:#000000;stroke-width:1;stroke-linecap:round;stroke-linejoin:round;stroke-miterlimit:4;stroke-dasharray:none;stroke-opacity:1" />
    <path
       sodipodi:nodetypes="sssass"
       inkscape:connector-curvature="0"
       id="path6972"
       d="m 289.9145,-146.51348 c -2.78063,6.44518 -3.58262,17.56089 -1.31723,18.957 1.41738,0.87349 3.12541,-7.92978 5.20389,-10.58553 1.24355,-1.58892 6.80932,-5.9194 7.54456,-10.41012 0.4353,-2.65873 -0.0293,-5.70742 -2.29466,-7.10353 -2.26537,-1.3961 -6.35595,2.69698 -9.13656,9.14218 z"
       style="fill:#ff0000;fill-opacity:1;stroke:#000000;stroke-width:1;stroke-linecap:round;stroke-linejoin:round;stroke-miterlimit:4;stroke-dasharray:none;stroke-opacity:1" />
    <path
       style="fill:#ff0000;fill-opacity:1;stroke:#000000;stroke-width:1;stroke-linecap:round;stroke-linejoin:round;stroke-miterlimit:4;stroke-dasharray:none;stroke-opacity:1"
       d="m 330.42069,-141.31308 c -5.55068,-0.67531 -13.9233,2.04786 -14.26367,4.69332 -0.21294,1.65517 6.74036,0.54299 9.30787,1.72927 1.53614,0.70974 6.37698,4.76303 9.8831,4.06323 2.07581,-0.4143 4.16639,-1.82761 4.50678,-4.47304 0.34039,-2.64545 -3.8834,-5.33747 -9.43408,-6.01278 z"
       id="path6974"
       inkscape:connector-curvature="0"
       sodipodi:nodetypes="sssass" />
    <path
       sodipodi:nodetypes="sssass"
       inkscape:connector-curvature="0"
       id="path6976"
       d="m 250.70828,-174.6695 c 4.83145,5.27163 10.68294,17.42441 9.9479,20.76443 -0.45989,2.0897 -5.76063,-6.71255 -8.3309,-8.16976 -1.53778,-0.8719 -7.08112,-1.57972 -9.70058,-6.17419 -1.55087,-2.72017 -2.73045,-6.57801 -1.99544,-9.91798 0.73504,-3.33998 5.24756,-1.77411 10.07902,3.4975 z"
       style="fill:#ff0000;fill-opacity:1;stroke:#000000;stroke-width:1;stroke-linecap:round;stroke-linejoin:round;stroke-miterlimit:4;stroke-dasharray:none;stroke-opacity:1" />
    <path
       sodipodi:nodetypes="sssass"
       inkscape:connector-curvature="0"
       id="path6978"
       d="m 285.56895,-168.15198 c -0.80335,4.21879 0.79902,10.82956 2.77053,11.26575 1.23349,0.27291 0.76716,-5.1413 1.79603,-7.03501 0.61555,-1.133 3.92167,-4.58343 3.58199,-7.32266 -0.2011,-1.62176 -1.15275,-3.32086 -3.12423,-3.75706 -1.97149,-0.4362 -4.22096,2.63019 -5.02432,6.84898 z"
       style="fill:#ff0000;fill-opacity:1;stroke:#000000;stroke-width:1;stroke-linecap:round;stroke-linejoin:round;stroke-miterlimit:4;stroke-dasharray:none;stroke-opacity:1" />
    <path
       sodipodi:nodetypes="sssass"
       inkscape:connector-curvature="0"
       id="path6990"
       d="m 505.9773,-139.91485 c 6.742,2.83015 13.74328,10.1223 11.88164,12.46672 -1.16477,1.46681 -7.95241,-3.66058 -11.81096,-4.2636 -2.30855,-0.36081 -11.12177,-0.03 -14.42666,-2.72772 -1.95667,-1.59718 -3.08388,-4.01049 -1.22227,-6.35489 1.86162,-2.3444 8.83623,-1.95065 15.57825,0.87949 z"
       style="fill:#ff0000;fill-opacity:1;stroke:#000000;stroke-width:1;stroke-linecap:round;stroke-linejoin:round;stroke-miterlimit:4;stroke-dasharray:none;stroke-opacity:1" />
    <path
       style="fill:#ff0000;fill-opacity:1;stroke:#000000;stroke-width:1;stroke-linecap:round;stroke-linejoin:round;stroke-miterlimit:4;stroke-dasharray:none;stroke-opacity:1"
       d="m 536.95006,-154.38186 c 2.43922,4.89817 1.95797,13.20927 -0.88003,14.17222 -1.77564,0.60247 -2.65396,-6.01631 -4.75396,-8.06649 -1.25642,-1.22662 -7.23577,-4.64409 -7.5241,-8.01581 -0.17071,-1.99623 0.76486,-4.25229 3.60284,-5.21526 2.83798,-0.96294 7.11602,2.22717 9.55525,7.12534 z"
       id="path6992"
       inkscape:connector-curvature="0"
       sodipodi:nodetypes="sssass" />
    <path
       sodipodi:nodetypes="sssass"
       inkscape:connector-curvature="0"
       id="path6996"
       d="m 586.42069,-141.31308 c -5.55068,-0.67531 -13.9233,2.04786 -14.26367,4.69332 -0.21294,1.65517 6.74036,0.54299 9.30787,1.72927 1.53614,0.70974 6.37698,4.76303 9.8831,4.06323 2.07581,-0.4143 4.16639,-1.82761 4.50678,-4.47304 0.34039,-2.64545 -3.8834,-5.33747 -9.43408,-6.01278 z"
       style="fill:#ff0000;fill-opacity:1;stroke:#000000;stroke-width:1;stroke-linecap:round;stroke-linejoin:round;stroke-miterlimit:4;stroke-dasharray:none;stroke-opacity:1" />
    <path
       sodipodi:nodetypes="sssass"
       inkscape:connector-curvature="0"
       id="path7002"
       d="m 538.74796,-117.6161 c -2.09254,3.75031 -2.65624,10.52912 -0.92282,11.56467 1.08453,0.6479 2.34906,-4.63719 3.92252,-6.10991 0.94139,-0.88113 5.16678,-3.11317 5.70809,-5.81978 0.32049,-1.60244 -0.0469,-3.51493 -1.78029,-4.55048 -1.7334,-1.03555 -4.83495,1.16519 -6.9275,4.9155 z"
       style="fill:#ff0000;fill-opacity:1;stroke:#000000;stroke-width:1;stroke-linecap:round;stroke-linejoin:round;stroke-miterlimit:4;stroke-dasharray:none;stroke-opacity:1" />
    <path
       style="fill:#ff0000;fill-opacity:1;stroke:#000000;stroke-width:1;stroke-linecap:round;stroke-linejoin:round;stroke-miterlimit:4;stroke-dasharray:none;stroke-opacity:1"
       d="m 560.04368,-165.01313 c -2.80511,3.2519 -4.72281,9.77818 -3.23352,11.14169 0.93178,0.85309 3.23503,-4.06892 5.07291,-5.19448 1.09958,-0.67343 5.68798,-2.00853 6.76342,-4.55062 0.63673,-1.50503 0.66212,-3.45232 -0.82713,-4.81582 -1.48926,-1.36351 -4.97055,0.16733 -7.77568,3.41923 z"
       id="path7004"
       inkscape:connector-curvature="0"
       sodipodi:nodetypes="sssass" />
    <path
       sodipodi:nodetypes="sssass"
       inkscape:connector-curvature="0"
       id="path7010"
       d="m 775.89974,-165.8878 c 2.50426,2.66636 3.89656,8.09213 2.33746,9.26368 -0.97548,0.73299 -2.86439,-3.34178 -4.5798,-4.24726 -1.02633,-0.54175 -5.41857,-1.56739 -6.28243,-3.6742 -0.51146,-1.24734 -0.39165,-2.87724 1.16744,-4.0488 1.55909,-1.17155 4.85308,0.0402 7.35733,2.70658 z"
       style="fill:#ff0000;fill-opacity:1;stroke:#000000;stroke-width:1;stroke-linecap:round;stroke-linejoin:round;stroke-miterlimit:4;stroke-dasharray:none;stroke-opacity:1" />
    <path
       style="fill:#ff0000;fill-opacity:1;stroke:#000000;stroke-width:1;stroke-linecap:round;stroke-linejoin:round;stroke-miterlimit:4;stroke-dasharray:none;stroke-opacity:1"
       d="m 855.67138,-137.79761 c -4.6583,-0.5476 -11.68486,1.66058 -11.97051,3.80575 -0.1787,1.34215 5.65672,0.4403 7.81145,1.40223 1.28917,0.57552 5.35175,3.86227 8.2942,3.29482 1.74208,-0.33595 3.49656,-1.48199 3.78222,-3.62712 0.28567,-2.14516 -3.25906,-4.32808 -7.91736,-4.87568 z"
       id="path7012"
       inkscape:connector-curvature="0"
       sodipodi:nodetypes="sssass" />
    <path
       style="fill:#ff0000;fill-opacity:1;stroke:#000000;stroke-width:1;stroke-linecap:round;stroke-linejoin:round;stroke-miterlimit:4;stroke-dasharray:none;stroke-opacity:1"
       d="m 794.74793,-117.6161 c -2.09254,3.75031 -2.65624,10.52912 -0.92282,11.56467 1.08453,0.6479 2.34906,-4.63719 3.92252,-6.10991 0.94139,-0.88113 5.16678,-3.11317 5.70809,-5.81978 0.32049,-1.60244 -0.0469,-3.51493 -1.78029,-4.55047 -1.7334,-1.03555 -4.83495,1.16518 -6.9275,4.91549 z"
       id="path7014"
       inkscape:connector-curvature="0"
       sodipodi:nodetypes="sssass" />
    <path
       sodipodi:nodetypes="sssass"
       inkscape:connector-curvature="0"
       id="path7016"
       d="m 824.62995,-177.64003 c -2.80511,3.2519 -4.72281,9.77818 -3.23352,11.14169 0.93178,0.85309 3.23503,-4.06892 5.07291,-5.19448 1.09958,-0.67343 5.68798,-2.00853 6.76342,-4.55062 0.63673,-1.50503 0.66212,-3.45232 -0.82713,-4.81582 -1.48926,-1.36351 -4.97055,0.16733 -7.77568,3.41923 z"
       style="fill:#ff0000;fill-opacity:1;stroke:#000000;stroke-width:1;stroke-linecap:round;stroke-linejoin:round;stroke-miterlimit:4;stroke-dasharray:none;stroke-opacity:1" />
    <path
       sodipodi:nodetypes="sssass"
       inkscape:connector-curvature="0"
       id="path7018"
       d="m 776.40162,-137.24285 c 2.87782,0.78183 6.19267,4.26725 5.63236,5.97114 -0.35058,1.06605 -3.41865,-1.12016 -4.98946,-0.9432 -0.9398,0.10586 -4.39956,1.55912 -5.90848,0.37109 -0.89338,-0.70338 -1.51998,-2.02564 -0.95969,-3.7295 0.5603,-1.70389 3.34744,-2.45136 6.22527,-1.66953 z"
       style="fill:#ff0000;fill-opacity:1;stroke:#000000;stroke-width:1;stroke-linecap:round;stroke-linejoin:round;stroke-miterlimit:4;stroke-dasharray:none;stroke-opacity:1" />
    <path
       style="fill:#ff0000;fill-opacity:1;stroke:#000000;stroke-width:1;stroke-linecap:round;stroke-linejoin:round;stroke-miterlimit:4;stroke-dasharray:none;stroke-opacity:1"
       d="m 820.7723,-145.55106 c -2.29555,1.90356 -3.8691,6.44893 -2.65338,7.76773 0.76063,0.8251 2.64768,-2.43551 4.15072,-2.92505 0.89923,-0.29293 4.65021,-0.40313 5.53156,-2.10943 0.52181,-1.01024 0.54448,-2.47328 -0.6712,-3.79206 -1.21571,-1.3188 -4.06214,-0.84475 -6.3577,1.05881 z"
       id="path7020"
       inkscape:connector-curvature="0"
       sodipodi:nodetypes="sssass" />
    <path
       style="fill:#ff0000;fill-opacity:1;stroke:#000000;stroke-width:1;stroke-linecap:round;stroke-linejoin:round;stroke-miterlimit:4;stroke-dasharray:none;stroke-opacity:1"
       d="m 1042.1019,-174.49896 c 1.2736,1.37582 1.9817,4.17547 1.1888,4.77998 -0.4961,0.37822 -1.4567,-1.72433 -2.3291,-2.19155 -0.522,-0.27954 -2.7557,-0.80876 -3.195,-1.89586 -0.2602,-0.64362 -0.1992,-1.48463 0.5937,-2.08915 0.7929,-0.60451 2.4681,0.0207 3.7416,1.39658 z"
       id="path7024"
       inkscape:connector-curvature="0"
       sodipodi:nodetypes="sssass" />
    <path
       sodipodi:nodetypes="sssass"
       inkscape:connector-curvature="0"
       id="path7026"
       d="m 1112.1691,-136.48567 c -3.4756,-0.3784 -8.7183,1.14747 -8.9314,2.62979 -0.1334,0.92743 4.2206,0.30425 5.8282,0.96894 0.9619,0.39769 3.9931,2.66885 6.1885,2.27674 1.2999,-0.23215 2.6089,-1.02406 2.822,-2.50636 0.2132,-1.48231 -2.4316,-2.99072 -5.9073,-3.36911 z"
       style="fill:#ff0000;fill-opacity:1;stroke:#000000;stroke-width:1;stroke-linecap:round;stroke-linejoin:round;stroke-miterlimit:4;stroke-dasharray:none;stroke-opacity:1" />
    <path
       sodipodi:nodetypes="sssass"
       inkscape:connector-curvature="0"
       id="path7028"
       d="m 1063.5036,-127.13833 c -1.1164,2.16853 -1.4172,6.08822 -0.4923,6.68701 0.5786,0.37463 1.2533,-2.68136 2.0928,-3.53292 0.5022,-0.5095 2.7566,-1.80012 3.0454,-3.36516 0.171,-0.92657 -0.025,-2.03243 -0.9498,-2.63121 -0.9249,-0.59878 -2.5796,0.67374 -3.6961,2.84228 z"
       style="fill:#ff0000;fill-opacity:1;stroke:#000000;stroke-width:1;stroke-linecap:round;stroke-linejoin:round;stroke-miterlimit:4;stroke-dasharray:none;stroke-opacity:1" />
    <path
       style="fill:#ff0000;fill-opacity:1;stroke:#000000;stroke-width:1;stroke-linecap:round;stroke-linejoin:round;stroke-miterlimit:4;stroke-dasharray:none;stroke-opacity:1"
       d="m 1082.5467,-176.42656 c -1.8339,2.16765 -3.0876,6.51791 -2.114,7.4268 0.6092,0.56865 2.1149,-2.71225 3.3164,-3.46252 0.7188,-0.4489 3.7185,-1.33884 4.4216,-3.03334 0.4162,-1.00322 0.4328,-2.30124 -0.5408,-3.21012 -0.9736,-0.90888 -3.2494,0.11154 -5.0832,2.27918 z"
       id="path7030"
       inkscape:connector-curvature="0"
       sodipodi:nodetypes="sssass" />
    <path
       style="fill:#ff0000;fill-opacity:1;stroke:#000000;stroke-width:1;stroke-linecap:round;stroke-linejoin:round;stroke-miterlimit:4;stroke-dasharray:none;stroke-opacity:1"
       d="m 1033.2765,-135.87222 c 1.7821,0.42208 3.835,2.30373 3.488,3.2236 -0.2171,0.57552 -2.1171,-0.60473 -3.0899,-0.5092 -0.582,0.0571 -2.7246,0.84171 -3.6591,0.20034 -0.5532,-0.37973 -0.9412,-1.09357 -0.5942,-2.01343 0.347,-0.91986 2.073,-1.3234 3.8552,-0.90131 z"
       id="path7032"
       inkscape:connector-curvature="0"
       sodipodi:nodetypes="sssass" />
    <path
       sodipodi:nodetypes="sssass"
       inkscape:connector-curvature="0"
       id="path7034"
       d="m 1078.6501,-144.28479 c -1.3601,1.1123 -2.2925,3.7683 -1.5722,4.53891 0.4507,0.48213 1.5689,-1.42314 2.4594,-1.70919 0.5329,-0.17117 2.7555,-0.23556 3.2777,-1.2326 0.3092,-0.59032 0.3226,-1.44521 -0.3977,-2.21582 -0.7204,-0.77061 -2.4069,-0.49361 -3.7672,0.6187 z"
       style="fill:#ff0000;fill-opacity:1;stroke:#000000;stroke-width:1;stroke-linecap:round;stroke-linejoin:round;stroke-miterlimit:4;stroke-dasharray:none;stroke-opacity:1" />
    <g
       id="g5133"
       style="stroke-width:1;stroke-miterlimit:4;stroke-dasharray:none">
      <path
         inkscape:connector-curvature="0"
         id="path4935"
         transform="translate(-353.82773,-232.31592)"
         d="m 1908.9277,67.816406 a 61.338306,61.338306 0 0 0 -9.8027,2.726563 l -0.1973,7.029297 -3.6875,-5.46875 a 61.338306,61.338306 0 0 0 -22.9062,17.603515 l 0.166,6.435547 -5.207,0.800781 a 61.338306,61.338306 0 0 0 -2.2774,4.300781 l 2.127,9.18359 -7.3867,6.77149 A 61.338306,61.338306 0 0 0 1858.6621,128 a 61.338306,61.338306 0 0 0 0.5762,7.63086 l 1.1191,1.94141 8.1582,3.92773 23.9844,-5.35742 -19.541,5.2168 1.6836,-0.2168 c 0,0 -6.1992,4.6819 -12.0586,8.08008 a 61.338306,61.338306 0 0 0 3.5488,7.73437 c 1.3314,0.96495 2.0023,1.45068 2.7774,2.01563 l 12.1621,-6.75782 -9.4414,9.71094 -0.2227,3.1875 a 61.338306,61.338306 0 0 0 26.7598,19.94922 l 4.959,0.13281 5.3828,-4.93359 c 2.2772,-3.62867 5.2246,-8.32617 5.2246,-8.32617 l 0.8398,12.30273 1.6856,3.73438 2.7617,1.29882 a 61.338306,61.338306 0 0 0 0.9785,0.0664 61.338306,61.338306 0 0 0 32.252,-9.29492 l 4.6015,-7.625 -1.8535,-3.06055 5.1309,3.32813 c 0.4055,-0.13339 1.5265,-0.48979 2.5312,-0.81641 a 61.338306,61.338306 0 0 0 11.1953,-14.82617 l -0.1074,-7.50781 0.1914,-0.10547 c -1.4117,-0.96926 -3.2266,-2.21485 -3.2266,-2.21485 l 4.9434,1.27735 2.4512,-1.33789 a 61.338306,61.338306 0 0 0 1.6953,-6.14258 l -4.4707,-6.50977 -3.0391,-1.125 c -5.5885,-1.38081 -11.9375,-2.94922 -11.9375,-2.94922 l 7.4649,1.13086 13.2715,-7.49218 a 61.338306,61.338306 0 0 0 -2.2911,-13.30079 l -6.6601,-0.69335 4.8574,-4.48829 a 61.338306,61.338306 0 0 0 -14.4512,-21.681636 l -5.0488,3.3125 c 0,0 1.5111,-2.171721 3.373,-4.783203 a 61.338306,61.338306 0 0 0 -1.6269,-1.3125 l -11.5996,-5.673829 c -1.0061,0.09451 -3.5391,0.339844 -3.5391,0.339844 l -2.6797,2.142578 -0.4101,-4.583984 c -1.6558,-0.142957 -3.4887,-0.244523 -4.2324,-0.05859 -1.4286,0.35715 -5,1.072266 -5,1.072266 l -5,2.857422 -3.9278,7.142578 -2.2715,7.166016 -2.3066,36.470698 -4.4395,-50.01562 -4.9121,-10.16211 z"
         style="fill:url(#radialGradient4943);fill-opacity:1;stroke:#000000;stroke-width:1;stroke-linecap:round;stroke-linejoin:round;stroke-miterlimit:4;stroke-dasharray:none;stroke-opacity:1" />
      <g
         style="stroke:url(#radialGradient5100);stroke-width:1;stroke-miterlimit:4;stroke-dasharray:none;stroke-opacity:0.43786986"
         id="g5088">
        <path
           style="fill:none;fill-rule:evenodd;stroke:url(#radialGradient5100);stroke-width:1;stroke-linecap:butt;stroke-linejoin:miter;stroke-miterlimit:4;stroke-dasharray:none;stroke-opacity:0.43786986"
           d="m 1565.0502,-118.02449 0,74.285733"
           id="path5056"
           inkscape:connector-curvature="0" />
        <path
           inkscape:connector-curvature="0"
           id="path5060"
           d="m 1619.7597,-103.91734 -115.0533,0"
           style="fill:none;fill-rule:evenodd;stroke:url(#radialGradient5100);stroke-width:1;stroke-linecap:butt;stroke-linejoin:miter;stroke-miterlimit:4;stroke-dasharray:none;stroke-opacity:0.43786986" />
        <path
           style="fill:none;fill-rule:evenodd;stroke:url(#radialGradient5100);stroke-width:1;stroke-linecap:butt;stroke-linejoin:miter;stroke-miterlimit:4;stroke-dasharray:none;stroke-opacity:0.43786986"
           d="m 1603.6681,-144.34228 -80.8192,84.033533"
           id="path5071"
           inkscape:connector-curvature="0"
           sodipodi:nodetypes="cc" />
        <path
           inkscape:connector-curvature="0"
           id="path5073"
           d="m 1607.4562,-61.724658 -84.6379,-84.385362"
           style="fill:none;fill-rule:evenodd;stroke:url(#radialGradient5100);stroke-width:1;stroke-linecap:butt;stroke-linejoin:miter;stroke-miterlimit:4;stroke-dasharray:none;stroke-opacity:0.43786986"
           sodipodi:nodetypes="cc" />
      </g>
      <g
         style="stroke:url(#radialGradient5124);stroke-width:1;stroke-miterlimit:4;stroke-dasharray:none"
         id="g5110">
        <path
           style="fill:none;fill-rule:evenodd;stroke:url(#radialGradient5124);stroke-width:1;stroke-linecap:butt;stroke-linejoin:miter;stroke-miterlimit:4;stroke-dasharray:none;stroke-opacity:1"
           d="m 1544.9223,-155.28009 42.8572,108.39286"
           id="path5102"
           inkscape:connector-curvature="0"
           sodipodi:nodetypes="cc" />
        <path
           sodipodi:nodetypes="cc"
           inkscape:connector-curvature="0"
           id="path5104"
           d="M 1586.3132,-155.96439 1541.843,-48.223228"
           style="fill:none;fill-rule:evenodd;stroke:url(#radialGradient5124);stroke-width:1;stroke-linecap:butt;stroke-linejoin:miter;stroke-miterlimit:4;stroke-dasharray:none;stroke-opacity:1" />
        <path
           sodipodi:nodetypes="cc"
           inkscape:connector-curvature="0"
           id="path5106"
           d="m 1618.9424,-122.53189 -109.2075,39.211121"
           style="fill:none;fill-rule:evenodd;stroke:url(#radialGradient5124);stroke-width:1;stroke-linecap:butt;stroke-linejoin:miter;stroke-miterlimit:4;stroke-dasharray:none;stroke-opacity:1" />
        <path
           style="fill:none;fill-rule:evenodd;stroke:url(#radialGradient5124);stroke-width:1;stroke-linecap:butt;stroke-linejoin:miter;stroke-miterlimit:4;stroke-dasharray:none;stroke-opacity:1"
           d="M 1619.8508,-81.448804 1512.1096,-125.919"
           id="path5108"
           inkscape:connector-curvature="0"
           sodipodi:nodetypes="cc" />
      </g>
      <path
         inkscape:connector-curvature="0"
         id="path5058"
         transform="translate(-353.82773,-232.31592)"
         d="m 1908.9277,67.816406 a 61.338306,61.338306 0 0 0 -9.8027,2.726563 l -0.1973,7.029297 -3.6875,-5.46875 a 61.338306,61.338306 0 0 0 -22.9062,17.603515 l 0.166,6.435547 -5.207,0.800781 a 61.338306,61.338306 0 0 0 -2.2774,4.300781 l 2.127,9.18359 -7.3867,6.77149 A 61.338306,61.338306 0 0 0 1858.6621,128 a 61.338306,61.338306 0 0 0 0.5762,7.63086 l 1.1191,1.94141 8.1582,3.92773 23.9844,-5.35742 -19.541,5.2168 1.6836,-0.2168 c 0,0 -6.1992,4.6819 -12.0586,8.08008 a 61.338306,61.338306 0 0 0 3.5488,7.73437 c 1.3314,0.96495 2.0023,1.45068 2.7774,2.01563 l 12.1621,-6.75782 -9.4414,9.71094 -0.2227,3.1875 a 61.338306,61.338306 0 0 0 15.8828,14.41016 l 8.5137,-12.38477 -6.5645,13.62305 a 61.338306,61.338306 0 0 0 8.9278,4.30078 l 4.959,0.13281 5.3828,-4.93359 c 2.2772,-3.62867 5.2246,-8.32617 5.2246,-8.32617 l 0.8398,12.30273 1.6856,3.73438 2.7617,1.29882 a 61.338306,61.338306 0 0 0 0.9785,0.0664 61.338306,61.338306 0 0 0 32.252,-9.29492 l 4.6015,-7.625 -1.8535,-3.06055 5.1309,3.32813 c 0.4055,-0.13339 1.5265,-0.48979 2.5312,-0.81641 a 61.338306,61.338306 0 0 0 11.1953,-14.82617 l -0.1074,-7.50781 0.1914,-0.10547 c -1.4117,-0.96926 -3.2266,-2.21485 -3.2266,-2.21485 l 4.9434,1.27735 2.4512,-1.33789 a 61.338306,61.338306 0 0 0 1.6953,-6.14258 l -4.4707,-6.50977 -3.0391,-1.125 c -5.5885,-1.38081 -11.9375,-2.94922 -11.9375,-2.94922 l 7.4649,1.13086 13.2715,-7.49218 a 61.338306,61.338306 0 0 0 -2.2911,-13.30079 l -6.6601,-0.69335 4.8574,-4.48829 a 61.338306,61.338306 0 0 0 -14.4512,-21.681636 l -5.0488,3.3125 c 0,0 1.5111,-2.171721 3.373,-4.783203 a 61.338306,61.338306 0 0 0 -1.6269,-1.3125 l -11.5996,-5.673829 c -1.0061,0.09452 -3.5391,0.339844 -3.5391,0.339844 l -2.6797,2.142578 -0.4101,-4.583984 c -1.6558,-0.142957 -3.4887,-0.244523 -4.2324,-0.05859 -1.4286,0.35715 -5,1.072266 -5,1.072266 l -5,2.857422 -3.9278,7.142578 -2.2715,7.166016 -2.3066,36.470698 -4.4395,-50.01562 -4.9121,-10.16211 z"
         style="fill:none;fill-opacity:1;stroke:#094300;stroke-width:1;stroke-linecap:round;stroke-linejoin:round;stroke-miterlimit:4;stroke-dasharray:none;stroke-opacity:1" />
    </g>
    <g
       id="g7962"
       transform="translate(0,-5)"
       style="stroke-width:1;stroke-miterlimit:4;stroke-dasharray:none">
      <path
         id="path5513"
         transform="translate(-353.82773,-232.31592)"
         d="m 47.476562,269.625 0,27.27539 68.431638,0 0.25196,-4.86523 1.33984,4.64257 0.79297,0.22266 89.79883,0 0,-27.27539 -9.09571,0 c -1.83833,0.1146 -4.06197,0.16712 -6.67382,0.26758 -4.64286,0.17857 -4.46458,0.17801 -7.85743,0.53515 -3.39286,0.35715 -4.64369,0.53711 -12.32226,0.53711 l -10.35742,0 c -1.78571,0 -4.10714,0.35714 -10,1.25 -5.89285,0.89285 -12.14175,1.07116 -18.57032,0.89258 -6.42858,-0.17857 -7.14313,-0.35798 -11.60742,-1.07226 -4.46428,-0.71429 -5.89313,-1.07003 -22.85742,-0.71289 -16.96429,0.35714 -4.465126,-0.53711 -11.072266,-0.53711 -6.60714,0 -4.82004,0.53599 -10.71289,1.60742 -5.89286,1.07143 -4.642578,0.17829 -10.892578,-0.35742 -6.25,-0.53572 -12.500282,0.17968 -14.107422,0.17968 0,0 1.19392,-1.53552 2.21875,-2.58984 l -6.707032,0 z m 0,29.80078 0,27.27344 8.941407,0 c 0.28327,-0.2831 0.633456,-0.59811 1.160156,-0.9668 2.52539,-1.76776 1.515433,-0.75878 3.283203,0.50391 0.35328,0.25234 0.65787,0.38405 0.96875,0.46289 l 1.5,0 c 1.16587,-0.17814 2.927644,-0.58242 6.371094,-0.71484 6.56599,-0.25257 2.777749,-2.1e-4 4.292969,-0.75782 1.51523,-0.75762 1.767781,-0.25195 5.050781,-0.25195 3.28299,0 7.324048,-5.9e-4 14.142578,0.25195 4.26158,0.15784 5.069996,0.7106 5.878906,1.47266 l 19.636714,0 c 0.60377,-0.0705 1.0938,-0.13784 1.75782,-0.20899 7.07107,-0.75762 6.3129,-7.8e-4 12.8789,-0.50585 6.56599,-0.50507 7.32424,5.8e-4 12.375,-0.25196 5.05077,-0.25253 6.56584,5.8e-4 11.86914,-0.25195 5.3033,-0.25254 4.79708,0.25132 8.08008,0.50391 2.2643,0.17417 4.42887,0.46611 6.86719,0.71484 l 9.54687,0 c 0.6323,-0.1247 1.35139,-0.27809 2.2754,-0.46289 3.78807,-0.75761 3.28146,-0.50411 6.56445,-1.26172 3.283,-0.75761 4.29376,-0.25195 7.32422,-0.25195 2.23779,0 6.53186,0.96386 9.34179,1.97656 l 0.50782,0 0,-17.07813 c -2.60053,0.10178 -2.49537,-0.15227 -8.83985,-0.80859 -7.32361,-0.75761 -2.01993,0.25313 -6.06054,-0.25195 -4.04061,-0.50507 -4.54454,0 -8.08008,0 l -6.0625,0 c -3.78807,0 -5.30216,-0.25333 -8.08008,-0.50586 -2.77792,-0.25254 -8.33438,5.8e-4 -9.84961,-0.25196 -1.51523,-0.25254 10.60606,-0.50585 12.87891,-0.50585 2.27284,0 1.76838,5.8e-4 7.32422,-0.25196 5.55584,-0.25254 9.5961,-1.01113 13.63671,-1.26367 4.04061,-0.25254 5.55685,-1.51504 8.83985,-1.76758 l 4.29297,2.04883 0,-6.63672 -90.72657,0 -0.84765,4.39649 -0.92188,-4.39649 -7.24414,0 c -1.27617,0.12317 -2.7501,0.27812 -4.81054,0.54688 -5.808404,0.75762 -6.566816,10e-4 -10.607426,-0.50391 -0.13546,-0.0169 -0.252866,-0.0264 -0.384766,-0.043 l -9.595703,0 c -2.01314,0.23867 -4.458946,0.60399 -7.697266,1.17969 -11.36422,2.02031 -9.46875,0.63086 -9.46875,0.63086 0,0 -5.592323,-1.16204 -12.439453,-1.81055 l -5.871094,0 z m 0,28.78906 0,27.27344 4.400391,0 -0.984375,-0.23828 c 0,0 4.643414,-0.71373 5.714844,-0.53516 1.07143,0.17857 1.785438,0.17802 4.642578,0.53516 0.88132,0.11016 1.585505,0.18036 2.234375,0.23828 l 12.916016,0 c 0.0707,-0.0215 0.135991,-0.0387 0.207031,-0.0605 2.32143,-0.71428 1.964844,-1.60546 1.964844,-1.60546 0,0 0.891742,0.89118 2.320312,1.60546 0.0457,0.0229 0.0958,0.0392 0.142578,0.0605 l 3.414063,0 0.193359,-0.77344 c 0.17857,-0.71429 0.893414,-1.78543 3.214844,-0.89257 1.78152,0.6852 1.880535,1.15936 2.072266,1.66601 l 16.261722,0 c 0.36202,-0.16719 0.71045,-0.32986 1.30859,-0.5957 3.21429,-1.42857 1.96457,-1.24944 5.35742,-1.78516 3.39286,-0.53571 1.96401,-5.6e-4 7.14258,0.53516 5.17857,0.53571 2.50028,10e-4 5.35742,0.17969 2.85715,0.17857 2.32199,0.17773 4.46485,0.17773 2.14286,0 2.49971,-0.17885 5.89257,-0.35742 3.39285,-0.17857 2.67886,0.17885 5.35743,0.35742 2.67857,0.17857 3.75,0.71484 3.75,0.71484 0,0 1.96344,-0.17884 5.17773,-0.35742 3.21429,-0.17857 2.50028,0.35687 4.10742,0.89258 0.30649,0.10216 0.52903,0.17013 0.75391,0.23828 l 14.07617,0 c 1.81201,-0.41993 3.63269,-0.85153 8.02734,-2.02344 5.35714,-1.42857 3.74917,0.17774 6.42774,0.17774 2.67857,0 1.78571,0.7154 5,1.42969 0.89398,0.19866 1.46001,0.32091 1.9414,0.41601 l 17.75782,0 0,-25.98633 c -1.31618,-0.0134 -3.44086,-0.05 -4.54688,-0.23437 -1.51523,-0.25254 -3.7879,-0.5047 -6.81836,-1.00977 -0.11941,-0.0199 -0.18965,-0.0268 -0.29492,-0.043 l -16.29687,0 c -1.13802,0.24715 -2.20948,0.46637 -2.85352,0.54688 -2.0203,0.25254 -6.81779,0.75781 -12.12109,0.75781 -5.3033,0 -7.32404,-0.50527 -11.61719,-0.75781 -4.29315,-0.25254 -4.54571,0 -7.57617,0 -3.03045,0 -6.06056,0.25254 -8.58594,0 -2.52539,-0.25254 -6.06156,0.25332 -14.90039,0.50586 -5.89469,0.16842 -7.62064,0.33738 -9.39844,0.50586 0.0101,0.15983 0.0338,0.32525 0.11719,0.5039 0.44197,0.94702 -0.0625,0.56836 -0.0625,0.56836 l -3.5332,-0.81054 c -4.08313,0.22558 -5.72549,-0.01 -13.13477,-0.01 l -12.878906,0 c -6.81853,0 -5.55647,5.9e-4 -9.84961,-0.25195 -4.29315,-0.25253 -6.060183,-0.25391 -12.121093,-0.25391 -6.06092,0 -6.566407,-0.50391 -6.566407,-0.50391 l -5.050781,-0.75781 3.537109,0 c 0.332641,0 0.598099,-0.0161 0.824219,-0.043 l -6.886719,0 z m 0,29.08399 0,27.27539 6.837891,0 c 0.14454,-0.70432 0.130936,-1.40041 -0.271484,-2.65234 -1.13642,-3.53553 -2.020215,-4.54581 -2.146485,-5.42969 -0.12627,-0.88388 2.777344,-6.94537 2.777344,-6.94531 0,0 1.8956,0.63242 3.53711,1.64257 1.6415,1.01015 2.145416,1.2627 3.029296,2.52539 0.88388,1.26269 1.894628,2.27168 2.273438,3.0293 0.37881,0.75761 0.630475,1.64278 1.640625,2.40039 1.01015,0.75761 2.273822,0.50362 1.263672,1.89258 -1.01015,1.38896 -1.641308,1.76904 -1.767578,2.40039 -0.0278,0.13878 -0.0342,0.21738 -0.0293,0.2793 1.09266,-0.17676 -0.304094,-0.36977 4.128906,-0.0742 5.35714,0.35714 7.320594,0.35742 10.177734,0.35742 2.85714,0 -1.606586,-0.17773 4.464844,-0.17773 6.07143,0 6.607976,-0.35714 9.822266,0 3.21428,0.35714 2.499154,0.71373 7.677739,0.53515 C 106.07115,384.17883 106.78571,384 111.25,384 c 4.46429,0 7.14202,0.35658 8.92773,0.53516 0.29762,0.0298 0.57889,0.0316 0.86329,0.0391 l 0.65429,0 c 1.26164,-0.0516 2.75727,-0.34752 5.80469,-1.10938 4.28571,-1.07143 4.6437,-1.25 6.07227,-1.25 1.42857,0 1.78432,-0.17968 4.46289,-0.17968 2.67858,0 4.46484,0.001 6.96484,0.53711 2.09263,0.44841 2.20727,0.89385 4.06641,1.13281 l 6.64843,-2.5625 9.10743,-10.35742 3.57031,-8.57032 -1.96485,10.17774 -3.54296,5.37695 8.00781,-4.48437 -9.64258,8.67187 0,0.61524 1.07227,1.25 5.41601,0.75195 40.35352,0 0,-27.27539 -3.13868,0 c 0.12335,0.1523 0.0469,0.27344 0.0469,0.27344 0,0 -0.53487,0.17717 -1.42773,0.71289 -0.89286,0.53571 -2.50139,0.53711 -4.28711,0.53711 -1.78571,0 -1.96457,-2.9e-4 -5.35743,-0.35743 -3.39286,-0.35715 -3.03542,-10e-4 -5.89257,-0.53711 -2.85714,-0.53571 -2.4989,-0.35658 -4.82032,-0.53515 -2.32143,-0.17857 -1.964,0 -3.39257,0 -1.42857,0 -2.32255,5.6e-4 -7.67969,0.71484 -5.35715,0.71429 -3.75,0.35659 -7.5,0.53516 -3.75,0.17857 -3.57115,-0.17829 -7.14258,-0.89258 -1.6598,-0.33196 -2.30776,-0.39031 -3.01953,-0.45117 l -13.77149,0 c -0.94274,0.22856 -2.03362,0.49759 -3.74414,0.80859 -3.92858,0.71429 -3.57282,0.17914 -6.78711,-0.53515 -0.51558,-0.11458 -1.0098,-0.20039 -1.49414,-0.27344 l -11.00586,0 c -1.06433,0.052 -2.0907,0.0937 -2.85546,0.0937 -2.32143,0 -4.2874,0.7154 -9.64454,1.42969 -5.357056,0.71429 -4.46372,0.71373 -11.785152,1.78515 -3.42619,0.5014 -4.766163,0.60312 -5.876953,0.52344 l -0.642578,7.1543 c 0,0 -0.171388,-4.33734 -0.242188,-7.26172 -0.98023,-0.14351 -2.067185,-0.37295 -4.666015,-0.59571 -6.25,-0.53571 -4.106868,-0.71372 -8.392578,-1.78515 -3.31239,-0.8281 -4.013488,-0.82083 -10.023438,-1.34375 l -16.072266,0 z m 0,28.78906 0,27.27539 2.357422,0 c 0.37581,-0.63165 1.872908,-1.198 3.023438,-2.2207 1.60715,-1.42857 2.142296,-0.17745 3.035156,0.17969 0.89285,0.35714 3.57143,1.07087 6.25,1.78515 0.39243,0.10465 0.766016,0.18561 1.128906,0.25586 l 23.142578,0 c -3.0407,-0.55829 -5.525371,-1.0454 -6.107421,-1.26367 l 14.107421,1.26367 25.337888,0 c 0.7375,-0.11889 1.37526,-0.22354 1.94532,-0.3457 1.25,-0.26786 3.48214,-0.71401 4.375,-0.89258 0.89286,-0.17857 2.49888,-0.80273 3.57031,-0.17773 1.07143,0.625 1.78627,1.6063 3.21484,0.80273 1.42857,-0.80357 2.9467,-1.339 3.48242,-1.51758 0.53571,-0.17857 0.536,-0.35742 0.98243,-0.35742 0.44643,0 0.98046,8.4e-4 1.60546,0.44727 0.625,0.44643 1.60743,0.80273 1.60743,0.80273 0,0 1.96484,-1.6077 2.58984,-2.58984 0.625,-0.98215 -0.44643,1.42829 -0.625,2.14257 -0.17857,0.71429 2.05273,1.60743 2.05273,1.60743 0,0 0.17919,0.0308 0.38477,0.0781 l 11.42578,0 c 0.58332,-0.39287 1.5966,-0.7176 2.74414,-0.61328 0.94088,0.0855 1.55281,0.33735 2.19141,0.61328 l 36.45312,0 -3.0664,-5.42969 3.08984,-1.68945 4.54688,-10.45898 1.1582,7.33984 2.63476,-1.44141 1.21875,11.67969 0.75782,0 0,-27.27539 -35.96875,0 -12.83789,2.01953 -7.85743,0.35742 -3.75,-0.53711 -2.67773,0.89454 -0.17773,2.32031 1.60546,2.5 -2.85546,-2.32031 -2.14454,-1.07227 -4.64257,-0.35742 -9.64258,2.14258 -13.92774,2.32226 -6.07226,-0.17969 1.21094,-0.23046 -0.31836,0.0527 31.15234,-7.74805 c -0.68494,-0.0505 -1.49911,-0.10937 -5.4375,-0.10937 -6.78571,0 -5.17857,0.35742 -11.25,0.35742 -6.07143,0 -12.14231,0.89202 -15.53516,1.42773 -3.39286,0.53572 -2.14369,1.07199 -7.322262,0.71485 -5.17857,-0.35714 -5.178288,-0.17885 -9.642578,-0.35742 -4.46429,-0.17858 -3.571712,-0.17718 -7.857422,-0.71289 -4.28572,-0.53571 -3.570866,-0.89342 -6.785156,-0.71485 -3.21428,0.17858 -5.893686,0.89258 -7.322266,0.89258 -1.06207,0 -2.33424,-0.0822 -3.0625,-0.13281 -0.12384,0.69759 -0.09649,1.08236 -0.576172,1.7539 -0.63135,0.88389 -0.884082,0.37853 -0.757812,1.38868 0.12627,1.01016 1.389152,0.75889 0.757812,2.40039 -0.63135,1.64149 -0.883015,1.51504 -1.640625,1.76757 -0.75762,0.25254 -0.252935,-0.25302 -1.515625,0.63086 -1.26269,0.88388 -0.631158,1.01045 -1.767578,1.13672 -1.13642,0.12627 -2.777344,-0.12695 -2.777344,-0.12695 0,0 0.126559,-0.50517 -1.388671,-0.37891 -1.51123,0.12594 -2.144558,1.38085 -2.398438,0.13477 -0.0908,0.15625 -0.136833,-0.68233 -0.002,-0.008 6.7e-4,0.003 9.13e-4,0.005 0.002,0.008 0.0791,-0.13608 0.193173,-1.01856 0.251953,-4.42774 0.0533,-3.09388 0.417675,-4.69224 0.740235,-5.80859 l -6.423829,0 z m 0.357422,28.79102 0,11.1289 0.738282,-0.40039 c 0,0 23.392578,2.85631 20.892578,2.67774 -1.95462,-0.13963 -14.96542,0.29781 -21.63086,0.52929 l 0,13.33789 39.460938,0 3.419922,-1.54492 4.464844,1.07031 -0.271485,0.47461 39.441407,0 10.19727,0 c 2.89479,-0.17253 6.20273,-0.47709 9.7539,-1.00976 10.10153,-1.51523 12.87874,-2.27344 17.17188,-2.27344 l 11.36523,0 c 2.77792,0 4.04122,0.50528 7.32422,0.75781 3.28299,0.25254 7.82812,0.50586 7.82812,0.50586 0,0 10.85855,-1.51698 -2.27343,0.75586 -3.70021,0.64042 -5.06277,0.87571 -7.27539,1.26367 l 20.00781,0 0,-10.47656 -8.2793,-14.66406 c -1.11383,-0.0141 -2.64529,-0.0718 -9.09765,-0.51172 -7.85715,-0.53571 -2.32171,8.4e-4 -6.60743,-0.17773 -4.28571,-0.17857 -4.46539,-0.17997 -7.67968,-0.53711 -3.21428,-0.35715 -4.8206,0.53599 -13.92774,0.35742 -5.26305,-0.1032 -6.64215,-0.74183 -6.875,-1.26367 l -23.76562,0 c -3.14369,1.17733 -3.09234,1.53673 -5.9668,1.71093 -2.94643,0.17857 -2.58873,0.4456 -5.53516,0.17774 -2.94643,-0.26786 -1.78627,-0.35714 -6.96484,-0.625 -5.17857,-0.26786 -6.07115,-0.35602 -6.51758,-0.44531 -0.21921,-0.0438 -0.65357,-0.43448 -1.03906,-0.81836 l -5.49219,0 4.85938,1.76757 c 0,0 -5.27027,-0.87072 -10.541019,-1.76757 l -13.226562,0 c -0.35422,0.56276 -0.777015,1.1633 -1.078125,1.26367 -0.53571,0.17857 -0.357422,0.17969 -2.857422,0.17969 -2.5,0 -3.036546,0.17828 -6.072266,0.89257 -3.03571,0.71428 -4.642024,0.89174 -6.427734,1.07032 -1.78571,0.17857 -2.679406,-0.71318 -3.572266,-1.07032 -0.89286,-0.35715 -3.213162,-1.42996 -6.070312,-1.78711 -1.93303,-0.24162 -3.20508,-0.24461 -4.16211,-0.54882 l -3.71875,0 z m -0.357422,29.29297 0,27.27539 1.988282,0 c 1.02659,-2.43922 2.558594,-5.30469 2.558594,-5.30469 0,0 2.272861,-1.01015 5.050781,0 2.77792,1.01015 6.3125,2.27344 6.3125,2.27344 0,0 1.010555,0.25312 1.515625,2.27343 0.0704,0.28153 0.115917,0.5283 0.148437,0.75782 l 56.033199,0 c 1.83501,-0.38041 1.98233,-0.0738 5.52344,-0.48243 2.88862,-0.3333 4.00193,-0.18663 4.76758,-0.0684 -1.2727,-1.75383 -4.02628,-5.49788 -5.57227,-7.10742 l -0.79687,-0.67578 c 0.15143,0.0379 0.44622,0.31071 0.79687,0.67578 l 8.79102,7.4375 c 0.44328,0.0622 0.93974,0.14242 1.47656,0.22071 l 7.41602,0 c 0.80257,-0.0268 2.1154,-0.0275 3.86328,0 l 60.74219,0 0,-27.27539 -58.39649,0 c -1.0284,0.0799 -0.79332,0.22175 1.57422,0.50585 6.31346,0.75761 4.79982,0.50528 8.58789,0.75782 2.20214,0.14681 4.3077,0.61891 5.76563,1.00195 1.51605,0.2614 1.81054,0.51367 1.81054,0.51367 0,0 -0.76057,-0.23781 -1.81054,-0.51367 -1.11608,-0.19244 -2.87444,-0.39097 -5.76563,-0.49805 -6.81853,-0.25254 -5.05099,0.25254 -10.85937,0 -5.80838,-0.25254 -5.05216,0.7582 -7.83008,-0.25195 -1.66876,-0.60682 -3.18098,-1.12781 -4.32031,-1.51562 l -42.583988,0 1.986328,15.90039 -5,-15.17969 -1.802734,-0.7207 -41.970704,0 z m 0,28.78906 0,27.27539 28.951172,0 c 1.88392,-0.28076 4.050392,-0.64318 5.394532,-1.00977 2.77792,-0.75761 2.525017,-1.26367 6.060546,-1.26367 3.535541,0 -3.283352,-1.01054 8.585938,1.00977 2.819,0.47983 5.12153,0.89442 7.12695,1.26367 l 27.18164,0 c 1.3532,-0.40215 2.74275,-0.81724 3.32032,-1.00977 1.51523,-0.50507 1.26328,-1.01113 4.79882,-1.26367 3.53553,-0.25253 3.53439,-1.51465 8.08008,-0.25195 4.54568,1.26269 8.58732,1.76834 11.36524,2.27344 2.77792,0.50508 4.2922,-0.50626 8.83789,-2.02149 4.54568,-1.51523 4.79962,-1.76758 7.83008,-1.76758 3.03046,0 3.7881,-0.25195 7.57617,-0.25195 3.78807,0 2.525,-1.51582 6.06054,0.25195 3.53553,1.76776 8.0803,2.52579 11.36329,4.04102 l 8.08203,0 0,-27.27539 -54.85938,0 c -1.2593,0.20384 -2.57556,0.5254 -5.375,0.86133 -4.46428,0.53571 -2.14341,-0.002 -6.96484,0.35546 -1.96599,0.14564 -2.79842,0.22588 -3.31446,0.28907 l 11.16602,12.38476 -15.41602,-13.75781 c -4.34737,0.061 -10.71459,0.19141 -17.07812,0.19141 l -2.85742,0 c 0,0 0.45394,-0.0362 1.74219,-0.32422 l -50.195317,0 c -0.19581,0.54307 -0.560515,1.03998 -1.046875,1.76953 -1.01015,1.51522 -1.010545,-0.7578 -1.515625,1.76758 -0.50508,2.52538 1.262872,2.27189 -1.767578,3.78711 -3.03045,1.51523 -7.324614,3.03065 -8.839844,0.75781 -1.51523,-2.27284 -1.261334,-2.27246 -2.271484,-3.53516 -0.8693,-1.08661 -1.172346,-2.55126 -0.597656,-4.54687 l -1.423829,0 z m 35.826172,8.71679 c 0.53572,0 1.519532,0.35743 1.519532,0.35743 l 0.71289,0.44726 2.322266,0.35742 5.357422,0.0879 -5,1.33985 -0.714844,0.71484 -0.982422,0.71485 -1.785156,0.53515 -1.429688,-0.26758 -2.5,-1.42968 -4.03125,-0.71485 c 0,0 2.781532,-0.44559 3.138672,-0.80273 0.35715,-0.35714 0.535992,-0.35714 0.982422,-0.625 0.44643,-0.26786 0.714844,-0.44531 0.714844,-0.44531 0,0 1.159602,-0.26954 1.695312,-0.26954 z"
         style="fill:#d06d2c;fill-opacity:1;stroke:#000000;stroke-width:1;stroke-linecap:round;stroke-linejoin:miter;stroke-miterlimit:4;stroke-dasharray:none;stroke-opacity:1"
         inkscape:connector-curvature="0" />
      <g
         id="g7956"
         style="stroke-width:1;stroke-miterlimit:4;stroke-dasharray:none">
        <path
           style="fill:#a54d15;fill-opacity:1;stroke:#000000;stroke-width:1;stroke-linecap:round;stroke-linejoin:round;stroke-miterlimit:4;stroke-dasharray:none;stroke-opacity:1"
           d="m -153.81796,37.1001 0,23.2539 c 0.72375,1.12052 1.26367,2.01738 1.26367,2.25196 0,1.26269 0.25136,6.31485 0.5039,7.83007 0.25254,1.51523 3.28321,9.34375 3.28321,9.34375 l -3.53516,8.08008 0,14.14258 -1.51562,11.49023 0,0.74805 c 1.38337,1.82813 2.52539,3.41992 2.52539,3.41992 l -2.52539,6.24024 0,50.625 3.15625,20.5957 c 0.22771,0.3254 0.49656,0.70526 0.70898,1.00977 l 1.75,-1.67969 0.55469,4.98633 c 0.2613,0.37963 0.87912,1.27301 0.88476,1.28125 0.11727,-0.0919 0.70994,-0.54263 1.50196,-0.98047 0.20983,-1.67799 0.61118,-5.0322 0.66211,-4.67578 0.051,0.35723 0.19853,2.94393 0.26367,4.0957 0.0811,-0.0781 0.15028,-0.16003 0.20703,-0.24609 l 1.48633,-10.79493 0.0918,7.9336 c 0.1886,-0.13884 0.42147,-0.31654 0.70704,-0.54883 l 0.96289,-9.08594 3.22461,1.86328 0,-19.27539 -7.3418,-3.09179 -0.97266,24.34375 -0.71484,-24.64454 0.25195,-0.30273 -4.60547,-1.93945 c 0,0 7.82286,-2.97928 13.38282,-4.92188 l 0,-28.04687 -10.10157,-1.62891 c 0,0 6.69636,-1.13348 9.69336,-1.54687 0.07,-0.44704 0.21848,-0.99385 0.40821,-1.58204 l 0,-7.15039 -2.5254,-3.86328 2.5254,-0.5039 0,-7.45508 -1.76758,-1.38477 c 0,0 1.02344,-0.32181 1.76758,-0.55664 l 0,-4.25586 c -2.17372,-1.04389 -4.29297,-2.00586 -4.29297,-2.00586 0,0 2.69691,-0.95824 4.03125,-1.35937 l -0.4961,-4.19727 -1.76758,-2.01953 0.75782,-1.76758 1.76758,-14.84765 0,-37.17578 -16.16211,0 z m 6.81835,53.91796 0.63282,4.67188 0.88281,-0.50586 -1.26172,3.91406 -0.50586,4.54688 -1.13672,13.13086 -0.25195,-13.50977 1.64062,-12.24805 z m 0.19141,109.81055 -2.37305,3.16406 c -0.10005,2.41412 -0.53906,6.44141 -0.53906,6.44141 0,0 -0.58725,-2.61898 -1.0332,-4.34766 l -0.67969,0.90625 c -0.21164,1.95572 -0.51953,4.33399 -0.51953,4.33399 l -0.61719,-2.81641 -1.24804,1.66211 0,2.0586 c 0.9448,1.8258 1.60626,3.1065 2.00585,3.89257 l 2.03516,-0.22656 -2.875,10.82617 0.25195,-0.0391 c 0,0 -0.35546,1.24944 -0.35546,4.28516 0,3.03571 -0.002,4.46484 0.35546,5.71484 0.35714,1.25 0.53628,0.8937 0.71485,2.32227 0.17857,1.42857 0.35826,1.07087 0.17969,3.03515 -0.17857,1.96429 -0.17996,2.14286 -0.53711,3.75 -0.35714,1.60715 -0.71289,1.78516 -0.71289,3.03516 0,1.25 -0.17857,0.53683 0,2.67969 0.17857,2.14286 0.17773,2.14118 0.17773,4.10546 0,1.96429 0.53571,1.42885 0,4.10743 -0.44101,2.20506 -0.15932,5.4905 -1.24023,4.79296 l 0,1.89258 16.16211,0 0,-29.33789 -5.2793,7.29492 5.2793,-16.92187 0,-2.30078 c -1.9456,3.47567 -3.84961,6.72265 -3.84961,6.72265 l 3.84961,-12.59961 0,-1.25 c -0.33897,-0.85446 -0.78162,-1.96018 -1.13868,-2.85937 l -1.10547,3.76367 c 0,0 0.0862,-3.46359 0.15821,-6.14453 -0.24928,-0.62661 -0.4951,-1.2423 -0.75586,-1.89648 -0.3083,2.98981 -0.65235,6.34375 -0.65235,6.34375 l -1.01757,-10.43946 c -0.20319,-0.42942 -0.48455,-1.03834 -0.75,-1.61132 l -1.53516,2.67578 -0.58594,-5.61719 c -0.0657,-0.047 -0.13542,-0.10418 -0.21679,-0.18555 -0.67762,-0.6776 -1.46844,-1.16159 -1.55274,-1.21289 z m -0.5918,34.60547 -0.44531,11.51758 c 0,0 0.98159,1.87472 1.16016,2.14258 0.17857,0.26785 0.53544,0.0901 0.26758,1.69726 -0.26785,1.60715 -0.53516,2.32087 -1.16016,3.03516 -0.625,0.71428 -1.78516,3.57226 -1.78516,3.57226 l -0.89257,-2.94726 c 0.0893,-0.71429 1.07031,-7.85742 1.07031,-7.85742 0,0 0.35742,5.80441 0.35742,5.44726 0,-0.35714 1.42773,-16.60742 1.42773,-16.60742 z"
           id="rect5292"
           inkscape:connector-curvature="0" />
        <path
           style="fill:#813b0c;fill-opacity:1;stroke:#000000;stroke-width:1;stroke-linecap:round;stroke-linejoin:round;stroke-miterlimit:4;stroke-dasharray:none;stroke-opacity:1"
           d="m -146.99961,249.23291 a 16.414978,16.414978 0 0 0 -11.24804,4.48828 l 1.9043,5.61328 -3.0293,-2.02148 -3.99805,9.13867 a 16.414978,16.414978 0 0 0 11.04492,14.6875 l 1.53907,-3.875 1.98437,4.66406 a 16.414978,16.414978 0 0 0 1.39649,0.11524 l 16.2832,-12.3125 a 16.414978,16.414978 0 0 0 0.53906,-4.08399 16.414978,16.414978 0 0 0 -5.04297,-11.83203 l -4.55469,2.99414 2.67383,-4.5293 a 16.414978,16.414978 0 0 0 -9.49219,-3.04687 z"
           id="circle5294"
           inkscape:connector-curvature="0" />
        <path
           style="fill:#813b0c;fill-opacity:1;stroke:#000000;stroke-width:1;stroke-linecap:round;stroke-linejoin:round;stroke-miterlimit:4;stroke-dasharray:none;stroke-opacity:1"
           d="m -145.98789,136.09424 a 16.414978,16.414978 0 0 0 -16.41601,16.41601 16.414978,16.414978 0 0 0 16.41601,16.41406 16.414978,16.414978 0 0 0 5.29102,-0.89648 l -5.95898,-14.43945 c 0,0 7.51762,7.27308 11.0039,11.66406 a 16.414978,16.414978 0 0 0 6.07813,-12.74219 16.414978,16.414978 0 0 0 -16.41407,-16.41601 z"
           id="circle5296"
           inkscape:connector-curvature="0" />
        <path
           style="fill:#813b0c;fill-opacity:1;stroke:#000000;stroke-width:1;stroke-linecap:round;stroke-linejoin:round;stroke-miterlimit:4;stroke-dasharray:none;stroke-opacity:1"
           d="m -143.96835,24.47314 a 16.414978,16.414978 0 0 0 -13.61719,7.27344 l 1.97265,4.58008 c 0,0 -2.75703,-1.19332 -3.58203,-1.55078 a 16.414978,16.414978 0 0 0 -1.18945,6.11328 16.414978,16.414978 0 0 0 16.41602,16.41406 16.414978,16.414978 0 0 0 16.41406,-16.41406 16.414978,16.414978 0 0 0 0,-0.0234 c -2.56145,-4.69832 -5.48723,-10.04323 -7.65235,-13.83594 a 16.414978,16.414978 0 0 0 -8.76171,-2.55664 z"
           id="circle5298"
           inkscape:connector-curvature="0" />
      </g>
      <g
         id="g7692"
         style="stroke-width:1;stroke-miterlimit:4;stroke-dasharray:none">
        <path
           style="fill:#a54d15;fill-opacity:1;stroke:#000000;stroke-width:1;stroke-linecap:round;stroke-linejoin:round;stroke-miterlimit:4;stroke-dasharray:none;stroke-opacity:1"
           d="m 39.396484,269.41602 0,46.61914 1.835938,0.0156 1.320312,-4.08203 0.378907,3.15625 1.894531,-6.43945 -0.142578,7.39648 1.498047,0.0117 c 0.43089,-1.417 0.822276,-2.59177 0.916015,-2.35742 0.170175,0.42544 0.21432,1.53653 0.232422,2.36719 l 0.556641,0.006 0.726562,-1.23633 0.240235,1.24414 1.921875,0.0176 0.490234,-2.90235 1.517578,0.2207 L 51.427734,311.5 c 0,0 1.957831,-1.22184 4.13086,-2.69531 l 0,-39.38867 -16.16211,0 z m 2.097657,63.01953 c -0.434967,1.1203 -0.71228,1.9337 -0.892579,2.47265 0.01331,0.19744 0.04052,0.48116 0.05078,0.65821 L 45,338.64258 l -5.603516,1.17969 0,66.21679 c 2.933706,2.03707 6.052342,4.18916 6.31836,4.38867 0.408881,0.30667 -3.090199,5.4744 -6.31836,10.13477 l 0,13.15039 C 40.529786,440.98483 41.785156,449 41.785156,449 l -2.388672,4.98438 0,4.72656 c 1.951679,0.82979 3.812493,1.72658 3.638672,2.07422 -0.124585,0.24917 -1.746355,0.96515 -3.638672,1.75 l 0,6.86328 1.138672,0.49414 -1.138672,1.33398 0,10.10352 1.31836,1.0625 2.320312,12.5 c 0,0 -1.831643,-0.32886 -3.638672,-0.65625 l 0,4.48437 16.16211,0 0,-5.10742 c -0.0264,-0.0867 -0.04509,-0.17815 -0.06836,-0.26562 l -4.224609,3.60546 c 0,10e-6 1.085869,-6.736 2.263672,-13.74218 -0.123767,-0.58177 -0.190407,-1.20934 -0.136719,-2.06836 0.17857,-2.85714 0.357422,-3.74917 0.357422,-5.17774 0,-1.42857 0.178852,-2.32254 0.357422,-5.17968 0.17857,-2.85715 0,-3.39202 0,-6.42774 0,-3.03571 0.178288,-4.46372 0.892578,-8.03515 0.538856,-2.69427 0.369183,-2.75508 0.558594,-3.69141 l 0,-10.60547 C 55.413465,441.29087 55.232633,440.34927 55,439 c -0.464592,-2.69463 -0.757875,-3.89521 -0.980469,-4.83789 l -1.996093,16.82812 0.125,-22.17968 -0.378907,-1.05274 c 0,0 2.001224,-6.62092 3.789063,-12.20117 l 0,-60.32226 L 53.572266,349 l 1.986328,-7.21484 0,-8.50586 -0.94336,-0.0566 -1.580078,4.08007 -0.982422,-2.58789 -2.230468,8.92774 -0.212891,-10.7207 -0.914063,-0.0547 -1.552734,5.06054 -2.410156,-4.64257 -1.072266,1.78711 c 0,0 -0.31372,-1.31652 -0.626953,-2.54493 l -1.539062,-0.0918 z m 9.878906,49.39648 c 0,0 -1.767578,22.98193 -1.767578,23.61328 0,0.63135 -1.767578,-14.39453 -1.767578,-14.39453 l 3.535156,-9.21875 z m -3.390625,90.11914 0.882812,18.94141 -1.261718,-2.65235 0.378906,-16.28906 z"
           transform="translate(-353.82773,-232.31592)"
           id="rect5290"
           inkscape:connector-curvature="0" />
        <path
           style="fill:#813b0c;fill-opacity:1;stroke:#000000;stroke-width:1;stroke-linecap:round;stroke-linejoin:round;stroke-miterlimit:4;stroke-dasharray:none;stroke-opacity:1"
           d="m 47.730469,483.0625 a 16.414978,16.414978 0 0 0 -15.244141,10.36328 c 0.761957,2.91133 1.492679,5.60501 2.246094,8.44531 0.528124,0.2901 1.632812,0.89063 1.632812,0.89063 l -1.052734,1.28711 c 0.731679,2.74689 1.485912,5.64419 2.193359,8.25 a 16.414978,16.414978 0 0 0 10.22461,3.59375 A 16.414978,16.414978 0 0 0 50.25,515.67773 C 50.23956,513.00481 50.17773,510.25 50.17773,510.25 l 1.88086,5.04297 A 16.414978,16.414978 0 0 0 64.144531,499.47852 16.414978,16.414978 0 0 0 47.730469,483.0625 Z m 2.019531,10.60742 -0.505859,2.52539 c 0,0 -0.503522,1.26231 -1.513672,1.00977 -1.01015,-0.25254 -1.01093,-0.75627 -0.50586,-2.27149 0.50508,-1.51523 1.262701,-0.7586 2.525391,-1.26367 z"
           transform="translate(-353.82773,-232.31592)"
           id="path5284"
           inkscape:connector-curvature="0" />
        <path
           style="fill:#813b0c;fill-opacity:1;stroke:#000000;stroke-width:1;stroke-linecap:round;stroke-linejoin:round;stroke-miterlimit:4;stroke-dasharray:none;stroke-opacity:1"
           d="m 45.205078,368.41016 a 16.414978,16.414978 0 0 0 -14.091797,8.0332 l 6.261719,9.39258 -8.398438,1.36523 a 16.414978,16.414978 0 0 0 16.228516,14.03906 16.414978,16.414978 0 0 0 16.414063,-16.41406 16.414978,16.414978 0 0 0 -16.414063,-16.41601 z m 1.767578,13.38476 2.019532,0 c 0,0 1.515827,2.77833 2.273437,4.04102 0.75762,1.26269 -1.262701,0.001 -2.525391,-0.50391 l -1.263672,-0.50586 -0.503906,-3.03125 z"
           transform="translate(-353.82773,-232.31592)"
           id="circle5286"
           inkscape:connector-curvature="0" />
        <path
           style="fill:#813b0c;fill-opacity:1;stroke:#000000;stroke-width:1;stroke-linecap:round;stroke-linejoin:round;stroke-miterlimit:4;stroke-dasharray:none;stroke-opacity:1"
           d="M 55.599609,259.56445 C 47.611882,261.79725 38.927734,264 38.927734,264 c 0,0 -3.892303,7.94474 -6.787109,13.36914 a 16.414978,16.414978 0 0 0 16.09375,13.25977 16.414978,16.414978 0 0 0 16.416016,-16.41407 16.414978,16.414978 0 0 0 -9.050782,-14.65039 z"
           transform="translate(-353.82773,-232.31592)"
           id="circle5288"
           inkscape:connector-curvature="0" />
      </g>
    </g>
    <g
       id="g4956"
       style="stroke-width:1;stroke-miterlimit:4;stroke-dasharray:none">
      <path
         inkscape:connector-curvature="0"
         id="path4237"
         d="m 1255.0228,-157.72716 c 0,0 1.0514,7.8194 2.9512,16.06836 2.6782,1.83887 6.3223,4.33789 6.3223,4.33789 l -5.7227,-1.83008 c 1.0698,4.26734 2.3607,8.45218 3.8496,11.53516 10.7012,22.1583 28.1328,12.85156 28.1328,12.85156 l 4.1875,-4.48047 c 0,0 8.8469,-19.34954 -11.3633,-31.0957 l -12.0117,9.48437 5.8946,-12.16991 c -0.8346,-0.28151 -1.6893,-0.55447 -2.5684,-0.81055 l -8.125,3.88867 2.3574,-5.34375 c -7.2213,-1.61971 -13.9043,-2.43555 -13.9043,-2.43555 z"
         style="fill:url(#linearGradient4241);fill-opacity:1;stroke:#000000;stroke-width:1;stroke-linecap:round;stroke-linejoin:round;stroke-miterlimit:4;stroke-dasharray:none;stroke-opacity:1" />
      <path
         inkscape:connector-curvature="0"
         id="path4243"
         d="m 1323.7943,-105.60021 c -11.5484,-0.0943 -18.4141,8.632824 -18.4141,8.632824 l -2.4082,6.722654 c 0,0 -0.3543,24.7603 28.1446,25.89649 2.9996,0.11957 6.7115,-0.30788 10.5605,-0.99805 l 0.5117,-4.92969 -1.4296,-0.89258 1.9648,-2.32226 1.9648,1.60742 -1.0722,1.60742 1.3847,4.27539 c 5.4233,-1.14773 10.6417,-2.62536 14.4219,-3.77148 0.6337,-1.39772 1.1636,-2.7697 1.336,-3.89649 0.1472,-0.9626 0.1468,-2.20768 0.082,-3.49414 -2.0807,-2.88944 -4.7868,-6.51337 -7.75,-10.09765 l -5.3672,1.80468 1.875,-5.85742 c -2.4843,-2.74915 -5.0121,-5.24854 -7.3594,-7.042974 -6.9797,-5.335794 -13.196,-7.201294 -18.4453,-7.244144 z"
         style="fill:url(#linearGradient4245);fill-opacity:1;stroke:#000000;stroke-width:1;stroke-linecap:round;stroke-linejoin:round;stroke-miterlimit:4;stroke-dasharray:none;stroke-opacity:1" />
      <path
         inkscape:connector-curvature="0"
         id="path4247"
         d="m 1356.9642,-160.192 c -3.318,0.5191 -10.8766,1.80219 -18.0683,3.76953 0.2998,2.4814 0.6582,5.46485 0.6582,5.46485 l -5.7051,-3.92969 c -2.1232,0.72155 -4.1074,1.50533 -5.7949,2.35742 -22.9842,11.60556 -13.3301,30.50976 -13.3301,30.50976 l 4.6465,4.54297 c 0,0 20.4618,9.79788 32.6074,-12.94336 1.4364,-2.68945 2.6505,-6.3745 3.6582,-10.24023 -4.7489,1.81755 -8.1776,3.08593 -8.5059,3.08593 -0.5353,0 4.3348,-4.66787 10.0665,-10.00194 0.3638,-1.82918 0.6879,-3.57156 0.955,-5.17383 l -16.3261,10.63085 c 0,0 8.7156,-10.523 15.1386,-18.07226 z"
         style="fill:url(#linearGradient4251);fill-opacity:1;stroke:#000000;stroke-width:1;stroke-linecap:round;stroke-linejoin:round;stroke-miterlimit:4;stroke-dasharray:none;stroke-opacity:1" />
      <path
         inkscape:connector-curvature="0"
         id="path4249"
         d="m 1287.556,-103.21935 c -6.0623,0.069 -13.87,3.290754 -19.5957,16.722668 -0.6427,1.50789 -1.2298,3.31611 -1.7754,5.26953 l 3.4161,7.04102 c 0,0 -2.2605,-2.05277 -4.2364,-3.84571 -2.6132,11.06489 -3.8926,25.04102 -3.8926,25.04102 0,0 8.3707,-1.47465 16.584,-4.11914 l -0.6269,-6.97461 c 0,0 2.4046,2.72804 4.9394,5.45117 2.5385,-0.98304 4.915,-2.07466 6.8223,-3.28125 20.396,-12.903 11.8281,-33.92188 11.8281,-33.92187 l -4.123,-5.050798 c 0,0 -3.9907,-2.39294 -9.3399,-2.33203 z"
         style="fill:url(#linearGradient4253);fill-opacity:1;stroke:#000000;stroke-width:1;stroke-linecap:round;stroke-linejoin:round;stroke-miterlimit:4;stroke-dasharray:none;stroke-opacity:1" />
      <g
         id="g6286"
         style="stroke-width:1;stroke-miterlimit:4;stroke-dasharray:none">
        <path
           style="fill:url(#linearGradient4217);fill-opacity:1;stroke:#005205;stroke-width:1;stroke-linecap:round;stroke-linejoin:round;stroke-miterlimit:4;stroke-dasharray:none;stroke-opacity:1"
           d="m 1304.605,-113.96113 c 0,0 -18.0272,9.33524 -12.4278,40.658208 l 16.1954,4.64649 c 0,0 -8.5718,-0.27761 -15.3164,-0.4961 3.413,13.53685 14.123,33.76563 14.123,33.76563 0,0 1.665,-3.3892 3.8516,-8.25195 l -4.6778,-3.29883 5.7442,0.8789 c 0.5812,-1.32202 1.1592,-2.63225 1.7715,-4.08593 l -5.7481,-5.12696 c 0,0 3.4717,0.62692 7.3223,1.33008 2.4855,-6.1939 4.8568,-12.88952 6.0097,-18.34765 6.8883,-32.609348 -11.0859,-41.671888 -11.0859,-41.671888 l -5.7617,0 z m 1.2422,23.333998 4.5468,3.03124 -4.5468,3.28126 -2.0196,-3.78711 2.0196,-2.52539 z"
           id="rect4208"
           inkscape:connector-curvature="0" />
        <path
           style="fill:url(#linearGradient4221);fill-opacity:1;stroke:#005205;stroke-width:1;stroke-linecap:round;stroke-linejoin:round;stroke-miterlimit:4;stroke-dasharray:none;stroke-opacity:1"
           d="m 1307.769,-176.32636 c 0,0 -2.5702,4.0797 -5.6132,9.54492 l 3.6914,5.19141 c 0,0 -1.4602,-0.29466 -5.6914,-1.48828 -2.9734,5.61677 -5.9937,11.98183 -7.3672,17.07226 -7.2296,26.79347 11.6367,34.23828 11.6367,34.23828 l 6.0469,0 c 0,0 19.8367,-8.02323 12.6015,-35.24219 -0.4188,-1.57566 -1.044,-3.30487 -1.7871,-5.10156 l -10.6679,6.85352 c 0.4224,0.63333 0.7473,1.30388 0.916,1.9707 l 4.6679,1.64648 -4.5703,0 c -0.084,0.61181 -0.2887,1.23987 -0.584,1.83985 l 3.6407,10.48437 c 0,0 -4.3765,-4.21471 -7.293,-7.14453 -0.2615,0.0712 -0.5257,0.11694 -0.791,0.125 -0.6939,0.0211 -1.348,-0.24086 -1.9473,-0.65234 l -2.8496,3.68164 c 0,0 0.8774,-2.53794 1.7852,-4.64063 -0.9123,-1.05953 -1.569,-2.46534 -1.7852,-3.69336 -0.3206,-1.82087 0.068,-4.42352 1.2969,-5.85547 l -0.2871,-2.2246 1.3926,1.39257 c 0.1209,-0.0515 0.2444,-0.0978 0.375,-0.13086 0.1841,-0.0468 0.3721,-0.0752 0.5624,-0.0898 0.1791,-0.0137 0.3596,-0.0146 0.5411,-0.002 1.1431,0.0796 2.3194,0.67635 3.33,1.52343 2.2224,-4.07428 5.4769,-10.12261 7.6524,-14.5996 -4.2693,-7.84738 -8.9024,-14.69922 -8.9024,-14.69922 z"
           id="path4219"
           inkscape:connector-curvature="0" />
        <path
           style="fill:url(#linearGradient4225);fill-opacity:1;stroke:#005205;stroke-width:1;stroke-linecap:round;stroke-linejoin:round;stroke-miterlimit:4;stroke-dasharray:none;stroke-opacity:1"
           d="m 1334.5004,-125.19092 c -5.0791,-0.04 -9.1475,0.97893 -12.3711,2.45898 l -13.945,10.85427 c 0.3404,0.72928 11.9116,13.74049 13.4782,15.99339 5.5282,2.9251 13.6096,4.5959 25.086,1.67578 l 2.789,-12.83203 0.1485,11.92969 c 11.1737,-3.86012 26.7011,-13.95117 26.7011,-13.95117 0,0 -4.7377,-2.88853 -10.9453,-6.15235 -2.8176,3.1821 -5.2091,5.82372 -5.2968,5.64844 -0.1051,-0.21031 1.1734,-3.43236 2.6015,-7.01953 -5.6021,-2.83842 -11.9025,-5.69518 -16.957,-7.00586 -1.0782,-0.27959 -2.1238,-0.51686 -3.1406,-0.71875 -2.4007,8.04137 -5.9903,19.03711 -5.9903,19.03711 l 1.0957,-19.73828 c -1.1225,-0.10155 -2.2168,-0.17151 -3.2539,-0.17969 z"
           id="path4223"
           inkscape:connector-curvature="0"
           sodipodi:nodetypes="sccccccccccscccs" />
        <path
           style="fill:url(#linearGradient4305);fill-opacity:1;stroke:#005205;stroke-width:1;stroke-linecap:round;stroke-linejoin:round;stroke-miterlimit:4;stroke-dasharray:none;stroke-opacity:1"
           d="m 1271.5473,-127.94873 c -0.246,4.9e-4 -0.5097,0.0144 -0.7598,0.0176 l -4.8398,7.84765 c 0,0 1.2086,-3.83951 2.2851,-7.76367 -6.411,0.37033 -15.2755,2.49799 -22.3515,4.45898 l -0.1367,7.46094 c 0,0 4.2079,6.71493 7.0527,9.90235 0.6853,0.44165 1.3712,0.87573 2.0547,1.29296 l 18.6719,-10.80078 -10.7129,14.92188 c 14.3654,5.96862 24.5539,3.62291 30.6328,0.5625 l 12.9113,-11.52916 c -0.018,-0.10945 -11.5871,-9.62904 -11.5871,-9.62904 -4.4481,-3.63356 -11.6326,-6.76519 -23.2207,-6.74219 z"
           id="path4281"
           inkscape:connector-curvature="0"
           sodipodi:nodetypes="sccccccccccccs" />
      </g>
      <path
         transform="translate(-353.82773,-232.31592)"
         inkscape:connector-curvature="0"
         id="path6294"
         d="m 1661.5977,55.990234 c 0,0 -2.5703,4.079702 -5.6133,9.544922 l 3.6914,5.191406 c 0,0 -1.4602,-0.294661 -5.6914,-1.488281 -2.9734,5.61677 -5.9937,11.981836 -7.3672,17.072266 -3.0155,11.17576 -1.4875,18.976113 1.3144,24.283203 -4.4882,-3.40819 -11.523,-6.24846 -22.5566,-6.22656 -0.246,4.9e-4 -0.5097,0.0144 -0.7598,0.0176 l -4.8398,7.84765 c 0,0 1.2086,-3.83951 2.2851,-7.76367 -6.411,0.37033 -15.2755,2.49799 -22.3515,4.45898 l -0.1367,7.46094 c 0,0 4.2079,6.71493 7.0527,9.90235 0.6853,0.44165 1.3712,0.87573 2.0547,1.29296 l 18.6719,-10.80078 -10.7129,14.92188 c 14.3654,5.96862 24.5539,3.62291 30.6328,0.5625 l 0.3945,-0.35156 c -2.4675,6.26215 -3.8142,15.04798 -1.6601,27.09765 l 16.1953,4.64649 c 0,0 -8.5718,-0.27761 -15.3164,-0.4961 3.413,13.53685 14.123,33.76563 14.123,33.76563 0,0 1.665,-3.38921 3.8516,-8.25196 l -4.6778,-3.29882 5.7442,0.8789 c 0.5812,-1.32202 1.1592,-2.63226 1.7715,-4.08593 l -5.7481,-5.12696 c 0,0 3.4717,0.62692 7.3223,1.33008 2.4855,-6.1939 4.8568,-12.88953 6.0097,-18.34766 2.0683,-9.79129 1.886,-17.44716 0.6309,-23.38476 5.5152,2.79029 13.4714,4.31276 24.6641,1.46484 l 2.789,-12.83203 0.1485,11.92969 c 11.1737,-3.86012 26.7011,-13.95117 26.7011,-13.95117 0,0 -4.7377,-2.88853 -10.9453,-6.15235 -2.8176,3.1821 -5.2091,5.82372 -5.2968,5.64844 -0.1051,-0.21031 1.1734,-3.43236 2.6015,-7.01953 -5.6021,-2.83842 -11.9025,-5.69518 -16.957,-7.00586 -1.0782,-0.27959 -2.1238,-0.51686 -3.1406,-0.71875 -2.4007,8.04137 -5.9903,19.03711 -5.9903,19.03711 l 1.0957,-19.73828 c -1.1225,-0.10155 -2.2168,-0.17151 -3.2539,-0.17969 -5.0791,-0.04 -9.1475,0.97893 -12.3711,2.45898 l -0.7382,0.57422 c 3.0015,-5.48497 4.7033,-13.491131 1.6835,-24.851559 -0.4188,-1.57566 -1.044,-3.304873 -1.7871,-5.101563 l -10.6679,6.853516 c 0.4224,0.63333 0.7473,1.303883 0.916,1.970703 l 4.6679,1.646484 -4.5703,0 c -0.084,0.61181 -0.2886,1.239864 -0.5839,1.839844 L 1668.5176,103 c 0,0 -4.3765,-4.214711 -7.293,-7.144531 -0.2615,0.0712 -0.5257,0.11694 -0.791,0.125 -0.6939,0.0211 -1.348,-0.240864 -1.9473,-0.652344 l -2.8496,3.681641 c 0,0 0.8774,-2.537935 1.7852,-4.640625 -0.9123,-1.05953 -1.569,-2.46534 -1.7852,-3.69336 -0.3206,-1.82087 0.068,-4.423518 1.2969,-5.855469 l -0.2871,-2.224609 1.3926,1.392578 c 0.1209,-0.0515 0.2444,-0.0978 0.375,-0.130859 0.1841,-0.0468 0.3722,-0.07524 0.5625,-0.08984 0.1791,-0.0137 0.3595,-0.01455 0.541,-0.002 1.1431,0.0796 2.3195,0.676358 3.3301,1.523437 2.2224,-4.074279 5.4768,-10.122619 7.6523,-14.599609 -4.2693,-7.84738 -8.9023,-14.699219 -8.9023,-14.699219 z m -1.9219,85.699216 4.5469,3.03125 -4.5469,3.28125 -2.0196,-3.78711 2.0196,-2.52539 z"
         style="fill:none;fill-opacity:1;stroke:url(#radialGradient6334);stroke-width:1;stroke-linecap:round;stroke-linejoin:round;stroke-miterlimit:4;stroke-dasharray:none;stroke-opacity:1" />
    </g>
    <path
       style="fill:#ffec7d;fill-opacity:1;stroke:#000000;stroke-width:1;stroke-linecap:round;stroke-linejoin:miter;stroke-miterlimit:4;stroke-dasharray:none;stroke-opacity:1"
       d="m 167.74649,38.451372 c 0,0 5.67093,27.681269 7.07226,42.507243 2.13144,22.550495 4.10925,47.728255 4.08027,71.650395 -0.0278,22.94599 -1.93392,45.43523 -4.08027,68.71698 -1.39882,15.17334 -7.07226,43.59081 -7.07226,43.59081 l 237.31836,0 c 0,0 -5.67094,-27.68125 -7.07227,-42.50723 -2.13144,-22.55049 -4.28,-47.43719 -4.25878,-71.21938 0.0206,-23.093 2.11243,-45.86625 4.25878,-69.147995 1.39882,-15.173332 7.07227,-43.590823 7.07227,-43.590823 z"
       id="rect8765"
       inkscape:connector-curvature="0"
       sodipodi:nodetypes="csasccsascc" />
    <path
       style="fill:url(#radialGradient8916);fill-opacity:1;stroke:#000000;stroke-width:1;stroke-linecap:round;stroke-linejoin:round;stroke-miterlimit:4;stroke-dasharray:none;stroke-opacity:1"
       d="m 167.63367,249.28113 c 0,0 42.89294,8.33376 117.96174,8.33376 96.02946,0 118.46682,-8.33376 118.46682,-8.33376 l 0,13.21429 0,13.21429 c 0,0 -22.24097,-3.03045 -117.96174,-3.03045 -91.17508,0 -118.46682,3.03045 -118.46682,3.03045 l 0,-13.21429 z"
       id="path8914"
       inkscape:connector-curvature="0"
       sodipodi:nodetypes="cscscsccc" />
    <g
       id="g8847"
       style="fill:#8d865d;fill-opacity:1">
      <ellipse
         style="fill:#8d865d;fill-opacity:1;stroke:#000000;stroke-width:1;stroke-linecap:round;stroke-linejoin:round;stroke-miterlimit:4;stroke-dasharray:none;stroke-opacity:1"
         id="ellipse8630"
         cx="167.9579"
         cy="262.75549"
         rx="6.7857289"
         ry="13.214293" />
      <path
         style="fill:#8d865d;fill-rule:evenodd;stroke:#000000;stroke-width:1;stroke-linecap:round;stroke-linejoin:miter;stroke-opacity:1;fill-opacity:1"
         d="m 167.81294,259.8782 c 1.80663,3.68343 0.65501,10.01969 -1.0816,10.07489 -1.27278,0.0404 -3.05694,-1.73848 -3.23695,-6.25421 -0.20551,-5.15555 1.56956,-9.54025 3.76272,-9.84277 2.46987,-0.34068 4.61807,4.33414 4.80901,9.96416 0.21266,6.2702 -1.95631,11.57655 -4.63197,11.87584 -0.88879,0.0994 -1.789,-0.34134 -2.59631,-1.25698"
         id="path8645"
         inkscape:connector-curvature="0"
         sodipodi:nodetypes="csssscc" />
    </g>
    <g
       id="g8842">
      <path
         sodipodi:nodetypes="cc"
         inkscape:connector-curvature="0"
         id="path8649"
         d="m 167.8687,259.8092 3.75,0.35714"
         style="fill:none;fill-rule:evenodd;stroke:#000000;stroke-width:1px;stroke-linecap:butt;stroke-linejoin:miter;stroke-opacity:1" />
      <path
         sodipodi:nodetypes="cc"
         inkscape:connector-curvature="0"
         id="path8651"
         d="m 166.79727,269.94314 4.73215,-0.3125"
         style="fill:none;fill-rule:evenodd;stroke:#000000;stroke-width:1px;stroke-linecap:butt;stroke-linejoin:miter;stroke-opacity:1" />
      <path
         style="fill:none;fill-rule:evenodd;stroke:#000000;stroke-width:1px;stroke-linecap:butt;stroke-linejoin:miter;stroke-opacity:1"
         d="m 167.55488,253.84383 5.93171,0.76079"
         id="path8653"
         inkscape:connector-curvature="0"
         sodipodi:nodetypes="cc" />
    </g>
    <g
       id="g8828"
       style="fill:#8d865d;fill-opacity:1">
      <ellipse
         transform="scale(-1,1)"
         ry="13.214293"
         rx="6.7857289"
         cy="262.75549"
         cx="-404.88644"
         id="ellipse8664"
         style="fill:#8d865d;fill-opacity:1;stroke:#000000;stroke-width:1;stroke-linecap:round;stroke-linejoin:round;stroke-miterlimit:4;stroke-dasharray:none;stroke-opacity:1" />
      <path
         sodipodi:nodetypes="csssscc"
         inkscape:connector-curvature="0"
         id="path8666"
         d="m 405.03142,259.87821 c -1.80663,3.68343 -0.65501,10.01969 1.0816,10.07489 1.27278,0.0404 3.05694,-1.73848 3.23695,-6.25421 0.20551,-5.15555 -1.56956,-9.54025 -3.76272,-9.84277 -2.46987,-0.34068 -4.61807,4.33414 -4.80901,9.96416 -0.21266,6.2702 1.95631,11.57655 4.63197,11.87584 0.88879,0.0994 1.789,-0.34134 2.59631,-1.25698"
         style="fill:#8d865d;fill-rule:evenodd;stroke:#000000;stroke-width:1;stroke-linecap:round;stroke-linejoin:miter;stroke-opacity:1;fill-opacity:1" />
    </g>
    <g
       id="g8832">
      <path
         style="fill:none;fill-rule:evenodd;stroke:#000000;stroke-width:1px;stroke-linecap:butt;stroke-linejoin:miter;stroke-opacity:1"
         d="m 404.97566,259.80921 -3.75,0.35714"
         id="path8668"
         inkscape:connector-curvature="0"
         sodipodi:nodetypes="cc" />
      <path
         style="fill:none;fill-rule:evenodd;stroke:#000000;stroke-width:1px;stroke-linecap:butt;stroke-linejoin:miter;stroke-opacity:1"
         d="m 406.04709,269.94315 -4.73215,-0.3125"
         id="path8670"
         inkscape:connector-curvature="0"
         sodipodi:nodetypes="cc" />
      <path
         sodipodi:nodetypes="cc"
         inkscape:connector-curvature="0"
         id="path8672"
         d="m 405.28948,253.84384 -5.93171,0.76079"
         style="fill:none;fill-rule:evenodd;stroke:#000000;stroke-width:1px;stroke-linecap:butt;stroke-linejoin:miter;stroke-opacity:1" />
    </g>
    <path
       sodipodi:nodetypes="cscscsccc"
       inkscape:connector-curvature="0"
       id="path8674"
       d="m 404.38646,53.94142 c 0,0 -42.89294,-8.33376 -117.96174,-8.33376 -96.02946,0 -118.46682,8.33376 -118.46682,8.33376 l 0,-13.21429 0,-13.21429 c 0,0 22.24097,3.03045 117.96174,3.03045 91.17508,0 118.46682,-3.03045 118.46682,-3.03045 l 0,13.21429 z"
       style="fill:url(#radialGradient8904);fill-opacity:1;stroke:#000000;stroke-width:1;stroke-linecap:round;stroke-linejoin:round;stroke-miterlimit:4;stroke-dasharray:none;stroke-opacity:1" />
    <g
       id="g8894"
       style="fill:#8d865d;fill-opacity:1">
      <ellipse
         transform="scale(1,-1)"
         style="fill:#8d865d;fill-opacity:1;stroke:#000000;stroke-width:1;stroke-linecap:round;stroke-linejoin:round;stroke-miterlimit:4;stroke-dasharray:none;stroke-opacity:1"
         id="ellipse8690"
         cx="404.88647"
         cy="-40.727123"
         rx="6.7857289"
         ry="13.214293" />
      <path
         style="fill:#8d865d;fill-rule:evenodd;stroke:#000000;stroke-width:1;stroke-linecap:round;stroke-linejoin:miter;stroke-opacity:1;fill-opacity:1"
         d="m 404.7415,43.60442 c 1.80663,-3.68343 0.65501,-10.01969 -1.0816,-10.07489 -1.27278,-0.0404 -3.05694,1.73848 -3.23695,6.25421 -0.20551,5.15555 1.56956,9.54025 3.76272,9.84277 2.46987,0.34068 4.61807,-4.33414 4.80901,-9.96416 0.21266,-6.2702 -1.95631,-11.57655 -4.63197,-11.87584 -0.88879,-0.0994 -1.789,0.34134 -2.59631,1.25698"
         id="path8692"
         inkscape:connector-curvature="0"
         sodipodi:nodetypes="csssscc" />
    </g>
    <g
       id="g8889">
      <path
         sodipodi:nodetypes="cc"
         inkscape:connector-curvature="0"
         id="path8694"
         d="m 400.65418,43.184701 4.04466,0.40898"
         style="fill:none;fill-rule:evenodd;stroke:#000000;stroke-width:1px;stroke-linecap:butt;stroke-linejoin:miter;stroke-opacity:1" />
      <path
         sodipodi:nodetypes="cc"
         inkscape:connector-curvature="0"
         id="path8696"
         d="m 399.30594,33.30375 4.61429,0.25357"
         style="fill:none;fill-rule:evenodd;stroke:#000000;stroke-width:1px;stroke-linecap:butt;stroke-linejoin:miter;stroke-opacity:1" />
      <path
         style="fill:none;fill-rule:evenodd;stroke:#000000;stroke-width:1px;stroke-linecap:butt;stroke-linejoin:miter;stroke-opacity:1"
         d="m 404.48344,49.63879 -5.20641,-1.35011"
         id="path8698"
         inkscape:connector-curvature="0"
         sodipodi:nodetypes="cc" />
    </g>
    <g
       id="g8880"
       style="fill:#8d865d;fill-opacity:1">
      <ellipse
         ry="13.214293"
         rx="6.7857289"
         cy="-40.727123"
         cx="-167.4579"
         id="ellipse8755"
         style="fill:#8d865d;fill-opacity:1;stroke:#000000;stroke-width:1;stroke-linecap:round;stroke-linejoin:round;stroke-miterlimit:4;stroke-dasharray:none;stroke-opacity:1"
         transform="scale(-1,-1)" />
      <path
         sodipodi:nodetypes="csssscc"
         inkscape:connector-curvature="0"
         id="path8757"
         d="m 167.60288,43.60442 c -1.80663,-3.68343 -0.65501,-10.01969 1.0816,-10.07489 1.27278,-0.0404 3.05694,1.73848 3.23695,6.25421 0.20551,5.15555 -1.56956,9.54025 -3.76272,9.84277 -2.46987,0.34068 -4.61807,-4.33414 -4.80901,-9.96416 -0.21266,-6.2702 1.95631,-11.57655 4.63197,-11.87584 0.88879,-0.0994 1.789,0.34134 2.59631,1.25698"
         style="fill:#8d865d;fill-rule:evenodd;stroke:#000000;stroke-width:1;stroke-linecap:round;stroke-linejoin:miter;stroke-opacity:1;fill-opacity:1" />
    </g>
    <g
       id="g8875">
      <path
         style="fill:none;fill-rule:evenodd;stroke:#000000;stroke-width:1px;stroke-linecap:butt;stroke-linejoin:miter;stroke-opacity:1"
         d="m 171.6902,43.14303 -4.04466,0.40898"
         id="path8759"
         inkscape:connector-curvature="0"
         sodipodi:nodetypes="cc" />
      <path
         style="fill:none;fill-rule:evenodd;stroke:#000000;stroke-width:1px;stroke-linecap:butt;stroke-linejoin:miter;stroke-opacity:1"
         d="m 173.03844,33.30375 -4.61429,0.25357"
         id="path8761"
         inkscape:connector-curvature="0"
         sodipodi:nodetypes="cc" />
      <path
         sodipodi:nodetypes="cc"
         inkscape:connector-curvature="0"
         id="path8763"
         d="m 167.86094,49.63879 5.20641,-1.35011"
         style="fill:none;fill-rule:evenodd;stroke:#000000;stroke-width:1px;stroke-linecap:butt;stroke-linejoin:miter;stroke-opacity:1" />
    </g>
    <g
       transform="translate(-865.82787,-4.6780665)"
       id="g4287"
       style="filter:url(#filter6476)">
      <rect
         ry="42.307446"
         rx="39.605713"
         transform="scale(-1,-1)"
         y="-275.86212"
         x="-1015.512"
         height="238.99994"
         width="239.02396"
         id="rect4289"
         style="opacity:1;fill:url(#linearGradient4283);fill-opacity:1;stroke:#000000;stroke-width:0.99999994;stroke-linecap:round;stroke-linejoin:round;stroke-miterlimit:4;stroke-dasharray:none;stroke-opacity:1" />
      <path
         inkscape:connector-curvature="0"
         id="path4291"
         d="m 816.09363,36.861237 c -21.94157,0 -39.60532,22.357155 -39.60532,50.12575 l 0,54.182053 a 151.82191,82.22065 0 0 0 119.51072,31.55419 151.82191,82.22065 0 0 0 119.51267,-31.66834 l 0,-54.067903 c 0,-27.768595 -17.66378,-50.12575 -39.60534,-50.12575 l -159.81273,0 z"
         style="opacity:1;fill:#ffffff;fill-opacity:0.240625;stroke:none;stroke-width:10;stroke-linecap:round;stroke-linejoin:round;stroke-miterlimit:4;stroke-dasharray:none;stroke-opacity:1" />
      <rect
         style="opacity:1;fill:none;fill-opacity:1;stroke:#000000;stroke-width:4;stroke-linecap:round;stroke-linejoin:round;stroke-miterlimit:4;stroke-dasharray:none;stroke-opacity:1"
         id="rect4293"
         width="239.02396"
         height="238.99994"
         x="-1015.512"
         y="-275.86212"
         transform="scale(-1,-1)"
         rx="39.605713"
         ry="42.307446" />
    </g>
    <ellipse
       style="opacity:1;fill:url(#radialGradient6488);fill-opacity:1;stroke:none;stroke-width:8;stroke-linecap:butt;stroke-linejoin:miter;stroke-miterlimit:4;stroke-dasharray:none;stroke-opacity:1"
       id="path6480"
       cx="542.17218"
       cy="151.6841"
       rx="122.81394"
       ry="122.81397" />
  </g>
</svg>
