<?xml version="1.0" encoding="UTF-8" standalone="no"?>
<!-- Created with Inkscape (http://www.inkscape.org/) -->

<svg
   xmlns:dc="http://purl.org/dc/elements/1.1/"
   xmlns:cc="http://creativecommons.org/ns#"
   xmlns:rdf="http://www.w3.org/1999/02/22-rdf-syntax-ns#"
   xmlns:svg="http://www.w3.org/2000/svg"
   xmlns="http://www.w3.org/2000/svg"
   xmlns:xlink="http://www.w3.org/1999/xlink"
   xmlns:sodipodi="http://sodipodi.sourceforge.net/DTD/sodipodi-0.dtd"
   xmlns:inkscape="http://www.inkscape.org/namespaces/inkscape"
   width="2048"
   height="1024.0001"
   viewBox="0 0 2048 1024.0001"
   id="svg3352"
   version="1.1"
   inkscape:version="0.91 r13725"
   sodipodi:docname="Wounds.svg"
   inkscape:export-filename="C:\Users\lmaga\Documents\GitHub\Anarchy Bros\Assets\Resources\Sprites\wounds.png"
   inkscape:export-xdpi="90"
   inkscape:export-ydpi="90">
  <defs
     id="defs3354">
    <linearGradient
       inkscape:collect="always"
       id="linearGradient4684">
      <stop
         style="stop-color:#ffd300;stop-opacity:1"
         offset="0"
         id="stop4686" />
      <stop
         id="stop4688"
         offset="0.55337626"
         style="stop-color:#ac4400;stop-opacity:1" />
      <stop
         style="stop-color:#ff7f00;stop-opacity:1"
         offset="1"
         id="stop4690" />
    </linearGradient>
    <linearGradient
       inkscape:collect="always"
       xlink:href="#linearGradient4684"
       id="linearGradient6261"
       gradientUnits="userSpaceOnUse"
       gradientTransform="translate(0.75761441,4.2931483)"
       x1="1367.5505"
       y1="-312.52051"
       x2="1426.8315"
       y2="-302.16339" />
  </defs>
  <sodipodi:namedview
     id="base"
     pagecolor="#ffffff"
     bordercolor="#666666"
     borderopacity="1.0"
     inkscape:pageopacity="0.0"
     inkscape:pageshadow="2"
     inkscape:zoom="0.35"
     inkscape:cx="1024.5291"
     inkscape:cy="781.47657"
     inkscape:document-units="px"
     inkscape:current-layer="layer1"
     showgrid="false"
     units="px"
     inkscape:window-width="1536"
     inkscape:window-height="801"
     inkscape:window-x="-8"
     inkscape:window-y="-8"
     inkscape:window-maximized="1"
     inkscape:snap-global="false"
     inkscape:snap-bbox="true"
     inkscape:snap-bbox-midpoints="true"
     fit-margin-top="0"
     fit-margin-left="0"
     fit-margin-right="0"
     fit-margin-bottom="0"
     inkscape:bbox-paths="true"
     inkscape:bbox-nodes="true"
     inkscape:snap-page="true"
     showguides="false" />
  <metadata
     id="metadata3357">
    <rdf:RDF>
      <cc:Work
         rdf:about="">
        <dc:format>image/svg+xml</dc:format>
        <dc:type
           rdf:resource="http://purl.org/dc/dcmitype/StillImage" />
        <dc:title></dc:title>
      </cc:Work>
    </rdf:RDF>
  </metadata>
  <g
     inkscape:groupmode="layer"
     id="layer2"
     inkscape:label="Background"
     style="display:none"
     transform="translate(368.56901,-767.99988)"
     sodipodi:insensitive="true">
    <rect
       style="fill:#ffffff;fill-opacity:1;stroke:#000000;stroke-width:1;stroke-linecap:round;stroke-linejoin:round;stroke-opacity:1"
       id="rect3372"
       width="255.00002"
       height="255.00002"
       x="-368.06915"
       y="768.49988"
       rx="0"
       ry="0" />
    <rect
       ry="0"
       rx="0"
       y="768.49988"
       x="-112.06911"
       height="255.00002"
       width="255.00002"
       id="rect3374"
       style="fill:#ffffff;fill-opacity:1;stroke:#000000;stroke-width:1;stroke-linecap:round;stroke-linejoin:round;stroke-opacity:1" />
    <rect
       ry="0"
       rx="0"
       y="768.49988"
       x="143.93091"
       height="255.00002"
       width="255.00002"
       id="rect3376"
       style="fill:#ffffff;fill-opacity:1;stroke:#000000;stroke-width:1;stroke-linecap:round;stroke-linejoin:round;stroke-opacity:1" />
    <rect
       style="fill:#ffffff;fill-opacity:1;stroke:#000000;stroke-width:1;stroke-linecap:round;stroke-linejoin:round;stroke-opacity:1"
       id="rect3378"
       width="255.00002"
       height="255.00002"
       x="399.93091"
       y="768.49988"
       rx="0"
       ry="0" />
    <rect
       style="fill:#ffffff;fill-opacity:1;stroke:#000000;stroke-width:1;stroke-linecap:round;stroke-linejoin:round;stroke-opacity:1"
       id="rect3380"
       width="255.00002"
       height="255.00002"
       x="655.93085"
       y="768.49988"
       rx="0"
       ry="0" />
    <rect
       ry="0"
       rx="0"
       y="1024.4999"
       x="-368.06915"
       height="255.00002"
       width="255.00002"
       id="rect3388"
       style="fill:#ffffff;fill-opacity:1;stroke:#000000;stroke-width:1;stroke-linecap:round;stroke-linejoin:round;stroke-opacity:1" />
    <rect
       style="fill:#ffffff;fill-opacity:1;stroke:#000000;stroke-width:1;stroke-linecap:round;stroke-linejoin:round;stroke-opacity:1"
       id="rect3390"
       width="255.00002"
       height="255.00002"
       x="-112.06911"
       y="1024.4999"
       rx="0"
       ry="0" />
    <rect
       style="fill:#ffffff;fill-opacity:1;stroke:#000000;stroke-width:1;stroke-linecap:round;stroke-linejoin:round;stroke-opacity:1"
       id="rect3392"
       width="255.00002"
       height="255.00002"
       x="143.93091"
       y="1024.4999"
       rx="0"
       ry="0" />
    <rect
       ry="0"
       rx="0"
       y="1024.4999"
       x="399.93091"
       height="255.00002"
       width="255.00002"
       id="rect3394"
       style="fill:#ffffff;fill-opacity:1;stroke:#000000;stroke-width:1;stroke-linecap:round;stroke-linejoin:round;stroke-opacity:1" />
    <rect
       ry="0"
       rx="0"
       y="1024.4999"
       x="655.93085"
       height="255.00002"
       width="255.00002"
       id="rect3396"
       style="fill:#ffffff;fill-opacity:1;stroke:#000000;stroke-width:1;stroke-linecap:round;stroke-linejoin:round;stroke-opacity:1" />
    <rect
       style="fill:#ffffff;fill-opacity:1;stroke:#000000;stroke-width:1;stroke-linecap:round;stroke-linejoin:round;stroke-opacity:1"
       id="rect3404"
       width="255.00002"
       height="255.00002"
       x="911.93085"
       y="768.49988"
       rx="0"
       ry="0" />
    <rect
       ry="0"
       rx="0"
       y="768.49988"
       x="1167.9309"
       height="255.00002"
       width="255.00002"
       id="rect3406"
       style="fill:#ffffff;fill-opacity:1;stroke:#000000;stroke-width:1;stroke-linecap:round;stroke-linejoin:round;stroke-opacity:1" />
    <rect
       ry="0"
       rx="0"
       y="768.49988"
       x="1423.931"
       height="255.00002"
       width="255.00002"
       id="rect3408"
       style="fill:#ffffff;fill-opacity:1;stroke:#000000;stroke-width:1;stroke-linecap:round;stroke-linejoin:round;stroke-opacity:1" />
    <rect
       style="fill:#ffffff;fill-opacity:1;stroke:#000000;stroke-width:1;stroke-linecap:round;stroke-linejoin:round;stroke-opacity:1"
       id="rect3410"
       width="255.00002"
       height="255.00002"
       x="399.93091"
       y="1280.5"
       rx="0"
       ry="0" />
    <rect
       style="fill:#ffffff;fill-opacity:1;stroke:#000000;stroke-width:1;stroke-linecap:round;stroke-linejoin:round;stroke-opacity:1"
       id="rect3412"
       width="255.00002"
       height="255.00002"
       x="655.93085"
       y="1280.5"
       rx="0"
       ry="0" />
    <rect
       ry="0"
       rx="0"
       y="1024.4999"
       x="911.93085"
       height="255.00002"
       width="255.00002"
       id="rect3420"
       style="fill:#ffffff;fill-opacity:1;stroke:#000000;stroke-width:1;stroke-linecap:round;stroke-linejoin:round;stroke-opacity:1" />
    <rect
       style="fill:#ffffff;fill-opacity:1;stroke:#000000;stroke-width:1;stroke-linecap:round;stroke-linejoin:round;stroke-opacity:1"
       id="rect3422"
       width="255.00002"
       height="255.00002"
       x="1167.9309"
       y="1024.4999"
       rx="0"
       ry="0" />
    <rect
       style="fill:#ffffff;fill-opacity:1;stroke:#000000;stroke-width:1;stroke-linecap:round;stroke-linejoin:round;stroke-opacity:1"
       id="rect3424"
       width="255.00002"
       height="255.00002"
       x="1423.931"
       y="1024.4999"
       rx="0"
       ry="0" />
    <rect
       ry="0"
       rx="0"
       y="1536.5"
       x="399.93091"
       height="255.00002"
       width="255.00002"
       id="rect3426"
       style="fill:#ffffff;fill-opacity:1;stroke:#000000;stroke-width:1;stroke-linecap:round;stroke-linejoin:round;stroke-opacity:1" />
    <rect
       ry="0"
       rx="0"
       y="1536.5"
       x="655.93085"
       height="255.00002"
       width="255.00002"
       id="rect3428"
       style="fill:#ffffff;fill-opacity:1;stroke:#000000;stroke-width:1;stroke-linecap:round;stroke-linejoin:round;stroke-opacity:1" />
    <rect
       ry="0"
       rx="0"
       y="1280.4999"
       x="-368.06915"
       height="255.00002"
       width="255.00002"
       id="rect10027"
       style="fill:#ffffff;fill-opacity:1;stroke:#000000;stroke-width:1;stroke-linecap:round;stroke-linejoin:round;stroke-opacity:1" />
    <rect
       style="fill:#ffffff;fill-opacity:1;stroke:#000000;stroke-width:1;stroke-linecap:round;stroke-linejoin:round;stroke-opacity:1"
       id="rect10029"
       width="255.00002"
       height="255.00002"
       x="-112.06911"
       y="1280.4999"
       rx="0"
       ry="0" />
    <rect
       style="fill:#ffffff;fill-opacity:1;stroke:#000000;stroke-width:1;stroke-linecap:round;stroke-linejoin:round;stroke-opacity:1"
       id="rect10031"
       width="255.00002"
       height="255.00002"
       x="143.93091"
       y="1280.4999"
       rx="0"
       ry="0" />
    <rect
       style="fill:#ffffff;fill-opacity:1;stroke:#000000;stroke-width:1;stroke-linecap:round;stroke-linejoin:round;stroke-opacity:1"
       id="rect10033"
       width="255.00002"
       height="255.00002"
       x="-368.06915"
       y="1536.4999"
       rx="0"
       ry="0" />
    <rect
       ry="0"
       rx="0"
       y="1536.4999"
       x="-112.06911"
       height="255.00002"
       width="255.00002"
       id="rect10035"
       style="fill:#ffffff;fill-opacity:1;stroke:#000000;stroke-width:1;stroke-linecap:round;stroke-linejoin:round;stroke-opacity:1" />
    <rect
       ry="0"
       rx="0"
       y="1536.4999"
       x="143.93091"
       height="255.00002"
       width="255.00002"
       id="rect10037"
       style="fill:#ffffff;fill-opacity:1;stroke:#000000;stroke-width:1;stroke-linecap:round;stroke-linejoin:round;stroke-opacity:1" />
    <rect
       style="fill:#ffffff;fill-opacity:1;stroke:#000000;stroke-width:1;stroke-linecap:round;stroke-linejoin:round;stroke-opacity:1"
       id="rect10039"
       width="255.00002"
       height="255.00002"
       x="911.93085"
       y="1280.5"
       rx="0"
       ry="0" />
    <rect
       ry="0"
       rx="0"
       y="1280.5"
       x="1167.9309"
       height="255.00002"
       width="255.00002"
       id="rect10041"
       style="fill:#ffffff;fill-opacity:1;stroke:#000000;stroke-width:1;stroke-linecap:round;stroke-linejoin:round;stroke-opacity:1" />
    <rect
       ry="0"
       rx="0"
       y="1280.5"
       x="1423.931"
       height="255.00002"
       width="255.00002"
       id="rect10043"
       style="fill:#ffffff;fill-opacity:1;stroke:#000000;stroke-width:1;stroke-linecap:round;stroke-linejoin:round;stroke-opacity:1" />
    <rect
       ry="0"
       rx="0"
       y="1536.5"
       x="911.93085"
       height="255.00002"
       width="255.00002"
       id="rect10045"
       style="fill:#ffffff;fill-opacity:1;stroke:#000000;stroke-width:1;stroke-linecap:round;stroke-linejoin:round;stroke-opacity:1" />
    <rect
       style="fill:#ffffff;fill-opacity:1;stroke:#000000;stroke-width:1;stroke-linecap:round;stroke-linejoin:round;stroke-opacity:1"
       id="rect10047"
       width="255.00002"
       height="255.00002"
       x="1167.9309"
       y="1536.5"
       rx="0"
       ry="0" />
    <rect
       style="fill:#ffffff;fill-opacity:1;stroke:#000000;stroke-width:1;stroke-linecap:round;stroke-linejoin:round;stroke-opacity:1"
       id="rect10049"
       width="255.00002"
       height="255.00002"
       x="1423.931"
       y="1536.5"
       rx="0"
       ry="0" />
  </g>
  <g
     inkscape:label="Layer 1"
     inkscape:groupmode="layer"
     id="layer1"
     transform="translate(353.82773,232.31592)"
     style="display:inline">
    <rect
       ry="0"
       rx="0"
       y="-98.180992"
       x="-721.89697"
       height="255"
       width="255"
       id="rect6319-1"
       style="fill:#ffffff;fill-opacity:0.19607843;stroke:#000000;stroke-width:1;stroke-linecap:round;stroke-linejoin:round;stroke-opacity:1" />
    <path
       style="fill:#ff0000;fill-opacity:1;stroke:#000000;stroke-width:4;stroke-linecap:round;stroke-linejoin:round;stroke-miterlimit:4;stroke-dasharray:none;stroke-opacity:1"
       d="m -220.27203,-104.31592 c 0,6.415758 -4.27314,15.545336 -7.34155,15.545327 -1.9198,-6e-6 0.3164,-7.750266 -0.68161,-10.845894 -0.5971,-1.852103 -4.55339,-7.954673 -3.26708,-11.842293 0.76156,-2.30167 2.666,-4.47388 5.7344,-4.47389 3.0684,0 5.55584,5.20099 5.55584,11.61675 z"
       id="path6943"
       inkscape:connector-curvature="0"
       sodipodi:nodetypes="sssass" />
    <path
       sodipodi:nodetypes="sssass"
       inkscape:connector-curvature="0"
       id="path6950"
       d="m 35.72797,-104.31592 c 0,6.415758 -4.27314,15.545336 -7.34155,15.545327 -1.9198,-6e-6 0.3164,-7.750266 -0.68161,-10.845894 -0.5971,-1.852103 -4.55339,-7.954673 -3.26708,-11.842293 0.76156,-2.30167 2.666,-4.47388 5.7344,-4.47389 3.0684,0 5.55584,5.20099 5.55584,11.61675 z"
       style="fill:#ff0000;fill-opacity:1;stroke:#000000;stroke-width:4;stroke-linecap:round;stroke-linejoin:round;stroke-miterlimit:4;stroke-dasharray:none;stroke-opacity:1" />
    <path
       style="fill:#ff0000;fill-opacity:1;stroke:#000000;stroke-width:4;stroke-linecap:round;stroke-linejoin:round;stroke-miterlimit:4;stroke-dasharray:none;stroke-opacity:1"
       d="m 18.396451,-138.10835 c 3.20788,5.55621 4.072022,15.59923 1.414696,17.13343 -1.6626,0.95989 -3.601124,-6.87013 -6.013236,-9.05202 -1.443159,-1.30542 -7.9206918,-4.61226 -8.7505247,-8.62219 -0.4913047,-2.37408 0.071884,-5.20749 2.7291912,-6.7417 2.6573125,-1.5342 7.4119935,1.72627 10.6198735,7.28248 z"
       id="path6952"
       inkscape:connector-curvature="0"
       sodipodi:nodetypes="sssass" />
    <path
       sodipodi:nodetypes="sssass"
       inkscape:connector-curvature="0"
       id="path6954"
       d="m 38.484119,-135.0496 c -2.092547,3.75031 -2.656239,10.52911 -0.922827,11.56466 1.084538,0.6479 2.349065,-4.63718 3.922521,-6.1099 0.941394,-0.88113 5.166781,-3.11317 5.708094,-5.81978 0.320485,-1.60244 -0.04689,-3.51493 -1.780291,-4.55048 -1.733403,-1.03555 -4.83495,1.16519 -6.927497,4.9155 z"
       style="fill:#ff0000;fill-opacity:1;stroke:#000000;stroke-width:4;stroke-linecap:round;stroke-linejoin:round;stroke-miterlimit:4;stroke-dasharray:none;stroke-opacity:1" />
    <path
       sodipodi:nodetypes="sssass"
       inkscape:connector-curvature="0"
       id="path6956"
       d="m 61.766732,-138.00478 c -5.450284,3.38472 -10.951642,11.83126 -9.332851,14.43792 1.012827,1.63089 6.417048,-4.35755 9.573343,-5.14288 1.888402,-0.46985 9.159827,-0.32843 11.783806,-3.47214 1.553528,-1.86123 2.394142,-4.62506 0.775368,-7.23172 -1.618779,-2.60665 -7.349383,-1.97591 -12.799666,1.40882 z"
       style="fill:#ff0000;fill-opacity:1;stroke:#000000;stroke-width:4;stroke-linecap:round;stroke-linejoin:round;stroke-miterlimit:4;stroke-dasharray:none;stroke-opacity:1" />
    <path
       style="fill:#ff0000;fill-opacity:1;stroke:#000000;stroke-width:4;stroke-linecap:round;stroke-linejoin:round;stroke-miterlimit:4;stroke-dasharray:none;stroke-opacity:1"
       d="m 290.21149,-108.79186 c 0,7.01279 -3.15344,16.991951 -5.41782,16.991941 -1.41675,-6e-6 0.23349,-8.471491 -0.50301,-11.855191 -0.44064,-2.02445 -3.36025,-8.69493 -2.41099,-12.94432 0.562,-2.51586 1.96741,-4.89021 4.23179,-4.89022 2.26438,0 4.10003,5.68498 4.10003,12.69779 z"
       id="path6960"
       inkscape:connector-curvature="0"
       sodipodi:nodetypes="sssass" />
    <path
       sodipodi:nodetypes="sssass"
       inkscape:connector-curvature="0"
       id="path6962"
       d="m 275.31523,-132.71076 c 2.22658,3.96732 2.82638,11.13839 0.98194,12.23386 -1.15401,0.68539 -2.49953,-4.90551 -4.17377,-6.46346 -1.00168,-0.93211 -5.49772,-3.29331 -6.0737,-6.15654 -0.34102,-1.69518 0.0499,-3.71833 1.89432,-4.81381 1.84443,-1.09547 5.14463,1.23262 7.37121,5.19995 z"
       style="fill:#ff0000;fill-opacity:1;stroke:#000000;stroke-width:4;stroke-linecap:round;stroke-linejoin:round;stroke-miterlimit:4;stroke-dasharray:none;stroke-opacity:1" />
    <path
       style="fill:#ff0000;fill-opacity:1;stroke:#000000;stroke-width:4;stroke-linecap:round;stroke-linejoin:round;stroke-miterlimit:4;stroke-dasharray:none;stroke-opacity:1"
       d="m 314.68708,-161.31356 c -2.09254,3.75031 -2.65624,10.52911 -0.92282,11.56466 1.08453,0.6479 2.34906,-4.63718 3.92252,-6.1099 0.94139,-0.88113 5.16678,-3.11317 5.70809,-5.81978 0.32049,-1.60244 -0.0469,-3.51493 -1.78029,-4.55048 -1.7334,-1.03555 -4.83495,1.16519 -6.9275,4.9155 z"
       id="path6964"
       inkscape:connector-curvature="0"
       sodipodi:nodetypes="sssass" />
    <path
       style="fill:#ff0000;fill-opacity:1;stroke:#000000;stroke-width:4;stroke-linecap:round;stroke-linejoin:round;stroke-miterlimit:4;stroke-dasharray:none;stroke-opacity:1"
       d="m 312.37588,-127.61326 c -6.41255,0.16714 -15.40225,3.91908 -15.30509,6.44247 0.0608,1.57878 7.73636,-0.4621 10.86204,0.27797 1.87008,0.4428 8.09486,3.53735 11.9398,2.37826 2.2764,-0.68625 4.38723,-2.30899 4.29008,-4.83237 -0.0971,-2.52336 -5.37429,-4.43347 -11.78683,-4.26633 z"
       id="path6966"
       inkscape:connector-curvature="0"
       sodipodi:nodetypes="sssass" />
    <path
       style="fill:#ff0000;fill-opacity:1;stroke:#000000;stroke-width:4;stroke-linecap:round;stroke-linejoin:round;stroke-miterlimit:4;stroke-dasharray:none;stroke-opacity:1"
       d="m 249.9773,-139.91485 c 6.742,2.83015 13.74328,10.1223 11.88164,12.46672 -1.16477,1.46681 -7.95241,-3.66058 -11.81096,-4.2636 -2.30855,-0.36081 -11.12177,-0.03 -14.42666,-2.72772 -1.95667,-1.59718 -3.08388,-4.01049 -1.22227,-6.35489 1.86162,-2.3444 8.83623,-1.95065 15.57825,0.87949 z"
       id="path6968"
       inkscape:connector-curvature="0"
       sodipodi:nodetypes="sssass" />
    <path
       sodipodi:nodetypes="sssass"
       inkscape:connector-curvature="0"
       id="path6970"
       d="m 280.95006,-154.38186 c 2.43922,4.89817 1.95797,13.20927 -0.88003,14.17222 -1.77564,0.60247 -2.65396,-6.01631 -4.75396,-8.06649 -1.25642,-1.22662 -7.23577,-4.64409 -7.5241,-8.01581 -0.17071,-1.99623 0.76486,-4.25229 3.60284,-5.21526 2.83798,-0.96294 7.11602,2.22717 9.55525,7.12534 z"
       style="fill:#ff0000;fill-opacity:1;stroke:#000000;stroke-width:3.99999976;stroke-linecap:round;stroke-linejoin:round;stroke-miterlimit:4;stroke-dasharray:none;stroke-opacity:1" />
    <path
       sodipodi:nodetypes="sssass"
       inkscape:connector-curvature="0"
       id="path6972"
       d="m 289.9145,-146.51348 c -2.78063,6.44518 -3.58262,17.56089 -1.31723,18.957 1.41738,0.87349 3.12541,-7.92978 5.20389,-10.58553 1.24355,-1.58892 6.80932,-5.9194 7.54456,-10.41012 0.4353,-2.65873 -0.0293,-5.70742 -2.29466,-7.10353 -2.26537,-1.3961 -6.35595,2.69698 -9.13656,9.14218 z"
       style="fill:#ff0000;fill-opacity:1;stroke:#000000;stroke-width:4;stroke-linecap:round;stroke-linejoin:round;stroke-miterlimit:4;stroke-dasharray:none;stroke-opacity:1" />
    <path
       style="fill:#ff0000;fill-opacity:1;stroke:#000000;stroke-width:4;stroke-linecap:round;stroke-linejoin:round;stroke-miterlimit:4;stroke-dasharray:none;stroke-opacity:1"
       d="m 330.42069,-141.31308 c -5.55068,-0.67531 -13.9233,2.04786 -14.26367,4.69332 -0.21294,1.65517 6.74036,0.54299 9.30787,1.72927 1.53614,0.70974 6.37698,4.76303 9.8831,4.06323 2.07581,-0.4143 4.16639,-1.82761 4.50678,-4.47304 0.34039,-2.64545 -3.8834,-5.33747 -9.43408,-6.01278 z"
       id="path6974"
       inkscape:connector-curvature="0"
       sodipodi:nodetypes="sssass" />
    <path
       sodipodi:nodetypes="sssass"
       inkscape:connector-curvature="0"
       id="path6976"
       d="m 250.70828,-174.6695 c 4.83145,5.27163 10.68294,17.42441 9.9479,20.76443 -0.45989,2.0897 -5.76063,-6.71255 -8.3309,-8.16976 -1.53778,-0.8719 -7.08112,-1.57972 -9.70058,-6.17419 -1.55087,-2.72017 -2.73045,-6.57801 -1.99544,-9.91798 0.73504,-3.33998 5.24756,-1.77411 10.07902,3.4975 z"
       style="fill:#ff0000;fill-opacity:1;stroke:#000000;stroke-width:4;stroke-linecap:round;stroke-linejoin:round;stroke-miterlimit:4;stroke-dasharray:none;stroke-opacity:1" />
    <path
       sodipodi:nodetypes="sssass"
       inkscape:connector-curvature="0"
       id="path6978"
       d="m 285.56895,-168.15198 c -0.80335,4.21879 0.79902,10.82956 2.77053,11.26575 1.23349,0.27291 0.76716,-5.1413 1.79603,-7.03501 0.61555,-1.133 3.92167,-4.58343 3.58199,-7.32266 -0.2011,-1.62176 -1.15275,-3.32086 -3.12423,-3.75706 -1.97149,-0.4362 -4.22096,2.63019 -5.02432,6.84898 z"
       style="fill:#ff0000;fill-opacity:1;stroke:#000000;stroke-width:4;stroke-linecap:round;stroke-linejoin:round;stroke-miterlimit:4;stroke-dasharray:none;stroke-opacity:1" />
    <path
       sodipodi:nodetypes="sssass"
       inkscape:connector-curvature="0"
       id="path6990"
       d="m 505.9773,-139.91485 c 6.742,2.83015 13.74328,10.1223 11.88164,12.46672 -1.16477,1.46681 -7.95241,-3.66058 -11.81096,-4.2636 -2.30855,-0.36081 -11.12177,-0.03 -14.42666,-2.72772 -1.95667,-1.59718 -3.08388,-4.01049 -1.22227,-6.35489 1.86162,-2.3444 8.83623,-1.95065 15.57825,0.87949 z"
       style="fill:#ff0000;fill-opacity:1;stroke:#000000;stroke-width:4;stroke-linecap:round;stroke-linejoin:round;stroke-miterlimit:4;stroke-dasharray:none;stroke-opacity:1" />
    <path
       style="fill:#ff0000;fill-opacity:1;stroke:#000000;stroke-width:3.99999976;stroke-linecap:round;stroke-linejoin:round;stroke-miterlimit:4;stroke-dasharray:none;stroke-opacity:1"
       d="m 536.95006,-154.38186 c 2.43922,4.89817 1.95797,13.20927 -0.88003,14.17222 -1.77564,0.60247 -2.65396,-6.01631 -4.75396,-8.06649 -1.25642,-1.22662 -7.23577,-4.64409 -7.5241,-8.01581 -0.17071,-1.99623 0.76486,-4.25229 3.60284,-5.21526 2.83798,-0.96294 7.11602,2.22717 9.55525,7.12534 z"
       id="path6992"
       inkscape:connector-curvature="0"
       sodipodi:nodetypes="sssass" />
    <path
       sodipodi:nodetypes="sssass"
       inkscape:connector-curvature="0"
       id="path6996"
       d="m 586.42069,-141.31308 c -5.55068,-0.67531 -13.9233,2.04786 -14.26367,4.69332 -0.21294,1.65517 6.74036,0.54299 9.30787,1.72927 1.53614,0.70974 6.37698,4.76303 9.8831,4.06323 2.07581,-0.4143 4.16639,-1.82761 4.50678,-4.47304 0.34039,-2.64545 -3.8834,-5.33747 -9.43408,-6.01278 z"
       style="fill:#ff0000;fill-opacity:1;stroke:#000000;stroke-width:4;stroke-linecap:round;stroke-linejoin:round;stroke-miterlimit:4;stroke-dasharray:none;stroke-opacity:1" />
    <path
       sodipodi:nodetypes="sssass"
       inkscape:connector-curvature="0"
       id="path7002"
       d="m 538.74796,-117.6161 c -2.09254,3.75031 -2.65624,10.52912 -0.92282,11.56467 1.08453,0.6479 2.34906,-4.63719 3.92252,-6.10991 0.94139,-0.88113 5.16678,-3.11317 5.70809,-5.81978 0.32049,-1.60244 -0.0469,-3.51493 -1.78029,-4.55048 -1.7334,-1.03555 -4.83495,1.16519 -6.9275,4.9155 z"
       style="fill:#ff0000;fill-opacity:1;stroke:#000000;stroke-width:4;stroke-linecap:round;stroke-linejoin:round;stroke-miterlimit:4;stroke-dasharray:none;stroke-opacity:1" />
    <path
       style="fill:#ff0000;fill-opacity:1;stroke:#000000;stroke-width:4;stroke-linecap:round;stroke-linejoin:round;stroke-miterlimit:4;stroke-dasharray:none;stroke-opacity:1"
       d="m 560.04368,-165.01313 c -2.80511,3.2519 -4.72281,9.77818 -3.23352,11.14169 0.93178,0.85309 3.23503,-4.06892 5.07291,-5.19448 1.09958,-0.67343 5.68798,-2.00853 6.76342,-4.55062 0.63673,-1.50503 0.66212,-3.45232 -0.82713,-4.81582 -1.48926,-1.36351 -4.97055,0.16733 -7.77568,3.41923 z"
       id="path7004"
       inkscape:connector-curvature="0"
       sodipodi:nodetypes="sssass" />
    <path
       sodipodi:nodetypes="sssass"
       inkscape:connector-curvature="0"
       id="path7010"
       d="m 775.89974,-165.8878 c 2.50426,2.66636 3.89656,8.09213 2.33746,9.26368 -0.97548,0.73299 -2.86439,-3.34178 -4.5798,-4.24726 -1.02633,-0.54175 -5.41857,-1.56739 -6.28243,-3.6742 -0.51146,-1.24734 -0.39165,-2.87724 1.16744,-4.0488 1.55909,-1.17155 4.85308,0.0402 7.35733,2.70658 z"
       style="fill:#ff0000;fill-opacity:1;stroke:#000000;stroke-width:3.99999976;stroke-linecap:round;stroke-linejoin:round;stroke-miterlimit:4;stroke-dasharray:none;stroke-opacity:1" />
    <path
       style="fill:#ff0000;fill-opacity:1;stroke:#000000;stroke-width:4;stroke-linecap:round;stroke-linejoin:round;stroke-miterlimit:4;stroke-dasharray:none;stroke-opacity:1"
       d="m 855.67138,-137.79761 c -4.6583,-0.5476 -11.68486,1.66058 -11.97051,3.80575 -0.1787,1.34215 5.65672,0.4403 7.81145,1.40223 1.28917,0.57552 5.35175,3.86227 8.2942,3.29482 1.74208,-0.33595 3.49656,-1.48199 3.78222,-3.62712 0.28567,-2.14516 -3.25906,-4.32808 -7.91736,-4.87568 z"
       id="path7012"
       inkscape:connector-curvature="0"
       sodipodi:nodetypes="sssass" />
    <path
       style="fill:#ff0000;fill-opacity:1;stroke:#000000;stroke-width:4;stroke-linecap:round;stroke-linejoin:round;stroke-miterlimit:4;stroke-dasharray:none;stroke-opacity:1"
       d="m 794.74793,-117.6161 c -2.09254,3.75031 -2.65624,10.52912 -0.92282,11.56467 1.08453,0.6479 2.34906,-4.63719 3.92252,-6.10991 0.94139,-0.88113 5.16678,-3.11317 5.70809,-5.81978 0.32049,-1.60244 -0.0469,-3.51493 -1.78029,-4.55047 -1.7334,-1.03555 -4.83495,1.16518 -6.9275,4.91549 z"
       id="path7014"
       inkscape:connector-curvature="0"
       sodipodi:nodetypes="sssass" />
    <path
       sodipodi:nodetypes="sssass"
       inkscape:connector-curvature="0"
       id="path7016"
       d="m 824.62995,-177.64003 c -2.80511,3.2519 -4.72281,9.77818 -3.23352,11.14169 0.93178,0.85309 3.23503,-4.06892 5.07291,-5.19448 1.09958,-0.67343 5.68798,-2.00853 6.76342,-4.55062 0.63673,-1.50503 0.66212,-3.45232 -0.82713,-4.81582 -1.48926,-1.36351 -4.97055,0.16733 -7.77568,3.41923 z"
       style="fill:#ff0000;fill-opacity:1;stroke:#000000;stroke-width:4;stroke-linecap:round;stroke-linejoin:round;stroke-miterlimit:4;stroke-dasharray:none;stroke-opacity:1" />
    <path
       sodipodi:nodetypes="sssass"
       inkscape:connector-curvature="0"
       id="path7018"
       d="m 776.40162,-137.24285 c 2.87782,0.78183 6.19267,4.26725 5.63236,5.97114 -0.35058,1.06605 -3.41865,-1.12016 -4.98946,-0.9432 -0.9398,0.10586 -4.39956,1.55912 -5.90848,0.37109 -0.89338,-0.70338 -1.51998,-2.02564 -0.95969,-3.7295 0.5603,-1.70389 3.34744,-2.45136 6.22527,-1.66953 z"
       style="fill:#ff0000;fill-opacity:1;stroke:#000000;stroke-width:4;stroke-linecap:round;stroke-linejoin:round;stroke-miterlimit:4;stroke-dasharray:none;stroke-opacity:1" />
    <path
       style="fill:#ff0000;fill-opacity:1;stroke:#000000;stroke-width:4;stroke-linecap:round;stroke-linejoin:round;stroke-miterlimit:4;stroke-dasharray:none;stroke-opacity:1"
       d="m 820.7723,-145.55106 c -2.29555,1.90356 -3.8691,6.44893 -2.65338,7.76773 0.76063,0.8251 2.64768,-2.43551 4.15072,-2.92505 0.89923,-0.29293 4.65021,-0.40313 5.53156,-2.10943 0.52181,-1.01024 0.54448,-2.47328 -0.6712,-3.79206 -1.21571,-1.3188 -4.06214,-0.84475 -6.3577,1.05881 z"
       id="path7020"
       inkscape:connector-curvature="0"
       sodipodi:nodetypes="sssass" />
    <path
       style="fill:#ff0000;fill-opacity:1;stroke:#000000;stroke-width:3.99999976;stroke-linecap:round;stroke-linejoin:round;stroke-miterlimit:4;stroke-dasharray:none;stroke-opacity:1"
       d="m 1042.1019,-174.49896 c 1.2736,1.37582 1.9817,4.17547 1.1888,4.77998 -0.4961,0.37822 -1.4567,-1.72433 -2.3291,-2.19155 -0.522,-0.27954 -2.7557,-0.80876 -3.195,-1.89586 -0.2602,-0.64362 -0.1992,-1.48463 0.5937,-2.08915 0.7929,-0.60451 2.4681,0.0207 3.7416,1.39658 z"
       id="path7024"
       inkscape:connector-curvature="0"
       sodipodi:nodetypes="sssass" />
    <path
       sodipodi:nodetypes="sssass"
       inkscape:connector-curvature="0"
       id="path7026"
       d="m 1112.1691,-136.48567 c -3.4756,-0.3784 -8.7183,1.14747 -8.9314,2.62979 -0.1334,0.92743 4.2206,0.30425 5.8282,0.96894 0.9619,0.39769 3.9931,2.66885 6.1885,2.27674 1.2999,-0.23215 2.6089,-1.02406 2.822,-2.50636 0.2132,-1.48231 -2.4316,-2.99072 -5.9073,-3.36911 z"
       style="fill:#ff0000;fill-opacity:1;stroke:#000000;stroke-width:4;stroke-linecap:round;stroke-linejoin:round;stroke-miterlimit:4;stroke-dasharray:none;stroke-opacity:1" />
    <path
       sodipodi:nodetypes="sssass"
       inkscape:connector-curvature="0"
       id="path7028"
       d="m 1063.5036,-127.13833 c -1.1164,2.16853 -1.4172,6.08822 -0.4923,6.68701 0.5786,0.37463 1.2533,-2.68136 2.0928,-3.53292 0.5022,-0.5095 2.7566,-1.80012 3.0454,-3.36516 0.171,-0.92657 -0.025,-2.03243 -0.9498,-2.63121 -0.9249,-0.59878 -2.5796,0.67374 -3.6961,2.84228 z"
       style="fill:#ff0000;fill-opacity:1;stroke:#000000;stroke-width:4;stroke-linecap:round;stroke-linejoin:round;stroke-miterlimit:4;stroke-dasharray:none;stroke-opacity:1" />
    <path
       style="fill:#ff0000;fill-opacity:1;stroke:#000000;stroke-width:4;stroke-linecap:round;stroke-linejoin:round;stroke-miterlimit:4;stroke-dasharray:none;stroke-opacity:1"
       d="m 1082.5467,-176.42656 c -1.8339,2.16765 -3.0876,6.51791 -2.114,7.4268 0.6092,0.56865 2.1149,-2.71225 3.3164,-3.46252 0.7188,-0.4489 3.7185,-1.33884 4.4216,-3.03334 0.4162,-1.00322 0.4328,-2.30124 -0.5408,-3.21012 -0.9736,-0.90888 -3.2494,0.11154 -5.0832,2.27918 z"
       id="path7030"
       inkscape:connector-curvature="0"
       sodipodi:nodetypes="sssass" />
    <path
       style="fill:#ff0000;fill-opacity:1;stroke:#000000;stroke-width:4;stroke-linecap:round;stroke-linejoin:round;stroke-miterlimit:4;stroke-dasharray:none;stroke-opacity:1"
       d="m 1033.2765,-135.87222 c 1.7821,0.42208 3.835,2.30373 3.488,3.2236 -0.2171,0.57552 -2.1171,-0.60473 -3.0899,-0.5092 -0.582,0.0571 -2.7246,0.84171 -3.6591,0.20034 -0.5532,-0.37973 -0.9412,-1.09357 -0.5942,-2.01343 0.347,-0.91986 2.073,-1.3234 3.8552,-0.90131 z"
       id="path7032"
       inkscape:connector-curvature="0"
       sodipodi:nodetypes="sssass" />
    <path
       sodipodi:nodetypes="sssass"
       inkscape:connector-curvature="0"
       id="path7034"
       d="m 1078.6501,-144.28479 c -1.3601,1.1123 -2.2925,3.7683 -1.5722,4.53891 0.4507,0.48213 1.5689,-1.42314 2.4594,-1.70919 0.5329,-0.17117 2.7555,-0.23556 3.2777,-1.2326 0.3092,-0.59032 0.3226,-1.44521 -0.3977,-2.21582 -0.7204,-0.77061 -2.4069,-0.49361 -3.7672,0.6187 z"
       style="fill:#ff0000;fill-opacity:1;stroke:#000000;stroke-width:4;stroke-linecap:round;stroke-linejoin:round;stroke-miterlimit:4;stroke-dasharray:none;stroke-opacity:1" />
  </g>
</svg>
